<svg width="143" height="108" viewBox="0 0 143 108" version="1.1" xmlns="http://www.w3.org/2000/svg" xmlns:xlink="http://www.w3.org/1999/xlink" xmlns:figma="http://www.figma.com/figma/ns">
<title>chat_bubbles</title>
<desc>Created using Figma</desc>
<g id="Canvas" transform="translate(-3811 -1755)" figma:type="canvas">
<g id="chat_bubbles" style="mix-blend-mode:normal;" figma:type="frame">
<g id="Chat Bubble 1" style="mix-blend-mode:normal;" figma:type="vector">
<use xlink:href="#path0_fill" transform="translate(3814 1757.95)" fill="#FFFFFF" style="mix-blend-mode:normal;"/>
<use xlink:href="#path1_stroke" transform="translate(3814 1757.95)" fill="#4A4A4A" style="mix-blend-mode:normal;"/>
</g>
<g id="Chat Bubble 2" style="mix-blend-mode:normal;" figma:type="vector">
<use xlink:href="#path2_fill" transform="translate(3867.9 1780.18)" fill="#FFFFFF" style="mix-blend-mode:normal;"/>
<use xlink:href="#path3_stroke" transform="translate(3867.9 1780.18)" fill="#4A4A4A" style="mix-blend-mode:normal;"/>
</g>
</g>
</g>
<defs>
<path id="path0_fill" d="M 0 0L 90.0466 0L 90.0466 61.5407L 45.1847 61.5407L 13.2326 85.3837L 25.4971 61.5407L 0 61.5407L 0 0Z"/>
<path id="path1_stroke" d="M 90.0466 0L 92.5466 0C 92.5466 -1.38071 91.4273 -2.5 90.0466 -2.5L 90.0466 0ZM 0 0L 0 -2.5C -1.38071 -2.5 -2.5 -1.38071 -2.5 5.55112e-16L 0 0ZM 0 61.5407L -2.5 61.5407C -2.5 62.9214 -1.38071 64.0407 5.55112e-16 64.0407L 0 61.5407ZM 25.4971 61.5407L 27.7202 62.6842C 28.1188 61.9092 28.0851 60.9825 27.6312 60.2386C 27.1772 59.4946 26.3686 59.0407 25.4971 59.0407L 25.4971 61.5407ZM 13.2326 85.3837L 11.0095 84.2402C 10.4772 85.2749 10.7293 86.5401 11.6175 87.2919C 12.5057 88.0437 13.7952 88.0833 14.7278 87.3873L 13.2326 85.3837ZM 90.0466 61.5407L 90.0466 64.0407C 91.4273 64.0407 92.5466 62.9214 92.5466 61.5407L 90.0466 61.5407ZM 45.1847 61.5407L 45.1847 59.0407C 44.6458 59.0407 44.1214 59.2148 43.6895 59.5371L 45.1847 61.5407ZM 90.0466 -2.5L 0 -2.5L 0 2.5L 90.0466 2.5L 90.0466 -2.5ZM -2.5 0L -2.5 61.5407L 2.5 61.5407L 2.5 0L -2.5 0ZM 0 64.0407L 25.4971 64.0407L 25.4971 59.0407L 0 59.0407L 0 64.0407ZM 23.2739 60.3972L 11.0095 84.2402L 15.4558 86.5272L 27.7202 62.6842L 23.2739 60.3972ZM 87.5466 0L 87.5466 61.5407L 92.5466 61.5407L 92.5466 0L 87.5466 0ZM 90.0466 59.0407L 45.1847 59.0407L 45.1847 64.0407L 90.0466 64.0407L 90.0466 59.0407ZM 43.6895 59.5371L 11.7375 83.3801L 14.7278 87.3873L 46.6798 63.5443L 43.6895 59.5371Z"/>
<path id="path2_fill" d="M 0 39.9531C 0 62.0186 17.9179 79.9063 40.0207 79.9063C 46.0369 79.9063 51.743 78.581 56.8622 76.2069L 82.9461 79.2619L 72.6632 63.074C 77.3094 56.5482 80.0414 48.5691 80.0414 39.9531C 80.0414 17.8876 62.1235 0 40.0207 0C 17.9179 0 0 17.8876 0 39.9531Z"/>
<path id="path3_stroke" d="M 72.6632 63.074L 70.6266 61.624C 70.0367 62.4525 70.0075 63.5559 70.5529 64.4144L 72.6632 63.074ZM 82.9461 79.2619L 82.6553 81.7449C 83.6133 81.8571 84.5503 81.4082 85.0633 80.5914C 85.5762 79.7746 85.5735 78.7355 85.0564 77.9214L 82.9461 79.2619ZM 56.8622 76.2069L 57.153 73.7239C 56.6942 73.6702 56.2295 73.7446 55.8104 73.939L 56.8622 76.2069ZM 40.0207 77.4063C 19.2946 77.4063 2.5 60.6339 2.5 39.9531L -2.5 39.9531C -2.5 63.4033 16.5411 82.4063 40.0207 82.4063L 40.0207 77.4063ZM 2.5 39.9531C 2.5 19.2723 19.2946 2.5 40.0207 2.5L 40.0207 -2.5C 16.5411 -2.5 -2.5 16.5029 -2.5 39.9531L 2.5 39.9531ZM 40.0207 2.5C 60.7468 2.5 77.5414 19.2723 77.5414 39.9531L 82.5414 39.9531C 82.5414 16.5029 63.5002 -2.5 40.0207 -2.5L 40.0207 2.5ZM 77.5414 39.9531C 77.5753 48.1587 75.0854 55.4064 70.6266 61.624L 74.6997 64.524C 79.5335 57.69 82.5075 48.9796 82.5414 39.9531L 77.5414 39.9531ZM 70.5529 64.4144L 80.8359 80.6023L 85.0564 77.9214L 74.7734 61.7335L 70.5529 64.4144ZM 55.8104 73.939C 50.93 76.2169 45.7523 77.4225 40.0207 77.4063L 40.0207 82.4063C 46.3215 82.39 52.556 80.9451 57.914 78.4749L 55.8104 73.939ZM 83.2369 76.7788L 57.153 73.7239L 56.5714 78.69L 82.6553 81.7449L 83.2369 76.7788Z"/>
</defs>
</svg>
