<?xml version="1.0" encoding="UTF-8" standalone="no"?>
<svg width="200px" height="200px" viewBox="0 0 200 200" version="1.1" xmlns="http://www.w3.org/2000/svg" xmlns:xlink="http://www.w3.org/1999/xlink">
    <!-- Generator: Sketch 39.1 (31720) - http://www.bohemiancoding.com/sketch -->
    <title>Leader</title>
    <desc>Created with Sketch.</desc>
    <defs>
        <path d="M119.891744,30.2358484 C205.927065,39.7317279 193.796625,142.820709 189.786425,144.797285 C189.786425,144.797285 160.241909,124.238608 99.9999985,110.558472 C39.7580885,96.878336 35.9442432,112.717219 35.9442432,112.717219 C32.9029024,115.855131 30.6947986,114.821887 31.1871752,110.438124 C31.1871752,110.438124 33.8564226,20.7399689 119.891744,30.2358484 Z" id="path-1"></path>
        <mask id="mask-2" maskContentUnits="userSpaceOnUse" maskUnits="objectBoundingBox" x="0" y="0" width="161.61506" height="115.265495" fill="white">
            <use xlink:href="#path-1"></use>
        </mask>
        <path d="M26.7971359,117.435627 C29.1183132,113.675198 34.0743715,108.808064 38.1627559,107.128148 C38.1627559,107.128148 40.8057126,102.450819 70.4028577,103.355445 C100.000003,104.26007 161.621841,126.225583 161.621841,126.225583 C161.621841,126.225583 130.615749,175 115.578662,175 C100.541576,175 71.9442474,150.211948 39.2880584,150.211947 C6.63186936,150.211945 8.46995498,168.387217 5.06796745,162.737504 C1.66597993,157.087792 26.7971359,117.435627 26.7971359,117.435627 Z" id="path-3"></path>
        <mask id="mask-4" maskContentUnits="userSpaceOnUse" maskUnits="objectBoundingBox" x="0" y="0" width="156.870536" height="71.7606885" fill="white">
            <use xlink:href="#path-3"></use>
        </mask>
    </defs>
    <g id="Page-1" stroke="none" stroke-width="1" fill="none" fill-rule="evenodd">
        <g id="Leader">
            <use id="Rectangle-4" stroke="#E42D40" mask="url(#mask-2)" stroke-width="6" fill="#FFFFFF" xlink:href="#path-1"></use>
            <path d="M91.439906,32 C91.439906,32 74.0780833,33.2743478 66.9527262,66.2420048 C59.827369,99.2096618 56,104 56,104" id="Path-2" stroke="#E42D40" stroke-width="3"></path>
            <path d="M131,33 C131,33 144.835121,40.3564866 142.987333,72.1101473 C141.139544,103.863808 135.804006,119.5 135.804006,119.5" id="Path-3" stroke="#E42D40" stroke-width="3"></path>
            <use id="Rectangle-5" stroke="#E42D40" mask="url(#mask-4)" stroke-width="6" xlink:href="#path-3"></use>
            <path d="M95.675323,50.6297754 C93.5967007,51.3902071 91.8923786,53.7881381 91.8684939,55.9967228 L91.4709512,92.7568292 C91.4471198,94.9604807 93.2135695,96.7468933 95.4309374,96.7468933 L98.0937721,96.7468933 C100.304643,96.7468933 102.096909,94.957545 102.096909,92.7421902 L102.096909,79.0984586 C102.096909,73.8841458 104.865475,70.6753368 107.228886,70.6753368 C109.322191,70.6753368 109.929924,72.7476935 109.929924,75.8896496 L109.929924,92.7500854 C109.929924,94.9574614 111.726995,96.7468933 113.92785,96.7468933 L116.668632,96.7468933 C118.876625,96.7468933 120.666557,94.9520894 120.666557,92.7431527 L120.666557,74.352098 C120.666557,67.26598 117.96552,62.720171 110.942816,62.720171 C107.634041,62.720171 104.460319,63.6560718 102.096909,65.7284285 L102.096909,52.2834365 C102.096909,50.0726966 100.41502,48.895831 98.3332303,49.6574213 L95.675323,50.6297754 Z" id="path3866" fill="#E42D40" transform="translate(106.068635, 73.086262) rotate(14.000000) translate(-106.068635, -73.086262) "></path>
            <rect id="Rectangle" fill="#E42D40" transform="translate(117.563058, 27.986434) rotate(7.000000) translate(-117.563058, -27.986434) " x="107.063058" y="24.9690106" width="21" height="6.0348462" rx="3.0174231"></rect>
        </g>
    </g>
</svg>