<?xml version="1.0" encoding="UTF-8" standalone="no"?>
<svg width="180px" height="335px" viewBox="0 0 180 335" version="1.1" xmlns="http://www.w3.org/2000/svg" xmlns:xlink="http://www.w3.org/1999/xlink">
    <!-- Generator: Sketch 39.1 (31720) - http://www.bohemiancoding.com/sketch -->
    <title>Person 2</title>
    <desc>Created with Sketch.</desc>
    <defs></defs>
    <g id="People" stroke="none" stroke-width="1" fill="none" fill-rule="evenodd">
        <g id="Person-2">
            <g id="Body" transform="translate(40.000000, 149.000000)" stroke="#4A4A4A" stroke-width="4">
                <path d="M40,20.0930546 C17.1775937,25.1559359 0,47.2070972 0,73.6428564 L0,134.357197 C0,164.535585 22.3857576,189 50,189 C77.6142424,189 100,164.535585 100,134.357197 L100,73.6428564 C100,47.2070972 82.8224063,25.1559359 60,20.0930546 L60,7.99845994 C60,3.58493529 56.4224178,0 52.0092465,0 L47.9907535,0 C43.5755992,0 40,3.58103249 40,7.99845994 L40,20.0930546 Z" id="Combined-Shape" fill="#CD9C5E"></path>
                <path d="M20.658999,25.756509 C22.5605509,24.044458 24.3800289,24.2389632 26.1831127,25.643471 C33.3607952,31.2345095 40.2786865,56 51.08,56 C64.6392503,56 69.9512686,17.2637059 79.4346154,25.8409865 C90.8097576,36.1293149 82.4,189.357197 82.4,189.357197 C82.4,189.357197 79.8233818,189 50,189 C20.1766182,189 17.6,189.357197 17.6,189.357197 C17.6,189.357197 9.22970587,36.0468051 20.658999,25.756509 Z" id="Fill-3" fill="#FFEB58"></path>
            </g>
            <g id="Face" transform="translate(30.000000, 20.000000)">
                <path d="M0,60.8806724 C0,31.1318607 26.8629028,26 59.9999798,26 C93.137067,26 120,31.1318607 120,60.8806724 L119.999798,86.1350003 C119.999798,115.883812 93.1368956,140 59.9998185,140 C26.8629028,139.999848 0,115.883676 0,86.1348464 L0,60.8806724 Z" id="Fill-3" stroke="#4A4A4A" stroke-width="4" fill="#CD9C5E"></path>
                <path d="M43.7453107,95 C44.5361852,93.8661665 45,92.4872481 45,91 C45,87.1340068 41.8659932,84 38,84 C34.1340068,84 31,87.1340068 31,91 C31,92.4872481 31.4638148,93.8661665 32.2546893,95 C33.5196354,93.1865159 35.6212549,92 38,92 C40.3787451,92 42.4803646,93.1865159 43.7453107,95 Z" id="Combined-Shape" fill="#4A4A4A"></path>
                <path d="M85.7453107,95 C86.5361852,93.8661665 87,92.4872481 87,91 C87,87.1340068 83.8659932,84 80,84 C76.1340068,84 73,87.1340068 73,91 C73,92.4872481 73.4638148,93.8661665 74.2546893,95 C75.5196354,93.1865159 77.6212549,92 80,92 C82.3787451,92 84.4803646,93.1865159 85.7453107,95 Z" id="Combined-Shape" fill="#4A4A4A"></path>
                <path d="M51,90.5 C51,90.5 55,89.5 59,89.5 C63,89.5 67,90.5 67,90.5" id="Line" stroke="#4A4A4A" stroke-width="3" stroke-linecap="square"></path>
                <path d="M94,90 C94,90 107.03969,89.9110773 112,89 C115.206357,88.4110773 118.5,85.5 118.5,85.5" id="Line" stroke="#4A4A4A" stroke-width="5" stroke-linecap="square"></path>
                <path d="M1.5,90 C1.5,90 13.5396903,90.4110773 18.5,89.5 C21.7063569,88.9110773 25,86 25,86" id="Line" stroke="#4A4A4A" stroke-width="5" stroke-linecap="square" transform="translate(13.250000, 88.046247) scale(-1, 1) translate(-13.250000, -88.046247) "></path>
                <path d="M38,115 C38,115 40.9302326,122 59.4651163,122 C78,122 82,115 82,115" id="Path-2" stroke="#4A4A4A" stroke-width="6" stroke-linecap="round"></path>
                <path d="M38,104 C44.627417,104 50,98.627417 50,92 C50,85.372583 44.627417,80 38,80 C35.3610048,80 32.9209738,80.8518669 30.9398887,82.2956189 C27.9457933,84.4776207 26,88.0115782 26,92 C26,98.627417 31.372583,104 38,104 Z" id="Oval-2" stroke="#4A4A4A" stroke-width="3"></path>
                <path d="M80,104 C86.627417,104 92,98.627417 92,92 C92,85.372583 86.627417,80 80,80 C73.372583,80 68,85.372583 68,92 C68,98.627417 73.372583,104 80,104 Z" id="Oval-2" stroke="#4A4A4A" stroke-width="3"></path>
                <path d="M126,64.25 L126,42.3994435 C126,30.1935806 115.998809,20.2988957 103.661674,20.2988957 L33.654707,20.2988957 L33.5660077,0 C21.6399532,0.0149641038 10.6152682,6.15576788 4.59561821,16.1365408 C-1.58490526,26.383907 -1.52776426,39.0788105 4.74481885,49.2735239 C9.32568436,56.7186383 16.7008364,61.9811558 25.1319719,64.1122149 L33.8477842,64.5 L115.999983,64.5 L115.999983,79 L126,79 L126,64.25 Z" id="Combined-Shape" stroke="#4A4A4A" stroke-width="4" fill="#4A4A4A" transform="translate(62.999992, 39.500000) scale(-1, 1) translate(-62.999992, -39.500000) "></path>
            </g>
        </g>
    </g>
</svg>