<?xml version="1.0" encoding="UTF-8" standalone="no"?>
<svg width="200px" height="200px" viewBox="0 0 200 200" version="1.1" xmlns="http://www.w3.org/2000/svg" xmlns:xlink="http://www.w3.org/1999/xlink">
    <!-- Generator: Sketch 39.1 (31720) - http://www.bohemiancoding.com/sketch -->
    <title>Resources</title>
    <desc>Created with Sketch.</desc>
    <defs>
        <rect id="path-1" x="40" y="60" width="120" height="80" rx="8"></rect>
        <mask id="mask-2" maskContentUnits="userSpaceOnUse" maskUnits="objectBoundingBox" x="0" y="0" width="120" height="80" fill="white">
            <use xlink:href="#path-1"></use>
        </mask>
        <path d="M0.70760862,32.2401691 C-0.0989577536,36.5258054 1.93871688,40 5.26656023,40 L128.73344,40 C132.057846,40 134.09791,36.5202361 133.292391,32.2401691 L128.685137,7.75983088 C127.87857,3.47419462 124.525778,0 121.200081,0 L12.7999194,0 C9.47260343,0 6.12038152,3.47976387 5.31486329,7.75983088 L0.70760862,32.2401691" id="path-3"></path>
        <mask id="mask-4" maskContentUnits="userSpaceOnUse" maskUnits="objectBoundingBox" x="0" y="0" width="132.93676" height="40" fill="white">
            <use xlink:href="#path-3"></use>
        </mask>
        <path d="M177.166667,60.4328884 C171.391689,60.4328887 166.710145,53.2364235 166.710145,44.3531355 L166.710145,46.9960536 C166.710145,42.5799551 163.12046,39 158.710892,39 L119.999253,39 C115.581388,39 112,42.5815896 112,46.994441 L112,63.179472 C112,67.5946799 115.589349,71.173913 119.995394,71.173913 L150.288075,71.173913 C159.177868,71.173913 171.491389,66.0864946 177.166667,60.4328884 L177.166667,60.4328884 L177.166667,60.4328884" id="path-5"></path>
        <mask id="mask-6" maskContentUnits="userSpaceOnUse" maskUnits="objectBoundingBox" x="0" y="0" width="65.1666667" height="32.173913" fill="white">
            <use xlink:href="#path-5"></use>
        </mask>
        <path d="M0.0378942808,12.4197384 C0.0378942808,6.01548382 17.5519073,10.6181197 17.5519073,10.6181197 C22.5803793,11.6131262 24.6049265,16.0316424 21.7394509,20.285968 C21.7394509,20.285968 18.5765049,28.3556719 11.5590473,27.5417751 C4.54158967,26.7278783 0.0378942809,18.8239929 0.0378942808,12.4197384 Z" id="path-7"></path>
        <mask id="mask-8" maskContentUnits="userSpaceOnUse" maskUnits="objectBoundingBox" x="0" y="0" width="23.0128829" height="18.5819928" fill="white">
            <use xlink:href="#path-7"></use>
        </mask>
        <path d="M25.9839184,12.2655812 C25.9839184,5.86132665 43.4979314,10.4639625 43.4979314,10.4639625 C48.5264034,11.458969 50.5509506,15.8774852 47.685475,20.1318108 C47.685475,20.1318108 44.5225291,28.2015147 37.5050714,27.3876179 C30.4876138,26.5737211 25.9839184,18.6698357 25.9839184,12.2655812 Z" id="path-9"></path>
        <mask id="mask-10" maskContentUnits="userSpaceOnUse" maskUnits="objectBoundingBox" x="0" y="0" width="23.0128829" height="18.5819928" fill="white">
            <use xlink:href="#path-9"></use>
        </mask>
    </defs>
    <g id="Slices" stroke="none" stroke-width="1" fill="none" fill-rule="evenodd">
        <g id="Resources">
            <use id="Rectangle" stroke="#E42D40" mask="url(#mask-2)" stroke-width="6" xlink:href="#path-1"></use>
            <g id="Group" transform="translate(33.000000, 140.000000)">
                <use id="Rectangle" stroke="#E42D40" mask="url(#mask-4)" stroke-width="6" xlink:href="#path-3"></use>
                <rect id="Rectangle-2" fill="#E42D40" x="23.3370787" y="9" width="12.0449438" height="8" rx="4"></rect>
                <path d="M13.2744083,10.4673233 C13.4269236,9.65694302 14.2249716,9 15.0542162,9 L18.8221883,9 C19.6526337,9 20.3258427,9.66831553 20.3258427,10.5047388 L20.3258427,15.4952612 C20.3258427,16.3263055 19.648182,17 18.8262344,17 L13.5445521,17 C12.7163413,17 12.1681549,16.3453264 12.3210974,15.5326767 L13.2744083,10.4673233 Z" id="Rectangle-2" fill="#E42D40"></path>
                <path d="M11.0159813,24.4673233 C11.1684967,23.656943 11.961579,23 12.7990652,23 L33.8750921,23 C34.7073468,23 35.3820225,23.6683155 35.3820225,24.5047388 L35.3820225,29.4952612 C35.3820225,30.3263055 34.7105612,31 33.8764644,31 L11.2920749,31 C10.4605782,31 9.90972789,30.3453264 10.0626704,29.5326767 L11.0159813,24.4673233 Z" id="Rectangle-2" fill="#E42D40"></path>
                <rect id="Rectangle-2" fill="#E42D40" x="38.3932584" y="9" width="12.0449438" height="8" rx="4"></rect>
                <rect id="Rectangle-2" fill="#E42D40" x="38.3932584" y="23" width="12.0449438" height="8" rx="4"></rect>
                <rect id="Rectangle-2" fill="#E42D40" x="53.4494382" y="9" width="12.0449438" height="8" rx="4"></rect>
                <rect id="Rectangle-2" fill="#E42D40" x="53.4494382" y="23" width="27.1011236" height="8" rx="4"></rect>
                <rect id="Rectangle-2" fill="#E42D40" x="68.505618" y="9" width="12.0449438" height="8" rx="4"></rect>
                <rect id="Rectangle-2" fill="#E42D40" x="98.6179775" y="9" width="12.0449438" height="8" rx="4"></rect>
                <path d="M98.6179775,24.5047388 C98.6179775,23.6736945 99.2874217,23 100.124908,23 L121.200935,23 C122.033189,23 122.831076,23.6546736 122.984019,24.4673233 L123.93733,29.5326767 C124.089845,30.343057 123.542022,31 122.707925,31 L100.123536,31 C99.2920388,31 98.6179775,30.3316845 98.6179775,29.4952612 L98.6179775,24.5047388 Z" id="Rectangle-2" fill="#E42D40"></path>
                <rect id="Rectangle-2" fill="#E42D40" x="83.5617978" y="9" width="12.0449438" height="8" rx="4"></rect>
                <rect id="Rectangle-2" fill="#E42D40" x="83.5617978" y="23" width="12.0449438" height="8" rx="4"></rect>
                <path d="M113.543029,10.5047388 C113.543029,9.67369451 114.217438,9 115.046683,9 L118.814655,9 C119.6451,9 120.44152,9.65467358 120.594463,10.4673233 L121.547774,15.5326767 C121.700289,16.343057 121.146267,17 120.324319,17 L115.042637,17 C114.214426,17 113.543029,16.3316845 113.543029,15.4952612 L113.543029,10.5047388 Z" id="Rectangle-2" fill="#E42D40"></path>
            </g>
            <path d="M66.7049191,47.3748938 C66.9454926,46.4578763 67.0735372,45.4957656 67.0735372,44.5039653 C67.0735372,38.230822 61.9510189,33.1454345 55.6320722,33.1454345 C52.6250817,33.1454345 49.8890238,34.297027 47.8469785,36.1801987 C45.8602579,31.0818865 40.8741776,27.4661691 35.0374352,27.4661691 C27.4546993,27.4661691 21.3076772,33.5686341 21.3076772,41.0964061 C21.3076772,42.3995527 21.4918895,43.6599862 21.8358727,44.8534424 C15.7230079,47.2196447 11.3917409,53.1213233 11.3917409,60.0272907 C11.3917409,69.0187962 18.7340172,76.3078515 27.7911741,76.3078515 C30.8809778,76.3078515 33.7712039,75.459552 36.2384311,73.9847545 C38.504563,75.6808776 41.324639,76.6864692 44.3812983,76.6864692 C47.8586102,76.6864692 51.0297416,75.3850571 53.4274494,73.2460891 C55.9377484,75.1660318 59.0830331,76.3078515 62.4969512,76.3078515 C70.7115819,76.3078515 77.3708557,69.6968479 77.3708557,61.5417615 C77.3708557,54.8375482 72.8703078,49.1768749 66.7049191,47.3748938 Z" id="Combined-Shape" stroke="#E42D40" stroke-width="4" fill="#FFFFFF" transform="translate(44.381298, 52.076319) rotate(-6.000000) translate(-44.381298, -52.076319) "></path>
            <g id="hack-strikes-back" transform="translate(150.042014, 105.023846) rotate(14.000000) translate(-150.042014, -105.023846) translate(114.542014, 86.023846)">
                <g id="svg2" transform="translate(0.000000, -0.000000)">
                    <g id="layer1" transform="translate(0.080373, 0.045116)">
                        <path d="M13.638512,0.10546712 C11.9950458,0.0998873628 11.177063,0.87740626 10.8291078,2.18550531 L10.6845415,2.72742473 L10.4435978,2.72742473 C8.68828742,2.72682243 7.11891471,4.46469764 6.66078078,6.18699964 L0.136023815,30.7136922 C-0.211625876,32.0206393 0.918944998,34.1487693 3.00807341,34.1442358 L40.8349095,34.0756659 L40.8408156,34.3882141 C40.8355109,35.4525733 41.4940098,36.8524193 43.045003,36.8907438 L55.1162853,36.8713895 C56.6672784,36.9097156 58.1771777,36.1333309 58.4861902,34.9716352 L58.7415906,34.0281148 L60.1375532,34.023284 C62.0536952,34.019119 63.0839939,32.9281732 63.848087,30.0556596 L69.7688177,6.55473533 C70.2269454,4.83242868 68.791815,2.74739833 67.0365077,2.746779 L28.0604956,2.75963487 L28.686405,2.15813714 C29.5117588,1.42102236 29.0398992,0.157755997 27.8903669,0.153853248 L13.638512,0.10546712 Z" id="rect3004-3" fill="#4A4A4A"></path>
                        <path d="M11.0866681,7.28831307 L10.428456,9.66659151 L13.2793905,9.73381584 L10.7959689,19.0383541 L13.523699,19.0395927 L16.0071205,9.73505141 L19.6606483,9.73659975 L20.3611045,7.32558165 L11.0866681,7.28831307 Z M22.1130224,7.32630782 L21.4055946,9.73733057 L64.4306878,9.75574035 L65.0742829,7.34439399 L22.1130224,7.32630782 Z M53.5464757,10.8296094 C51.1381437,10.8285256 49.4989089,12.6169387 48.8371609,15.0962742 C48.1530364,17.6594571 48.8379319,19.1207258 51.2580451,19.121757 C52.2142965,19.1222215 53.0231613,18.9242104 53.5615383,18.7207986 L53.493795,17.3775909 C53.0090346,17.5570653 52.4183223,17.7180169 51.8634608,17.7177785 C50.6120629,17.717314 50.5386541,16.5938361 50.9734261,14.9649006 C51.4273765,13.2640973 52.1564499,12.2332504 53.1717291,12.233684 C53.5849264,12.2338388 53.9403605,12.3767275 54.2333065,12.9158986 L55.5882477,11.8225994 C55.2771041,11.3073749 54.809681,10.8301452 53.5464849,10.8296079 L53.5464757,10.8296094 Z M17.4270279,10.9160084 L15.2613314,19.030137 L17.2168756,19.0309112 L18.1442539,15.556336 L20.9020707,15.5575746 L19.9746909,19.0321514 L21.915191,19.0329256 L24.0808876,10.9188016 L22.1403875,10.9180275 L21.2904026,14.1026309 L18.5325858,14.1013922 L19.3825706,10.9167857 L17.4270279,10.9160084 Z M25.5450376,10.9194612 L23.3793411,19.0335898 L28.6342342,19.0358194 L29.0212092,17.5859605 L25.7218587,17.584567 L26.2690501,15.5344145 L28.6508019,15.5354984 L29.2616379,14.1111731 L26.6492355,14.1100893 L27.1136023,12.3702569 L30.2474857,12.3716504 L30.6344576,10.9217899 L25.5450376,10.9194612 Z M34.7511293,10.9233785 L32.5854358,19.0375056 L34.5309476,19.0382797 L35.4583274,15.5637061 L38.2261705,15.5649447 L37.2987923,19.0395215 L39.2342777,19.0402957 L41.3999742,10.9261686 L39.4644858,10.9253945 L38.6145025,14.1099979 L35.8466578,14.1087592 L36.6966457,10.9241573 L34.7511293,10.9233785 Z M45.1556174,10.9278068 L39.9513093,19.040641 L41.891811,19.0414151 L43.0313123,17.0830933 L45.6136295,17.0841771 L45.6825541,19.0430115 L47.6531394,19.0437857 L46.8855227,10.9284106 L45.1556174,10.9278068 Z M56.7033447,10.932715 L54.5376512,19.0468405 L56.4831645,19.0476147 L58.6488611,10.9334892 L56.7033447,10.932715 Z M61.0005246,10.9345421 C60.1624011,12.6591418 59.4071778,13.7820066 57.831899,14.4641345 L57.7952448,14.6014879 L59.3312446,19.0488828 L61.4973822,19.0498118 L59.8787614,14.780456 C60.9077878,14.1100769 61.8832006,13.1989323 62.9360177,10.9353782 L61.0005246,10.9345421 Z M45.4311676,12.9579577 C45.4516135,13.5449323 45.5013459,14.6947336 45.5707377,15.6291142 L43.8608928,15.62834 C44.4258038,14.7062053 45.091046,13.568687 45.4311692,12.9579097 L45.4311676,12.9579577 Z M10.298149,20.2084061 C9.27962231,20.2079416 8.2090903,20.8581071 7.93328565,21.8914639 C7.68297554,22.8293019 8.12730667,23.3062932 9.00891101,23.7235293 C9.45826611,23.9321559 9.71929031,24.1057513 9.60803829,24.5225709 C9.49680632,24.9393952 9.2129152,25.1685544 8.73360443,25.16835 C8.2799748,25.1681951 7.63738512,24.6804243 7.50489304,24.5674666 L6.7693091,25.5948901 C7.11292959,25.8468935 7.74928172,26.2160196 8.63942434,26.2163974 C9.88904579,26.2168619 10.9083821,25.3623897 11.1934575,24.2942928 C11.4298661,23.408558 11.0919049,22.9959096 10.2803847,22.6047552 C9.6363008,22.2918324 9.42924337,22.0758016 9.5055466,21.6937082 C9.5727595,21.4418813 9.82027697,21.2562909 10.2139968,21.2564582 C10.6505083,21.256613 11.095285,21.5823592 11.321217,21.7300957 L12.0765468,20.7789946 C11.7632366,20.509639 11.1198204,20.208756 10.298149,20.2084061 L10.298149,20.2084061 Z M36.6979718,20.2196316 C35.6794451,20.2191671 34.6039015,20.8693279 34.3280938,21.9026878 C34.0777852,22.8405258 34.5271357,23.3175186 35.4087354,23.7347563 C35.8580951,23.9433798 36.1191162,24.1169783 36.0078611,24.5337979 C35.8966153,24.950616 35.612738,25.1797798 35.1334303,25.1795755 C34.6798007,25.1794206 34.0321963,24.6916482 33.8996996,24.5786906 L33.1641187,25.606114 C33.5077377,25.858119 34.1491061,26.2272466 35.0392487,26.2276244 C36.2888717,26.2280889 37.3031902,25.373612 37.5882702,24.3055167 C37.8246757,23.4197819 37.4867161,23.0071351 36.6751944,22.6159807 C36.0311135,22.3030563 35.8290677,22.0870286 35.9053694,21.7049336 C35.9725823,21.4531068 36.2150882,21.2675149 36.608808,21.2676836 C37.0453179,21.2678385 37.4951094,21.5935847 37.7210383,21.7413228 L38.4713549,20.7902201 C38.1580478,20.5208614 37.5196386,20.2199831 36.6979749,20.2196238 L36.6979718,20.2196316 Z M54.2677695,20.2271101 C52.5217238,20.2263359 51.3383129,21.5266143 50.8585472,23.3241331 C50.3625577,25.1824414 50.8644686,26.2343612 52.6190727,26.2351044 C53.3123555,26.2354141 53.8892804,26.0983673 54.2796032,25.9508956 L54.2330798,24.9791055 C53.8816288,25.109225 53.4570327,25.2229909 53.0547546,25.2228175 C52.1474938,25.2225079 52.091163,24.3989312 52.406373,23.2179464 C52.7354875,21.984866 53.2601327,21.2442417 53.9962132,21.2445561 C54.2957792,21.244683 54.5533168,21.3525869 54.7657082,21.7434858 L55.7510702,20.9451208 C55.5254882,20.5715835 55.1835933,20.2275003 54.2677742,20.2271101 L54.2677695,20.2271101 Z M19.1556502,20.278323 C18.7790516,20.2781682 17.5683929,20.2929084 17.3715361,20.2928155 L15.8032736,26.1685645 L17.212268,26.1691838 L17.8762334,23.681529 L18.0266579,23.681594 C18.6172346,23.6819037 18.5693033,24.5457279 18.8719703,26.1698883 L20.3862645,26.1705076 C20.1672346,24.7461266 20.092751,23.829041 19.5208839,23.4379904 C20.1918656,23.1690497 20.7054405,22.7012277 20.9024485,21.9631133 C21.1967931,20.8602841 20.6106899,20.2789253 19.1556517,20.278306 L19.1556502,20.278323 Z M43.3943455,20.288635 C43.0348667,20.2884801 41.8156496,20.3032203 41.6102314,20.3031274 L40.0419705,26.1788764 C40.2901881,26.1789817 41.3987853,26.1896219 41.7240309,26.1897613 C43.3588092,26.1903806 44.3312073,25.6280045 44.6209227,24.542543 C44.799383,23.873898 44.5275769,23.3646842 43.7388835,23.1124966 C44.5227395,22.8696578 45.0269881,22.401122 45.1845923,21.8106342 C45.434904,20.8727931 44.8322701,20.2892295 43.3943486,20.2886179 L43.3943455,20.288635 Z M12.5077475,20.2907562 L12.2280414,21.3387246 L13.6069491,21.339344 L12.3183957,26.1671214 L13.7374165,26.1677408 L15.0259713,21.3399602 L16.3547365,21.3405795 L16.8149537,20.2926901 L12.5077475,20.2907562 Z M22.5010737,20.2949986 L20.9328128,26.1707461 L22.3518335,26.1713654 L23.9200929,20.2956164 L22.5010737,20.2949986 Z M24.9780927,20.2960825 L23.4098318,26.1718315 L24.8238378,26.1724508 L26.3921003,20.2967003 L24.9780927,20.2960825 Z M28.0869025,20.297476 C27.4792616,21.547808 26.9428168,22.3560374 25.8007387,22.8505807 L25.7722264,22.9574132 L26.879664,26.1733752 L28.454127,26.1739945 L27.2776445,23.0851993 C28.0236881,22.5991719 28.7376234,21.9391017 29.5009116,20.2980256 L28.0869025,20.297476 Z M30.4385691,20.298405 L28.8703067,26.174154 L32.6811071,26.1757797 L32.9608146,25.1278098 L30.5640218,25.1267259 L30.9605019,23.6412551 L32.690404,23.6420293 L33.1351623,22.6144819 L31.2347784,22.6137077 L31.5728707,21.3469897 L33.8493212,21.3479187 L34.1290272,20.2999487 L30.4385691,20.298405 Z M48.1838618,20.3059454 L44.4193781,26.1807577 L45.8233562,26.181377 L46.6407176,24.7724035 L48.5160342,24.7731777 L48.5711436,26.1825228 L50.0001937,26.1831421 L49.4374154,20.3064889 L48.1838618,20.3059454 Z M56.552581,20.3095066 L54.9843216,26.185254 L56.4033408,26.1858734 L57.9716017,20.3101259 L56.552581,20.3095066 Z M59.6664055,20.3109001 C59.0587646,21.5612336 58.5223182,22.3694631 57.3802417,22.8640048 L57.3517278,22.9708373 L58.459167,26.1867993 L60.0386478,26.1874186 L58.857146,23.0986172 C59.6031896,22.6125929 60.3070985,21.9525196 61.0703867,20.311442 L59.6664055,20.3109001 Z M18.5361248,21.2092183 L18.8520179,21.2093514 C19.4340331,21.2096611 19.51689,21.5741855 19.4010026,22.0083714 C19.2596361,22.538079 18.8785024,22.7865831 18.4762258,22.7864128 L18.1152034,22.786258 L18.5361248,21.2092183 Z M42.9225306,21.2297617 C42.9864297,21.2283681 43.0603751,21.2298205 43.1331286,21.2298499 C43.6381143,21.2300047 43.7698924,21.530897 43.6424166,22.008503 C43.4871378,22.5903123 43.1090928,22.7663556 42.7581723,22.7662085 L42.3620499,22.7660537 L42.7693891,21.2398863 C42.8047851,21.2355509 42.8586285,21.2312155 42.9225306,21.2297756 L42.9225306,21.2297617 Z M48.383135,21.7764763 C48.397954,22.2020348 48.4349707,23.0273734 48.4852628,23.704799 L47.2517649,23.7043345 C47.6613199,23.0357902 48.1365304,22.2193499 48.3831196,21.7765367 L48.383135,21.7764763 Z M42.502795,23.6666402 C43.1532815,23.6669498 43.2570855,24.0722173 43.1412042,24.5064 C42.9882539,25.0795309 42.589194,25.2438982 42.127006,25.2437 L41.7007939,25.2435452 L42.1176443,23.6817659 C42.1969884,23.6731262 42.3487298,23.6666076 42.5027935,23.6666696 L42.502795,23.6666402 Z M5.54861801,27.189344 L4.84551082,29.6339116 L59.1530326,29.6569184 L59.8566362,27.1999502 L5.54861801,27.189344 Z" id="text3769-4-2" fill="#E8E1CF"></path>
                        <path d="M14.9455694,5.10625283 L13.6943797,5.10578832 L14.0689828,3.77596605 L13.0680323,3.77550155 L12.6934553,5.10532537 L11.6627095,5.10486087 L11.1420088,5.11684503 C9.61220951,5.09225427 9.20352109,5.7761024 8.68889452,7.05639478 L2.70490911,29.8926828 C2.39980924,30.9763172 2.99658444,31.8341416 4.06491858,31.8338118 L44.7940969,31.8146403 C44.8729599,31.8099983 44.9470765,31.8087442 45.021921,31.8087752 L46.0526684,31.8092397 L46.460541,31.8093945 L46.1404228,32.9458228 L45.1903966,32.9453583 C44.9262559,32.9452297 44.7310182,32.9534716 44.5996888,32.9693003 C44.4683579,32.9851971 44.347428,33.0107509 44.2379602,33.0477268 C44.1284784,33.0847059 44.0235996,33.1493661 43.9213192,33.2410063 C43.8190126,33.3326526 43.7257839,33.4918437 43.648062,33.7245625 C43.5932024,33.9502394 43.596268,34.1111632 43.648833,34.2081683 C43.7014613,34.305175 43.7805464,34.3699189 43.8862794,34.401745 C43.9920341,34.4335836 44.1009098,34.4559556 44.2190887,34.4683423 C44.3372583,34.480729 44.5163416,34.4866174 44.7561674,34.4867366 L45.6893483,34.4872011 L45.3675554,35.6296493 L43.9458068,35.62903 C43.5374237,35.6288751 43.1895672,35.5513698 42.9006136,35.4048983 C42.612155,35.25664 42.4156204,35.0341387 42.307397,34.7396457 C42.2009191,34.4451574 42.206014,34.0841988 42.3261944,33.657541 C42.4035925,33.3828281 42.5200366,33.1400358 42.6769114,32.9201528 L3.75302247,32.9400598 C2.10072224,32.9403695 1.14237072,31.5682837 1.61428062,29.8922879 L7.59841006,7.05584977 C8.42797055,4.69147699 9.14192739,3.9430522 11.4517615,4.01662627 L11.7485796,4.01675169 L12.4824472,1.41155456 L13.7336431,1.41201906 L13.3760964,2.68139719 L14.3770207,2.6818617 L14.7345689,1.41248202 L15.9857571,1.41294652 L15.028895,4.81003967 L14.9454568,5.10619399 L16.220488,5.10665849 L16.6461018,4.44188283 L17.7900272,4.44234734 L17.8410318,5.10732738 L19.2947977,5.10794671 L19.0481777,1.41415268 L17.1476149,1.41337851 L15.0288981,4.80997773 L14.9455694,5.10625283 Z M22.366833,1.41560347 C22.0657789,1.41547961 21.7727173,1.44911732 21.4841908,1.52400129 C21.1978679,1.59726106 20.9279939,1.71056557 20.6798134,1.86223488 C20.4321494,2.01221651 20.2184304,2.20174431 20.0371805,2.43021289 C19.858199,2.65699224 19.7281094,2.91395185 19.6464322,3.20384158 C19.5302071,3.61653645 19.5309966,3.96481258 19.6438262,4.24969653 C19.7583982,4.53458202 19.9579397,4.75342612 20.254033,4.89679323 C20.5506475,5.03851599 20.9103098,5.10867753 21.3264663,5.10884939 L22.7623662,5.10946873 L23.1110292,4.00937539 L22.1368577,4.00891089 C21.8924829,4.00881025 21.7084389,4.00251624 21.5878699,3.99065595 C21.467287,3.97860985 21.3513764,3.95476385 21.2431314,3.92399521 C21.1349511,3.89328386 21.0530534,3.83033915 20.9980642,3.73649419 C20.9430057,3.64265852 20.9454051,3.48928293 20.9980781,3.27099779 C21.0738617,3.04592162 21.1590255,2.88823081 21.2619597,2.79956659 C21.364823,2.71094574 21.4718051,2.64808928 21.5828413,2.61230247 C21.6938774,2.57652649 21.8169692,2.54918279 21.9505469,2.5338635 C22.0841076,2.51841105 22.2882151,2.51600493 22.5574353,2.51611951 L23.5255388,2.51658401 L23.8742033,1.41647054 L23.4154495,1.41631571 L22.3668376,1.41585121 L22.366833,1.41560347 Z M24.2257514,1.41637764 L23.1853817,5.10962666 L24.4305976,5.11009116 L24.7405214,4.00998079 L25.4017636,5.11050457 L26.8019267,5.11112391 L26.9151048,5.11117191 L66.0160638,5.09145378 C67.0844185,5.09129895 67.681191,5.94895147 67.3760969,7.03258439 L61.4005282,29.8688755 C61.0242735,31.5426045 60.2096153,31.8081883 58.9474185,31.808385 L56.4495049,31.813061 L56.4437376,31.8131183 L54.263091,31.8121892 L53.1870231,35.632393 L55.1829626,35.6331671 C55.5225846,35.6369296 55.8141366,35.614505 56.0655693,35.5670514 C56.318783,35.5195514 56.5473889,35.4141094 56.7422982,35.259026 C56.9389222,35.1039364 57.076173,34.8775503 57.1610916,34.576079 C57.1878568,34.4808622 57.1929008,34.3846498 57.1772722,34.2859012 C57.1614894,34.1871635 57.1255923,34.0974759 57.0675083,34.0198575 C57.0116062,33.940488 56.9339599,33.8706888 56.833425,33.8142146 C56.7334206,33.7559969 56.6150752,33.722946 56.4828299,33.7051432 L56.4862224,33.6930197 C56.7923482,33.5997074 57.0260613,33.4811602 57.1884736,33.3366473 C57.3102315,33.2282619 57.404959,33.0895351 57.4668319,32.9196357 L58.6360745,32.9143868 C61.1607903,32.9144797 61.8586082,32.3073457 62.4910759,29.8691588 L68.4666816,7.03280735 C68.9385798,5.35681005 67.9785442,3.99067762 66.3262452,3.99110342 L27.2252892,4.01082309 L27.1120603,4.010772 L26.0753868,4.01030749 L25.6489866,3.26048145 L27.5982285,1.41750948 L26.3530003,1.41704498 L25.1323831,2.61954096 L25.4712186,1.41667028 L24.9886218,1.41651545 L24.2257514,1.41637764 Z M17.8709998,2.22979561 L17.965425,3.69277987 L16.9108346,3.69231537 L17.8709998,2.22979561 Z M46.8451983,31.8092861 L45.7691365,35.6295502 L48.7681022,35.6453464 L49.0899059,34.5029183 L47.3182561,34.4873497 L48.0725327,31.8095695 L46.8451983,31.8092861 Z M50.162825,31.8106796 L49.5311144,34.0532816 C49.4407432,34.3741056 49.4150096,34.6338228 49.454475,34.8331083 C49.4956552,35.0323318 49.5861683,35.1958676 49.7276798,35.322895 C49.8708814,35.44989 50.0537581,35.5411322 50.2749159,35.6011877 C50.498356,35.6594905 50.7270451,35.6928278 50.9566981,35.6981866 C51.236694,35.6910642 51.4999433,35.6541224 51.7457075,35.5836852 C51.9932389,35.5132311 52.2099448,35.4145955 52.395167,35.2877152 C52.5821039,35.1608859 52.7485918,34.9989882 52.8990718,34.8103786 C53.0517337,34.6200302 53.1798742,34.3661518 53.2744737,34.0488068 L53.9044387,31.8122698 L52.6770935,31.8118053 L52.0420229,34.0664719 C51.978443,34.3168294 51.8708749,34.4986727 51.7176902,34.6043919 C51.5645101,34.7101018 51.3921902,34.7639237 51.2069927,34.7673997 C50.9795819,34.7600761 50.8259732,34.7044891 50.7465519,34.6039785 C50.667086,34.503406 50.6721269,34.3233138 50.7550948,34.0659269 L51.3901686,31.8112587 L50.162825,31.8106796 Z M54.9199692,32.7376529 L55.8315554,32.7379626 C55.8714881,32.7379827 55.9162936,32.756041 55.9634801,32.7984733 C56.012372,32.8408173 56.0240976,32.9181446 56.0017381,33.0221622 C55.9729158,33.1120914 55.9220824,33.1851421 55.8510915,33.2397722 C55.7805602,33.2926001 55.7184653,33.3182979 55.6680961,33.3182747 L54.7565053,33.317965 L54.9199661,32.7376545 L54.9199692,32.7376529 Z M54.5215261,34.1521122 L55.3556757,34.1524218 C55.5294544,34.1524977 55.6600914,34.1858118 55.7395357,34.2492907 C55.8206779,34.3128393 55.8390929,34.3981947 55.7973962,34.5093098 C55.7692231,34.609822 55.6921242,34.6943877 55.5650231,34.7630799 C55.4379065,34.8317736 55.2992093,34.8649747 55.1564488,34.8596159 L54.3223084,34.8593062 L54.5215261,34.1521122 Z" id="rect2985-5-0-9" stroke="#E8E1CF" stroke-width="0.4" fill="#DB4B4F"></path>
                    </g>
                </g>
            </g>
            <use id="Rectangle-11" stroke="#E42D40" mask="url(#mask-6)" stroke-width="6" fill="#FFFFFF" xlink:href="#path-5"></use>
            <g id="Group-2" transform="translate(29.374356, 132.217622) rotate(-60.000000) translate(-29.374356, -132.217622) translate(4.874356, 118.217622)">
                <path d="M42.5287264,3.60953577 C41.8233811,2.82284279 38.7186471,4.16359231 36.3992173,3.58909541 C35.0211664,3.24776755 34.3356741,1.74505667 34.5074698,1.30801963 C34.9684189,0.13539531 39.9004966,0.145211323 39.9004966,0.145211323 C42.6552076,-0.00851417852 45.539875,2.00840545 46.3454092,4.65613484 L48.3959452,11.3960903 L45.962036,11.3960903 C45.962036,11.3960903 43.3060568,4.47651601 42.5287264,3.60953577 Z" id="Rectangle-4" fill="#E42D40"></path>
                <path d="M8.65218314,3.60799105 C7.94683789,2.82129806 4.84210388,4.16204759 2.52267413,3.58755068 C1.14462321,3.24622282 0.459130876,1.74351195 0.63092659,1.30647491 C1.09187569,0.133850586 6.02395338,0.1436666 6.02395338,0.1436666 C8.77866441,-0.0100589019 11.6633318,2.00686073 12.468866,4.65459011 L14.519402,11.3945456 L12.0854928,11.3945456 C12.0854928,11.3945456 9.42951358,4.47497129 8.65218314,3.60799105 Z" id="Rectangle-4" fill="#E42D40" transform="translate(7.562170, 5.764989) scale(-1, 1) translate(-7.562170, -5.764989) "></path>
                <rect id="Rectangle-3" fill="#E42D40" x="19.962963" y="12.7826087" width="7.86419753" height="4.26086957" rx="2.13043478"></rect>
                <use id="Rectangle-10" stroke="#E42D40" mask="url(#mask-8)" stroke-width="6" fill="#DDFDFF" xlink:href="#path-7"></use>
                <use id="Rectangle-10" stroke="#E42D40" mask="url(#mask-10)" stroke-width="6" fill="#DDFDFF" transform="translate(37.490360, 18.154294) scale(-1, 1) translate(-37.490360, -18.154294) " xlink:href="#path-9"></use>
            </g>
            <circle id="Oval-2" fill="#E42D40" cx="66.5" cy="78.5" r="9.5"></circle>
            <circle id="Oval-2" fill="#E42D40" cx="78.5" cy="100.5" r="9.5"></circle>
            <circle id="Oval-2" fill="#E42D40" cx="69.5" cy="122.5" r="9.5"></circle>
            <path d="M67.5206542,83 L65.8587402,83 L65.8587402,77.6793946 C65.8587402,77.1006157 65.8876787,76.4350299 65.9455566,75.6826173 C65.9166177,75.7239586 65.8101653,75.8500479 65.6261962,76.0608888 C65.4422272,76.2717297 65.0835964,76.6499974 64.5502929,77.1957032 L63.6077148,76.1663087 L66.0199707,73.9338869 L67.5206542,73.9338869 L67.5206542,83 Z" id="1" fill="#FFFFFF"></path>
            <path d="M80.9423339,105.196338 L76.0806152,105.196338 L76.0806152,103.9375 L77.6929199,101.655469 C78.1352724,101.02708 78.4391267,100.560963 78.6044921,100.257104 C78.7698576,99.9532455 78.8918127,99.6617933 78.9703613,99.3827392 C79.0489099,99.1036851 79.0881835,98.8153335 79.0881835,98.5176757 C79.0881835,98.1704084 79.0106697,97.9099618 78.8556396,97.7363281 C78.7006095,97.5626944 78.4990735,97.4758789 78.2510254,97.4758789 C78.0319162,97.4758789 77.8272796,97.5337559 77.6371094,97.6495117 C77.4469391,97.7652675 77.215431,97.9740382 76.9425781,98.27583 L76,97.2836426 C76.4340842,96.7916805 76.8371563,96.4547535 77.2092285,96.2728516 C77.5813007,96.0909496 77.9843728,96 78.418457,96 C79.1501989,96 79.7217345,96.2149718 80.133081,96.6449219 C80.5444274,97.0748719 80.7500976,97.6722455 80.7500976,98.4370605 C80.7500976,98.7843279 80.7128909,99.1129867 80.6384765,99.4230468 C80.5640621,99.733107 80.4514086,100.044196 80.3005126,100.356323 C80.1496167,100.66845 79.9604828,100.992975 79.7331054,101.329907 C79.505728,101.666839 78.9186896,102.438877 77.9719726,103.646045 L77.9719726,103.695654 L80.9423339,103.695654 L80.9423339,105.196338 Z" id="2" fill="#FFFFFF"></path>
            <path d="M72.1407714,119.974072 C72.1407714,120.544583 72.0002129,121.023102 71.7190917,121.409644 C71.4379705,121.796185 71.0410995,122.063867 70.5284667,122.212695 L70.5284667,122.262305 C71.0989774,122.353256 71.5402897,122.576496 71.8524169,122.932031 C72.1645441,123.287567 72.3206054,123.771253 72.3206054,124.383106 C72.3206054,125.218201 72.0611923,125.883787 71.5423583,126.379883 C71.0235244,126.875979 70.3134973,127.124023 69.4122558,127.124023 C68.6102336,127.124023 67.9363797,126.981398 67.3906738,126.696143 L67.3906738,125.183057 C67.6635267,125.348422 67.959113,125.478645 68.2774414,125.57373 C68.5957698,125.668816 68.9016912,125.716357 69.1952148,125.716357 C69.6747745,125.716357 70.0365059,125.605771 70.2804199,125.384595 C70.5243338,125.163419 70.646289,124.813056 70.646289,124.333496 C70.646289,123.428121 70.0902562,122.97544 68.9781738,122.97544 L68.4634765,122.97544 L68.4634765,121.716602 L68.9533691,121.716602 C69.4453312,121.716602 69.8225654,121.600848 70.085083,121.369336 C70.3476005,121.137824 70.4788574,120.792629 70.4788574,120.33374 C70.4788574,119.974071 70.3951424,119.702255 70.2277099,119.518286 C70.0602774,119.334317 69.8236017,119.242334 69.5176757,119.242334 C69.0505185,119.242334 68.5957704,119.44077 68.153418,119.837647 L67.3906738,118.721436 C68.0025258,118.109584 68.7735305,117.803662 69.7037109,117.803662 C70.4685259,117.803662 71.0658995,117.99693 71.4958495,118.383472 C71.9257996,118.770013 72.1407714,119.300208 72.1407714,119.974072 L72.1407714,119.974072 Z" id="3" fill="#FFFFFF"></path>
            <rect id="Rectangle-9" fill="#E42D40" x="82" y="74" width="33" height="6"></rect>
            <rect id="Rectangle-9" fill="#E42D40" x="83.5" y="120" width="36.5" height="6"></rect>
            <rect id="Rectangle-9" fill="#E42D40" x="92" y="97" width="16" height="6"></rect>
            <path d="M129.61498,58.4094724 C129.904598,58.0280252 130.229529,57.6183288 130.589785,57.1803708 C130.950041,56.7424129 131.324419,56.3344824 131.71293,55.9565671 C132.101441,55.5786518 132.48818,55.2643157 132.873159,55.0135495 C133.258138,54.7627832 133.620155,54.637402 133.959219,54.637402 C134.043985,54.637402 134.139345,54.6532954 134.245303,54.6850826 C134.35126,54.7168699 134.451918,54.7751457 134.54728,54.8599118 C134.642642,54.9446778 134.722109,55.0629953 134.785684,55.2148678 C134.849258,55.3667403 134.881045,55.5627589 134.881045,55.8029294 C134.881045,56.2832703 134.81394,56.7512425 134.679727,57.2068601 C134.545514,57.6624776 134.398941,58.1180883 134.240005,58.5737058 C134.081069,59.0293234 133.936262,59.4937637 133.805581,59.9670408 C133.6749,60.440318 133.609561,60.9347792 133.609561,61.4504393 C133.609561,61.7329928 133.651943,61.9590322 133.736709,62.1285644 C133.821475,62.2980965 133.930963,62.3828612 134.065176,62.3828612 C134.234708,62.3828612 134.414833,62.3475426 134.605557,62.2769042 C134.79628,62.2062658 134.987001,62.1144373 135.177725,62.0014159 C135.368448,61.8883945 135.555637,61.7594814 135.739297,61.6146727 C135.922957,61.4698641 136.096018,61.3197598 136.258486,61.1643553 C136.646997,60.8040996 137.028439,60.3944032 137.402822,59.9352537 L137.582949,62.7537109 C137.4558,62.8526046 137.2951,62.9762199 137.100845,63.1245605 C136.906589,63.2729011 136.691145,63.4300691 136.454507,63.5960693 C136.217868,63.7620695 135.961808,63.9298331 135.686318,64.0993652 C135.410829,64.2688973 135.133577,64.4190016 134.854556,64.5496826 C134.575534,64.6803636 134.296517,64.7880855 134.017495,64.8728516 C133.738474,64.9576176 133.471818,65 133.21752,65 C132.829008,65 132.491715,64.89581 132.20563,64.6874267 C131.919544,64.4790435 131.684675,64.2141536 131.501016,63.892749 C131.317356,63.5713444 131.179613,63.2199237 131.087783,62.8384765 C130.995953,62.4570293 130.950039,62.0967789 130.950039,61.7577147 C130.950039,61.5316719 130.98006,61.2791435 131.040102,61.0001219 C131.100145,60.7211003 131.174314,60.440317 131.262612,60.1577635 C131.35091,59.87521 131.449802,59.5997245 131.559292,59.3312986 C131.668781,59.0628728 131.771206,58.8227059 131.866567,58.6107908 C131.961929,58.3988757 132.044928,58.2258142 132.115566,58.0916013 C132.186205,57.9573884 132.232119,57.8796874 132.25331,57.8584958 L132.030801,57.8267087 C131.910715,57.9044109 131.707633,58.1021954 131.421548,58.4200681 C131.135462,58.7379408 130.812297,59.1388076 130.452041,59.6226805 C130.091785,60.1065534 129.719173,60.6504607 129.334194,61.2544188 C128.949215,61.8583769 128.601326,62.4817513 128.290517,63.1245605 C128.135113,63.4424332 128.007966,63.7196846 127.909072,63.9563232 C127.810178,64.1929618 127.713052,64.3872144 127.61769,64.5390869 C127.522328,64.6909594 127.418138,64.805745 127.305117,64.8834473 C127.192096,64.9611495 127.047289,65 126.870693,65 C126.637586,65 126.453929,64.9328945 126.319717,64.7986816 C126.185504,64.6644687 126.08308,64.4861095 126.012441,64.2635986 C125.941803,64.0410877 125.895889,63.7885593 125.874697,63.5060058 C125.853505,63.2234523 125.84291,62.9338393 125.84291,62.6371581 C125.84291,62.163881 125.848208,61.5440385 125.858803,60.7776122 C125.869399,60.0111858 125.902952,59.161772 125.959463,58.2293455 C126.015973,57.2969189 126.097206,56.3150602 126.203164,55.2837399 C126.309121,54.2524196 126.459226,53.2334763 126.653481,52.2268794 C126.847737,51.2202826 127.091435,50.2596151 127.384585,49.3448481 C127.677734,48.4300811 128.034452,47.6248157 128.454751,46.9290277 C128.875049,46.2332397 129.367744,45.6805027 129.932851,45.2708001 C130.497958,44.8610975 131.147822,44.6562493 131.882461,44.6562493 C132.263908,44.6562493 132.576478,44.7127591 132.820181,44.8257805 C133.063883,44.9388019 133.258136,45.0977359 133.402944,45.3025872 C133.547753,45.5074385 133.648411,45.7529032 133.704922,46.0389886 C133.761433,46.325074 133.789688,46.6447079 133.789688,46.9978998 C133.789688,47.5206237 133.715518,48.0998497 133.567178,48.7355951 C133.418837,49.3713405 133.222819,50.0317994 132.979116,50.7169917 C132.735414,51.4021839 132.458162,52.0961956 132.147353,52.7990474 C131.836545,53.5018993 131.518677,54.1835494 131.19374,54.8440182 C130.868804,55.504487 130.54917,56.1278613 130.234829,56.7141599 C129.920488,57.3004584 129.643237,57.8161108 129.403066,58.2611326 L129.61498,58.4094724 Z M130.557998,51.8613277 C130.974764,50.7805605 131.276739,49.8693391 131.463931,49.1276362 C131.651122,48.3859332 131.744717,47.838494 131.744717,47.4853021 C131.744717,46.9484505 131.674079,46.6800287 131.532803,46.6800287 C131.349143,46.6800287 131.077189,46.9802372 130.716933,47.5806635 C130.356678,48.1810897 129.932854,49.0534605 129.445449,50.1978022 C129.325364,50.5863133 129.21411,50.988946 129.111684,51.4057124 C129.009259,51.8224788 128.91743,52.2374731 128.836196,52.6507076 C128.754962,53.0639421 128.680793,53.4701066 128.613686,53.8692135 C128.54658,54.2683203 128.488304,54.6479959 128.438857,55.0082516 C128.318772,55.8488483 128.226943,56.671773 128.163369,57.4770505 C128.354093,57.0320287 128.562473,56.5481631 128.788515,56.0254391 C129.014558,55.5027152 129.237066,54.9852968 129.456045,54.4731686 C129.675024,53.9610403 129.881638,53.4771747 130.075893,53.0215572 C130.270149,52.5659397 130.430849,52.1792004 130.557998,51.8613277 L130.557998,51.8613277 Z M143.762246,62.7431152 C143.507948,62.9762218 143.191846,63.2252183 142.813931,63.4901123 C142.436016,63.7550062 142.028085,63.9987049 141.590127,64.2212158 C141.152169,64.4437267 140.705388,64.6291496 140.249771,64.7774902 C139.794153,64.9258308 139.3615,65 138.951797,65 C138.584477,65 138.275439,64.9487879 138.024673,64.8463623 C137.773907,64.7439367 137.570824,64.6008961 137.41542,64.4172363 C137.260016,64.2335765 137.148762,64.009303 137.081655,63.7444091 C137.014549,63.4795152 136.991384,63.1828581 136.991384,63.1828581 L137.6167,62.7007324 L137.41542,60.0000001 C137.41542,60.0000001 137.81629,58.2222848 137.98229,57.5936033 C138.14829,56.9649217 138.294863,56.3856957 138.422012,55.8559079 C138.471459,55.6722481 138.570351,55.5150801 138.718692,55.3843991 C138.867032,55.2537181 139.034796,55.1477621 139.221987,55.066528 C139.409179,54.9852938 139.603432,54.9252521 139.804751,54.886401 C140.006071,54.8475499 140.187962,54.8281246 140.35043,54.8281246 C140.647111,54.8281246 140.848427,54.8828686 140.954385,54.992358 C141.060343,55.1018475 141.113321,55.24842 141.113321,55.4320797 C141.113321,55.5874842 141.078002,55.8117577 141.007364,56.1049069 C140.936725,56.3980562 140.848428,56.7300516 140.742471,57.100903 C140.636513,57.4717545 140.523494,57.8708554 140.403408,58.2982175 C140.283323,58.7255797 140.170303,59.1529355 140.064346,59.5802977 C139.958388,60.0076598 139.870092,60.42442 139.799453,60.8305907 C139.728815,61.2367613 139.693496,61.6023095 139.693496,61.927246 C139.693496,62.2451187 139.728815,62.4976471 139.799453,62.6848388 C139.870092,62.8720305 140.014898,62.9656249 140.233877,62.9656249 C140.488175,62.9656249 140.770725,62.8773283 141.081533,62.7007323 C141.392342,62.5241364 141.706678,62.3104585 142.024551,62.0596923 C142.342424,61.808926 142.653228,61.5493339 142.956973,61.2809081 C143.260718,61.0124822 143.52914,60.782911 143.762246,60.5921873 L143.762246,62.7431152 Z M139.025967,51.850732 C139.025967,51.6882637 139.061286,51.5046067 139.131924,51.2997554 C139.202562,51.0949041 139.317348,50.9024174 139.476284,50.7222895 C139.635221,50.5421617 139.847133,50.3902914 140.112027,50.2666743 C140.37692,50.1430571 140.70715,50.0812495 141.102725,50.0812495 C141.349959,50.0812495 141.583062,50.1095044 141.802041,50.1660151 C142.02102,50.2225258 142.211741,50.3090565 142.374209,50.4256098 C142.536678,50.5421632 142.665591,50.6957993 142.760952,50.8865229 C142.856314,51.0772466 142.903994,51.303286 142.903994,51.564648 C142.903994,51.8048184 142.865144,52.0379216 142.787442,52.2639644 C142.709739,52.4900072 142.586124,52.6913236 142.416592,52.8679195 C142.24706,53.0445154 142.033382,53.187556 141.775552,53.2970455 C141.517722,53.406535 141.208684,53.4612789 140.848428,53.4612789 C140.22681,53.4612789 139.767668,53.3147065 139.470987,53.0215572 C139.174305,52.7284079 139.025967,52.3381368 139.025967,51.850732 L139.025967,51.850732 Z M146.561514,59.5749998 C146.632152,58.8474245 146.738108,58.096903 146.879385,57.3234128 C147.020662,56.5499226 147.183128,55.776444 147.366788,55.0029538 C147.550447,54.2294635 147.746466,53.4648146 147.954849,52.7089839 C148.163232,51.9531533 148.369846,51.2291208 148.574698,50.5368647 C148.779549,49.8446086 148.975568,49.1947453 149.162759,48.5872553 C149.349951,47.9797652 149.514183,47.432326 149.65546,46.9449212 C149.747289,46.605857 149.879734,46.3321374 150.052798,46.1237542 C150.225862,45.915371 150.418349,45.7529052 150.630264,45.6363519 C150.842179,45.5197985 151.066453,45.4403316 151.303091,45.3979485 C151.53973,45.3555655 151.767535,45.3343743 151.986514,45.3343743 C152.099536,45.3343743 152.205492,45.3485018 152.304385,45.3767571 C152.403279,45.4050125 152.488044,45.4562245 152.558682,45.5303948 C152.629321,45.6045651 152.684065,45.7069892 152.722916,45.8376702 C152.761767,45.9683512 152.781192,46.1361148 152.781192,46.3409661 C152.781192,46.4822429 152.772362,46.6358791 152.754703,46.8018792 C152.737043,46.9678794 152.707022,47.1568343 152.664639,47.3687494 C152.488043,48.1952184 152.258472,49.0234409 151.975919,49.8534419 C151.693365,50.6834428 151.354306,51.5752389 150.958731,52.528857 C150.563156,53.4824751 150.112843,54.5296733 149.607779,55.6704831 C149.102714,56.8112929 148.539382,58.1127854 147.917764,59.5749998 C147.903636,59.652702 147.866552,59.7251053 147.806509,59.7922117 C147.746467,59.8593182 147.674063,59.915828 147.589297,59.961743 C147.504531,60.0076579 147.412703,60.0429766 147.313809,60.0677 C147.214915,60.0924235 147.119555,60.104785 147.027725,60.104785 C146.893512,60.104785 146.778726,60.0765301 146.683365,60.0200194 C146.588003,59.9635087 146.540323,59.8681483 146.540323,59.7339354 C146.540323,59.6986162 146.547386,59.6456382 146.561514,59.5749998 L146.561514,59.5749998 Z M148.405166,63.0397949 C148.391039,63.0680502 148.378677,63.1351557 148.368082,63.2411132 C148.357486,63.3470708 148.332763,63.474218 148.293912,63.6225585 C148.255061,63.7708991 148.200317,63.9263012 148.129678,64.0887695 C148.05904,64.2512378 147.95485,64.4013421 147.817105,64.5390869 C147.67936,64.6768317 147.504533,64.7916174 147.292618,64.8834473 C147.080702,64.9752772 146.815813,65.0211914 146.49794,65.0211914 C146.236578,65.0211914 145.999943,64.9876387 145.788028,64.9205322 C145.576113,64.8534258 145.394222,64.7492357 145.242349,64.607959 C145.090476,64.4666822 144.972159,64.2865571 144.887393,64.0675781 C144.802627,63.8485991 144.760244,63.5872411 144.760244,63.283496 C144.760244,63.0291979 144.797329,62.7802013 144.871499,62.5364989 C144.94567,62.2927965 145.060455,62.0755868 145.21586,61.8848632 C145.371264,61.6941396 145.572581,61.5422693 145.819815,61.4292479 C146.067049,61.3162265 146.360194,61.2597167 146.699258,61.2597167 C147.250238,61.2597167 147.674061,61.408055 147.970743,61.7047362 C148.267424,62.0014174 148.415762,62.4252413 148.415762,62.9762206 C148.415762,63.004476 148.41223,63.0256672 148.405166,63.0397949 L148.405166,63.0397949 Z" id="hi!" fill="#E42D40"></path>
        </g>
    </g>
</svg>