<svg width="478" height="83" viewBox="0 0 478 83" version="1.1" xmlns="http://www.w3.org/2000/svg" xmlns:xlink="http://www.w3.org/1999/xlink">
<title>workshop_attribution</title>
<desc>Created using Figma</desc>
<g id="Canvas" transform="translate(-3 99)">
<g id="workshop_attribution">
<g id="layer1">
<g id="layer1-9">
<g id="text3025-8-94">
<use xlink:href="#path0_fill" transform="matrix(1 -1.60812e-16 1.60812e-16 1 3.00001 -99)" fill="#E42D40"/>
</g>
</g>
</g>
</g>
</g>
<defs>
<path id="path0_fill" d="M 62.4 -2.44141e-05L 44.2 3.19999L 44.2 6.60001L 44.2 22.7L 44.2 36L 18.2 36C 18.3 30.6 18.3 24.9 18.3 19.7L 18.3 0.100012L 0 3.30002L 0 6.60001L 0 22.9L 0 81.6L 18.3 81.6L 18.3 49.5L 44.3 49.5L 44.3 81.6L 62.5 81.6L 62.5 19.4L 62.5 6.60001L 62.4 -2.44141e-05ZM 199.2 1.30002L 181.7 4.30002L 181.7 81.6L 199.2 81.6L 199.2 57.8C 199.2 57.8 199.2 57.8 199.3 57.8C 214 81.9 199.6 58.3 213.9 81.6L 231.6 81.6L 213.5 53.9L 230.4 25.9L 213.3 25.9L 199.2 49L 199.2 38.8L 199.2 1.30002ZM 347.3 1.30002L 329.8 4.30002L 329.8 67.9C 329.8 75.8 334.3 82 344.4 82C 350.8 82 356.6 80.1 358.8 79.1L 357.1 68.1C 355.4 68.4 353.2 68.7 351.7 68.7C 348.4 68.7 347.2 67.5 347.2 63.9L 347.2 1.30002L 347.3 1.30002ZM 445.1 1.30002L 427.6 4.30002L 427.6 79.1C 428.8 79.5 440.5 82.3 449.7 82.3C 466.2 82.3 477.5 69.8 477.5 52.9C 477.5 36.2 470.7 25.2 456.7 25.2C 451.7 25.2 447.9 27.2 445.2 30.8L 445.2 1.30002L 445.1 1.30002ZM 301 5.60001C 278.4 5.60001 267.5 22.1 267.5 45.1C 267.5 68.8 277.6 82.3 300.3 82.3C 309.3 82.3 316.4 80.6 320.9 78.7L 316.9 66.3C 312.8 68 307.8 69.4 302.5 69.4C 290.8 69.4 287.2 58.9 287.2 43.9C 287.2 28.2 291.4 18.6 300.9 18.6C 304.8 18.6 308.6 20 312.7 24.9L 322.7 14.8C 318.5 10.1 312.9 5.60001 301 5.60001ZM 158.8 24.9C 143.4 24.9 131.9 35.4 131.9 55.3C 131.9 71.6 139.4 82.6 157.5 82.6C 167.4 82.6 173.9 79 174 78.8L 170.8 67.1C 170.5 67.2 165 69.3 161.5 69.3C 156.7 69.3 150.5 67.3 150.5 53.4C 150.5 39.3 156.3 37.9 160 37.9C 163 37.9 164.6 39.5 166.4 41.7L 175 32.8C 171.5 28.1 166 24.9 158.8 24.9ZM 99.3 25.2C 82.8 25.2 71.5 37.8 71.5 54.7C 71.5 71.3 78.3 82.3 92.9 82.3C 100.9 82.3 105.7 78.3 108.1 71.5C 109.4 78.8 113.4 82.5 113.4 82.5L 127.5 78.1C 127.5 78.1 121.4 72.5 121.4 54.9L 121.4 28.4C 121.1 28.5 108.5 25.2 99.3 25.2ZM 365.3 26L 365.3 63C 365.3 74.7 369.7 82.3 381.3 82.3C 389.1 82.3 396.3 79.2 400.1 72.3C 401.7 78.9 405.3 82.5 405.3 82.5L 419.4 78.1C 419.4 78.1 413.3 72.5 413.3 54.9L 413.3 26L 395.8 26L 395.8 53.7C 395.8 63.3 391.5 69.4 387.4 69.4C 384 69.4 383 66 383 60.7L 383 26L 365.3 26ZM 99.3 38C 100.6 38 102.8 38.5 103.8 38.9L 103.8 51.7C 103.8 61 100.2 69.3 95.6 69.3C 90.3 69.3 90 61.6 90 53.4C 90.1 44.6 92.1 38 99.3 38ZM 453.2 38C 458.5 38 458.8 45.7 458.8 54C 458.8 62.9 456.8 69.4 449.6 69.4C 448.2 69.4 445.9 68.8 445.1 68.6L 445.1 56.8C 445.1 46.9 448.4 38 453.2 38Z"/>
</defs>
</svg>
