<svg width="323" height="56" viewBox="0 0 323 56" version="1.1" xmlns="http://www.w3.org/2000/svg" xmlns:xlink="http://www.w3.org/1999/xlink" xmlns:figma="http://www.figma.com/figma/ns">
<title>White Logo</title>
<desc>Created using Figma</desc>
<g id="Canvas" transform="translate(162 -20)" figma:type="canvas">
<g id="White Logo" style="mix-blend-mode:normal;" figma:type="instance">
<g id="Text" style="mix-blend-mode:normal;" figma:type="vector">
<use xlink:href="#path0_fill" transform="translate(-162 20)" fill="#FFFFFF" style="mix-blend-mode:normal;"/>
</g>
</g>
</g>
<defs>
<path id="path0_fill" d="M 42.2098 -1.65519e-05L 29.8986 2.16948L 29.8986 4.47458L 29.8986 15.3898L 29.8986 24.4068L 12.3112 24.4068C 12.3789 20.7457 12.3788 16.8813 12.3788 13.3559L 12.3788 0.0678049L 0 2.2373L 0 4.47458L 0 15.5254L 0 55.322L 12.3788 55.322L 12.3788 33.5593L 29.9663 33.5593L 29.9663 55.322L 42.2775 55.322L 42.2775 13.1525L 42.2775 4.47458L 42.2098 -1.65519e-05ZM 134.747 0.881372L 122.909 2.91527L 122.909 55.322L 134.747 55.322L 134.747 39.1865C 134.747 39.1865 134.747 39.1865 134.814 39.1865C 144.758 55.5254 135.017 39.5254 144.69 55.322L 156.663 55.322L 144.42 36.5424L 155.852 17.5593L 144.285 17.5593L 134.747 33.2203L 134.747 26.3051L 134.747 0.881372ZM 234.928 0.881372L 223.09 2.91527L 223.09 46.0339C 223.09 51.3898 226.134 55.5932 232.966 55.5932C 237.295 55.5932 241.218 54.3051 242.707 53.6271L 241.557 46.1695C 240.407 46.3729 238.919 46.5763 237.904 46.5763C 235.672 46.5763 234.86 45.7627 234.86 43.322L 234.86 0.881372L 234.928 0.881372ZM 301.083 0.881372L 289.246 2.91527L 289.246 53.6271C 290.057 53.8983 297.972 55.7966 304.195 55.7966C 315.356 55.7966 323 47.322 323 35.8644C 323 24.5424 318.4 17.0847 308.93 17.0847C 305.548 17.0847 302.977 18.4407 301.151 20.8814L 301.151 0.881372L 301.083 0.881372ZM 203.608 3.79662C 188.321 3.79662 180.948 14.9831 180.948 30.5763C 180.948 46.6441 187.78 55.7966 203.135 55.7966C 209.223 55.7966 214.026 54.6441 217.07 53.3559L 214.364 44.9492C 211.59 46.1017 208.208 47.0508 204.623 47.0508C 196.709 47.0508 194.274 39.9322 194.274 29.7627C 194.274 19.1186 197.115 12.6102 203.541 12.6102C 206.179 12.6102 208.749 13.5593 211.523 16.8814L 218.287 10.0339C 215.446 6.84747 211.658 3.79662 203.608 3.79662ZM 107.419 16.8814C 97.0015 16.8814 89.2224 24 89.2224 37.4915C 89.2224 48.5424 94.2957 56 106.539 56C 113.236 56 117.633 53.5593 117.701 53.4237L 115.536 45.4915C 115.333 45.5593 111.613 46.9831 109.245 46.9831C 105.998 46.9831 101.804 45.6271 101.804 36.2034C 101.804 26.6441 105.728 25.6949 108.23 25.6949C 110.26 25.6949 111.342 26.7797 112.56 28.2712L 118.377 22.2373C 116.009 19.0509 112.289 16.8814 107.419 16.8814ZM 67.1705 17.0847C 56.0092 17.0847 48.3654 25.6271 48.3654 37.0847C 48.3654 48.339 52.9652 55.7966 62.8413 55.7966C 68.2528 55.7966 71.4997 53.0847 73.1231 48.4746C 74.0025 53.4237 76.7083 55.9322 76.7083 55.9322L 86.2461 52.9492C 86.2461 52.9492 82.1198 49.1525 82.1198 37.2203L 82.1198 19.2542C 81.9169 19.322 73.3937 17.0847 67.1705 17.0847ZM 247.103 17.6271L 247.103 42.7118C 247.103 50.6441 250.08 55.7966 257.926 55.7966C 263.203 55.7966 268.073 53.6949 270.644 49.017C 271.726 53.4915 274.161 55.9322 274.161 55.9322L 283.699 52.9492C 283.699 52.9492 279.573 49.1525 279.573 37.2203L 279.573 17.6271L 267.735 17.6271L 267.735 36.4068C 267.735 42.9152 264.826 47.0508 262.053 47.0508C 259.753 47.0508 259.076 44.7458 259.076 41.1525L 259.076 17.6271L 247.103 17.6271ZM 67.1705 25.7627C 68.0498 25.7627 69.538 26.1017 70.2144 26.3729L 70.2144 35.0508C 70.2144 41.3559 67.7793 46.9831 64.6676 46.9831C 61.0825 46.9831 60.8796 41.7627 60.8796 36.2034C 60.9472 30.2373 62.3001 25.7627 67.1705 25.7627ZM 306.563 25.7627C 310.148 25.7627 310.351 30.983 310.351 36.6102C 310.351 42.6441 308.998 47.0508 304.127 47.0508C 303.18 47.0508 301.624 46.6441 301.083 46.5085L 301.083 38.5085C 301.083 31.7966 303.316 25.7627 306.563 25.7627Z"/>
</defs>
</svg>
