<?xml version="1.0" encoding="UTF-8" standalone="no"?>
<svg width="200px" height="200px" viewBox="0 0 200 200" version="1.1" xmlns="http://www.w3.org/2000/svg" xmlns:xlink="http://www.w3.org/1999/xlink">
    <!-- Generator: Sketch 39.1 (31720) - http://www.bohemiancoding.com/sketch -->
    <title>Hackers</title>
    <desc>Created with Sketch.</desc>
    <defs></defs>
    <g id="Page-1" stroke="none" stroke-width="1" fill="none" fill-rule="evenodd">
        <g id="Hackers">
            <g id="Group-5" transform="translate(109.000000, 17.000000)">
                <path d="M35.7617555,62.0615382 C46.4932945,72.628503 54.5705329,115.231105 54.5705329,115.231105 C54.5705329,129.755463 44.0443146,141.529781 31.0595611,141.529781 C18.0748076,141.529781 7.54858934,129.755463 7.54858934,115.231105 C7.54858934,115.231105 15.6258278,72.628503 26.3573668,62.0615382 L26.3573668,57.3560377 C26.3573668,54.7615528 28.4678952,52.6583072 31.0595611,52.6583072 C33.6565114,52.6583072 35.7617555,54.7611642 35.7617555,57.3560377 L35.7617555,62.0615382 Z" id="Combined-Shape" stroke="#4A4A4A" stroke-width="3" fill="#F6E5B7"></path>
                <path d="M15.8244514,108.446484 L7.07836991,108.446484 C7.07836991,103.524351 10.5621949,69.1407585 13.9713162,66.1801766 C18.4622239,62.2801393 25.2125335,66.2946708 31.5673981,66.2946708 C37.9432211,66.2946708 43.7325714,62.1866956 48.1918254,66.2198996 C53.5406384,71.0576716 55.0407524,100.707729 55.0407524,108.446484 L46.2946708,108.446484 L46.2946708,141.697741 C46.2946708,141.697741 45.0830949,141.529781 31.0595611,141.529781 C17.0360274,141.529781 15.8244514,141.697741 15.8244514,141.697741 L15.8244514,108.446484 Z" id="Fill-3" stroke="#4A4A4A" stroke-width="3" fill="#62CA7E"></path>
                <path d="M30.5853717,1.40438871 L31.5337695,1.40438871 C46.853577,1.40438871 59.2727273,14.0358706 59.2727273,29.617579 C59.2726799,45.1992392 46.8535153,57.830721 31.5337079,57.830721 L30.5853717,57.8306728 C15.2655595,57.8306728 2.84639498,45.1991909 2.84639498,29.6174825 C2.84639498,14.0358706 15.2655595,1.40438871 30.5853717,1.40438871 Z" id="Fill-5" stroke="#4A4A4A" stroke-width="3" fill="#F7E5B8"></path>
                <ellipse id="Oval" fill="#4A4A4A" cx="21.184953" cy="34.7899687" rx="3.29153605" ry="3.29153605"></ellipse>
                <circle id="Oval" fill="#4A4A4A" cx="40.9341693" cy="34.7899687" r="3.29153605"></circle>
                <path d="M31.9641188,0.266243944 C48.2473559,0.266243944 61.4474922,13.6117373 61.4474922,30.0742653 C61.4474419,31.103189 58.3322897,38.0815054 58.3322897,38.0815054 L58.931194,33.6528347 C57.6460846,27.3034401 53.2499551,23.4102597 46.812865,21.0544444 C39.1667014,18.2561382 31.0336075,27.2863046 31.0336075,27.2863046 C31.0336075,27.2863046 23.1790625,18.2745012 15.4180631,21.1774392 C9.08843865,23.5449832 4.87556055,28.3531462 3.61256671,34.5932736 L3.7868338,37.6112859 C3.7868338,37.6112859 1.26110621,33.3008617 0.965517242,31.0282138 C0.861336921,30.2272192 1.29405695,27.0265407 1.29405695,27.0265407 C2.80391073,11.9956947 15.3597089,0.266243944 30.625228,0.266243944 L31.9641188,0.266243944 Z" id="Fill-3" stroke="#4A4A4A" stroke-width="3" fill="#D27A41"></path>
                <path d="M31.2168403,59.7115987 C27.8915159,59.7115987 27.0936047,53.102418 27.3389172,53.2388915 L28.3854868,54.1023687 L33.4565146,54.047562 L34.5341146,53.1584647 C35.5153932,52.6126223 33.8771039,59.7115987 31.2168403,59.7115987 Z" id="Fill-3" stroke="#4A4A4A" stroke-width="3" fill="#D27A41"></path>
                <path d="M23.0658307,44.6645768 C23.0658307,44.6645768 26.6011843,46.5454545 31.8432602,46.5454545 C37.0853361,46.5454545 39.523511,44.6645768 39.523511,44.6645768" id="Path-2" stroke="#4A4A4A" stroke-width="3" stroke-linecap="round" stroke-linejoin="bevel"></path>
                <rect id="Rectangle-2" fill="#844319" x="24.409364" y="7.51724138" width="13.3003942" height="1.41065831" rx="0.705329154"></rect>
                <rect id="Rectangle-2" fill="#844319" x="22.9315807" y="10.8087774" width="16.2559609" height="1.41065831" rx="0.705329154"></rect>
                <rect id="Rectangle-2" fill="#844319" x="21.6216099" y="14.1003135" width="18.8759024" height="1.41065831" rx="0.705329154"></rect>
            </g>
            <g id="Group-3" transform="translate(32.000000, 12.000000)">
                <path d="M18.4858934,93.2866091 L8.32915361,91.4057319 C8.32915361,83.6457691 11.7287018,78.4295322 17.1029776,73.590835 C21.5565267,69.5811085 27.8739755,76.9968652 34.2288401,76.9968652 C40.6046631,76.9968652 45.923794,69.5973539 50.383048,73.6305579 C55.731861,78.4683299 59.1128527,83.666977 59.1128527,91.4057319 L48.9561129,93.2866091 L48.9561129,147.697741 C48.9561129,147.697741 47.7445369,147.529781 33.7210031,147.529781 C19.6974694,147.529781 18.4858934,147.697741 18.4858934,147.697741 L18.4858934,93.2866091 Z" id="Fill-3" stroke="#4A4A4A" stroke-width="3" fill="#E73568"></path>
                <g id="Face" transform="translate(0.335423, 0.351097)">
                    <path d="M0.470218242,68.4951694 C10.3448279,75.2961082 16.3862445,75.2961082 33.3855787,75.2961082 C50.5426825,75.2961082 56.8965505,75.2961082 66.3009422,68.4951694 C67.0657218,67.9421066 66.3009404,35.3104789 66.3009404,34.2475847 C66.3009404,15.333166 51.5642316,0 33.3855799,0 C15.2069283,0 0.470219436,15.333166 0.470219436,34.2475847 C0.470219436,35.4746341 -0.418744953,67.8829139 0.470218242,68.4951694 Z" id="Oval-2" stroke="#4A4A4A" stroke-width="3" fill="#FFEE5E"></path>
                    <path d="M5.17241379,41.3232002 C5.17241379,31.7622874 11.0732265,27.6088326 19.7837197,25.9374006 C22.0156588,25.5091201 26.1345016,28.36474 28.6833856,28.2131661 C30.7410459,28.0908038 31.1826078,24.9216301 33.3855705,24.9216301 C36.1978986,24.9216301 35.524584,28.0020751 38.0877743,28.2131661 C40.2370064,28.3901658 45.6681811,25.6584753 47.5686704,26.0535234 C55.9593949,27.7976742 61.5987461,31.9765117 61.5987461,41.3232002 L61.5986512,38.1512541 C61.5986512,52.1397235 48.9671923,63.4796238 33.3854946,63.4796238 C17.8038728,63.4795523 5.17241379,52.1396597 5.17241379,38.1511817 L5.17241379,41.3232002 Z" id="Fill-3" stroke="#4A4A4A" stroke-width="3" fill="#AE742A"></path>
                    <ellipse id="Combined-Shape" fill="#4A4A4A" cx="23.0407524" cy="40.4388715" rx="3.29153605" ry="3.29153605"></ellipse>
                    <circle id="Combined-Shape" fill="#4A4A4A" cx="42.7899687" cy="40.4388715" r="3.29153605"></circle>
                    <path d="M25.3043116,47.9623824 C26.1331596,47.9623824 40.638001,47.9623824 41.4668487,47.9623824 C42.2956964,47.9623824 41.5200027,49.597326 41.5200027,49.597326 C39.7571051,52.5827097 36.7717104,54.5454545 33.3855801,54.5454545 C29.999483,54.5454545 27.0140564,52.5827097 25.2511567,49.597326 C25.2511567,49.597326 24.4754635,47.9623824 25.3043116,47.9623824 Z" id="Fill-3" fill="#4A4A4A"></path>
                </g>
            </g>
            <g id="Group-2" transform="translate(10.000000, 70.000000)">
                <g id="Body" transform="translate(4.887147, 60.658307)" stroke="#4A4A4A" stroke-width="3">
                    <path d="M18.8087774,9.44814478 C8.07723842,11.82881 0,22.1976946 0,34.6283024 L0,63.1773652 C0,77.36783 10.5262183,88.8714734 23.5109718,88.8714734 C36.4957253,88.8714734 47.0219436,77.36783 47.0219436,63.1773652 L47.0219436,34.6283024 C47.0219436,22.1976946 38.9447052,11.82881 28.2131661,9.44814478 L28.2131661,4.69773046 C28.2131661,2.10285702 26.107922,1.42108547e-14 23.5109718,1.42108547e-14 C20.9193058,1.42108547e-14 18.8087774,2.10324557 18.8087774,4.69773046 L18.8087774,9.44814478 Z" id="Combined-Shape" fill="#CD9C5E"></path>
                    <path d="M9.71426286,12.1112111 C10.6084095,11.3061715 11.4639634,11.3976316 12.3118085,12.0580585 C15.6868943,14.6870734 18.9398212,26.3322884 24.0188088,26.3322884 C30.3946318,26.3322884 32.892446,8.11773006 37.3517,12.1509341 C42.700513,16.9887061 38.7460815,89.0394341 38.7460815,89.0394341 C38.7460815,89.0394341 37.5345056,88.8714734 23.5109718,88.8714734 C9.48743802,88.8714734 8.27586207,89.0394341 8.27586207,89.0394341 C8.27586207,89.0394341 4.33998709,16.9499084 9.71426286,12.1112111 Z" id="Fill-3" fill="#FFEB58"></path>
                </g>
                <g id="Face" transform="translate(0.184953, 0.000000)">
                    <path d="M0,28.6272754 C0,14.638806 12.631459,12.2257053 28.2131567,12.2257053 C43.7948591,12.2257053 56.4263323,14.638806 56.4263323,28.6272754 L56.4262375,40.5023512 C56.4262375,54.4908207 43.7947785,65.830721 28.2130808,65.830721 C12.631459,65.8306495 0,54.4907568 0,40.5022789 L0,28.6272754 Z" id="Fill-3" stroke="#4A4A4A" stroke-width="3" fill="#CD9C5E"></path>
                    <path d="M20.5698953,44.6708464 C20.9417799,44.1376959 21.1598746,43.4893016 21.1598746,42.7899687 C21.1598746,40.9721035 19.6862037,39.4984326 17.8683386,39.4984326 C16.0504734,39.4984326 14.5768025,40.9721035 14.5768025,42.7899687 C14.5768025,43.4893016 14.7948972,44.1376959 15.1667818,44.6708464 C15.7615841,43.8181109 16.7498064,43.2601881 17.8683386,43.2601881 C18.9868707,43.2601881 19.9750931,43.8181109 20.5698953,44.6708464 Z" id="Combined-Shape" fill="#4A4A4A"></path>
                    <path d="M40.3191116,44.6708464 C40.6909962,44.1376959 40.9090909,43.4893016 40.9090909,42.7899687 C40.9090909,40.9721035 39.43542,39.4984326 37.6175549,39.4984326 C35.7996897,39.4984326 34.3260188,40.9721035 34.3260188,42.7899687 C34.3260188,43.4893016 34.5441135,44.1376959 34.9159981,44.6708464 C35.5108004,43.8181109 36.4990227,43.2601881 37.6175549,43.2601881 C38.736087,43.2601881 39.7243094,43.8181109 40.3191116,44.6708464 Z" id="Combined-Shape" fill="#4A4A4A"></path>
                    <path d="" id="Line" stroke="#4A4A4A" stroke-width="3" stroke-linecap="square"></path>
                    <path d="M44.200627,42.3197492 C44.200627,42.3197492 50.3321428,42.277936 52.6645768,41.8495298 C54.1722682,41.5726069 55.7210031,40.2037618 55.7210031,40.2037618" id="Line" stroke="#4A4A4A" stroke-width="2" stroke-linecap="square"></path>
                    <path d="M0.705329154,42.3197492 C0.705329154,42.3197492 6.36662552,42.5130458 8.69905956,42.0846395 C10.2067509,41.8077166 11.7554859,40.4388715 11.7554859,40.4388715" id="Line" stroke="#4A4A4A" stroke-width="2" stroke-linecap="square" transform="translate(6.230408, 41.401057) scale(-1, 1) translate(-6.230408, -41.401057) "></path>
                    <path d="M17.8683386,54.0752351 C17.8683386,54.0752351 19.2461909,57.3667712 27.9616534,57.3667712 C36.677116,57.3667712 38.5579937,54.0752351 38.5579937,54.0752351" id="Path-2" stroke="#4A4A4A" stroke-width="3" stroke-linecap="round"></path>
                    <path d="M17.8683386,48.9028213 C20.9846788,48.9028213 23.5109718,46.3765284 23.5109718,43.2601881 C23.5109718,40.1438478 20.9846788,37.6175549 17.8683386,37.6175549 C16.6274317,37.6175549 15.4800817,38.0181192 14.548537,38.6969995 C13.1406552,39.7230192 12.2257053,41.3847546 12.2257053,43.2601881 C12.2257053,46.3765284 14.7519983,48.9028213 17.8683386,48.9028213 Z" id="Oval-2" stroke="#4A4A4A" stroke-width="2"></path>
                    <path d="M37.6175549,48.9028213 C40.7338951,48.9028213 43.2601881,46.3765284 43.2601881,43.2601881 C43.2601881,40.1438478 40.7338951,37.6175549 37.6175549,37.6175549 C34.5012146,37.6175549 31.9749216,40.1438478 31.9749216,43.2601881 C31.9749216,46.3765284 34.5012146,48.9028213 37.6175549,48.9028213 Z" id="Oval-2" stroke="#4A4A4A" stroke-width="2"></path>
                    <path d="M59.2476489,30.2115987 L59.2476489,19.9370424 C59.2476489,14.1976084 54.5448947,9.54493529 48.7437338,9.54493529 L15.8250973,9.54493529 L15.7833892,0 C10.1755266,0.00703641246 4.99150543,2.8945617 2.160949,7.5877151 C-0.745253259,12.4062258 -0.71838445,18.3756162 2.23110604,23.1693686 C4.38511804,26.6702061 7.85305788,29.1447441 11.8175416,30.1468095 L15.915886,30.3291536 L54.5454466,30.3291536 L54.5454466,37.1473354 L59.2476489,37.1473354 L59.2476489,30.2115987 Z" id="Combined-Shape" stroke="#4A4A4A" stroke-width="3" fill="#4A4A4A" transform="translate(29.623820, 18.573668) scale(-1, 1) translate(-29.623820, -18.573668) "></path>
                </g>
            </g>
            <g id="Group-4" transform="translate(132.000000, 70.000000)">
                <path d="M24.9192291,69.5384243 C14.6088723,72.94379 7,84.8043018 7,98.912698 L7,132.642887 C7,149.408658 17.7451636,141.848021 31,141.848021 C44.2548364,141.848021 55,149.408658 55,132.642887 L55,98.912698 C55,84.5858884 47.1537168,72.5771014 36.6,69.3863701 L36.6,63.9843803 C36.6,60.6805192 33.9249416,58 30.6250899,58 L30.3749101,58 C27.0773418,58 24.5202738,60.6727521 24.6686392,63.9697589 L24.9192291,69.5384243 Z" id="Combined-Shape" stroke="#4A4A4A" stroke-width="3" fill="#FBC27B"></path>
                <path d="M16.1473354,95.2866091 L5.99059561,93.4057319 C5.99059561,85.6457691 9.39014383,80.4295322 14.7644196,75.590835 C19.2179687,71.5811085 25.5354175,78.9968652 31.8902821,78.9968652 C38.2661052,78.9968652 43.585236,71.5973539 48.04449,75.6305579 C53.393303,80.4683299 56.7742947,85.666977 56.7742947,93.4057319 L46.6175549,95.2866091 L46.6175549,149.697741 C46.6175549,149.697741 45.4059789,149.529781 31.3824451,149.529781 C17.3589114,149.529781 16.1473354,149.697741 16.1473354,149.697741 L16.1473354,95.2866091 Z" id="Fill-3" stroke="#4A4A4A" stroke-width="3" fill="#9A43E6"></path>
                <g id="Face" transform="translate(0.347962, 0.000000)">
                    <path d="M2.82131661,28.6272754 C2.82131661,14.638806 15.4527756,12.2257053 31.0344733,12.2257053 C46.6161757,12.2257053 59.2476489,14.638806 59.2476489,28.6272754 L59.2475541,40.5023512 C59.2475541,54.4908207 46.6160951,65.830721 31.0343974,65.830721 C15.4527756,65.8306495 2.82131661,54.4907568 2.82131661,40.5022789 L2.82131661,28.6272754 Z" id="Fill-3" stroke="#4A4A4A" stroke-width="3" fill="#FAC27B"></path>
                    <circle id="Combined-Shape" fill="#4A4A4A" cx="20.6896552" cy="43.2601881" r="3.29153605"></circle>
                    <circle id="Combined-Shape" fill="#4A4A4A" cx="40.4388715" cy="43.2601881" r="3.29153605"></circle>
                    <path d="M26.8025078,42.5846395 C26.8025078,42.5846395 28.6833856,42.0846395 30.5642633,42.0846395 C32.4451411,42.0846395 34.3260188,42.5846395 34.3260188,42.5846395" id="Line" stroke="#4A4A4A" stroke-width="3" stroke-linecap="square"></path>
                    <path d="M47.0219436,42.3197492 C47.0219436,42.3197492 53.1534594,42.277936 55.4858934,41.8495298 C56.9935848,41.5726069 58.5423197,40.2037618 58.5423197,40.2037618" id="Line" stroke="#4A4A4A" stroke-width="2" stroke-linecap="square"></path>
                    <path d="M3.52664577,42.3197492 C3.52664577,42.3197492 9.18794214,42.5130458 11.5203762,42.0846395 C13.0280675,41.8077166 14.5768025,40.4388715 14.5768025,40.4388715" id="Line" stroke="#4A4A4A" stroke-width="2" stroke-linecap="square" transform="translate(9.051724, 41.401057) scale(-1, 1) translate(-9.051724, -41.401057) "></path>
                    <path d="M20.6896552,48.9028213 C23.8059955,48.9028213 26.3322884,46.3765284 26.3322884,43.2601881 C26.3322884,40.1438478 23.8059955,37.6175549 20.6896552,37.6175549 C19.4487484,37.6175549 18.3013983,38.0181192 17.3698536,38.6969995 C15.9619718,39.7230192 15.0470219,41.3847546 15.0470219,43.2601881 C15.0470219,46.3765284 17.5733149,48.9028213 20.6896552,48.9028213 Z" id="Oval-2" stroke="#4A4A4A" stroke-width="2"></path>
                    <path d="M40.4388715,48.9028213 C43.5552118,48.9028213 46.0815047,46.3765284 46.0815047,43.2601881 C46.0815047,40.1438478 43.5552118,37.6175549 40.4388715,37.6175549 C37.3225312,37.6175549 34.7962382,40.1438478 34.7962382,43.2601881 C34.7962382,46.3765284 37.3225312,48.9028213 40.4388715,48.9028213 Z" id="Oval-2" stroke="#4A4A4A" stroke-width="2"></path>
                    <path d="M59.2476489,30.2115987 L59.2476489,19.9370424 C59.2476489,14.1976084 54.5448947,9.54493529 48.7437338,9.54493529 L15.8250973,9.54493529 L15.7833892,0 C10.1755266,0.00703641246 4.99150543,2.8945617 2.160949,7.5877151 C-0.745253259,12.4062258 -0.71838445,18.3756162 2.23110604,23.1693686 C4.38511804,26.6702061 7.85305788,29.1447441 11.8175416,30.1468095 L15.915886,30.3291536 L54.5454466,30.3291536 L54.5454466,37.1473354 L59.2476489,37.1473354 L59.2476489,30.2115987 Z" id="Combined-Shape" stroke="#4A4A4A" stroke-width="3" fill="#F6AC33"></path>
                    <path d="M22.9532144,52.6645768 C23.7820625,52.6645768 38.2869038,52.6645768 39.1157515,52.6645768 C39.9445992,52.6645768 39.1689056,54.2995204 39.1689056,54.2995204 C37.4060079,57.2849041 34.4206132,59.2476489 31.034483,59.2476489 C27.6483858,59.2476489 24.6629593,57.2849041 22.9000595,54.2995204 C22.9000595,54.2995204 22.1243663,52.6645768 22.9532144,52.6645768 Z" id="Fill-3" fill="#D54D4C"></path>
                </g>
            </g>
            <g id="Group" transform="translate(65.000000, 71.000000)">
                <g id="Body" transform="translate(10.344828, 58.658307)" stroke="#4A4A4A" stroke-width="3">
                    <path d="M20.6896552,9.44814478 C9.95811616,11.82881 1.88087774,22.1976946 1.88087774,34.6283024 L1.88087774,63.1773652 C1.88087774,77.36783 12.407096,88.8714734 25.3918495,88.8714734 C38.376603,88.8714734 48.9028213,77.36783 48.9028213,63.1773652 L48.9028213,34.6283024 C48.9028213,22.1976946 40.8255829,11.82881 30.0940439,9.44814478 L30.0940439,4.69773046 C30.0940439,2.10285702 27.9887998,0 25.3918495,0 C22.8001836,0 20.6896552,2.10324557 20.6896552,4.69773046 L20.6896552,9.44814478 Z" id="Combined-Shape" fill="#FBDEBA"></path>
                    <path d="M10.1567398,34.6283019 L0,32.7474247 C0,24.9874619 3.39954821,19.771225 8.77382399,14.9325277 C13.2273731,10.9228013 19.5448219,18.338558 25.8996865,18.338558 C32.2755095,18.338558 37.5946404,10.9390467 42.0538944,14.9722507 C47.4027073,19.8100227 50.7836991,25.0086698 50.7836991,32.7474247 L40.6269592,34.6283019 L40.6269592,89.0394341 C40.6269592,89.0394341 39.4153833,88.8714734 25.3918495,88.8714734 C11.3683158,88.8714734 10.1567398,89.0394341 10.1567398,89.0394341 L10.1567398,34.6283019 Z" id="Fill-3" fill="#4A9CD0"></path>
                </g>
                <g id="Face" transform="translate(0.000000, 0.351097)">
                    <path d="M35.2624877,7.05329154 L36.2108855,7.05329154 C51.530693,7.05329154 63.9498433,19.6847734 63.9498433,35.2664818 C63.9497958,50.848142 51.5306313,63.4796238 36.2108239,63.4796238 L35.2624877,63.4795756 C19.9426755,63.4795756 7.52351097,50.8480937 7.52351097,35.2663853 C7.52351097,19.6847734 19.9426755,7.05329154 35.2624877,7.05329154 Z" id="Fill-5" stroke="#4A4A4A" stroke-width="3" fill="#FBDEBA"></path>
                    <path d="M27.6554087,47.9623824 C28.4842568,47.9623824 42.9890982,47.9623824 43.8179459,47.9623824 C44.6467936,47.9623824 43.8710999,49.597326 43.8710999,49.597326 C42.1082023,52.5827097 39.1228076,54.5454545 35.7366773,54.5454545 C32.3505802,54.5454545 29.3651536,52.5827097 27.6022539,49.597326 C27.6022539,49.597326 26.8265607,47.9623824 27.6554087,47.9623824 Z" id="Fill-3" fill="#D54D4C"></path>
                    <ellipse id="Oval" fill="#4A4A4A" cx="25.862069" cy="40.4388715" rx="3.29153605" ry="3.29153605"></ellipse>
                    <ellipse id="Oval" fill="#4A4A4A" cx="45.6112853" cy="40.4388715" rx="3.29153605" ry="3.29153605"></ellipse>
                    <path d="M63.3430587,20.418027 C66.9257266,22.0149411 70.1083542,26.1795163 70.1083542,29.6974232 C70.1083542,30.8112884 69.8774295,31.8724044 69.4599216,32.837558 L68.0842006,34.8323605 L69.7400784,35.9238856 C71.1015047,37.2548652 71.9435737,39.093616 71.9435737,41.1246959 C71.9435737,43.1557759 71.1015047,44.9946066 69.7400784,46.3256708 L67.842837,47.5761818 L67.9102665,47.5895549 C69.5996708,48.2879389 70.785094,49.9232727 70.785094,51.8294483 C70.785094,53.7356238 68.9427743,56.8380094 68.9427743,56.8380094 C69.6629154,57.541942 70.1083072,58.5147602 70.1083072,59.5890028 C70.1083072,61.7376513 68.3266458,63.4796244 66.1288401,63.4796244 C63.9309875,63.4796244 62.149326,61.7376513 62.149326,59.5890028 C62.149326,58.5147602 62.5947179,57.541942 63.3148589,56.8380094 C63.3148589,56.8380094 61.3712539,53.7356238 61.3712539,51.8294483 C61.3712539,50.5587179 61.4920063,47.9018135 61.4920063,47.9018135 C61.3607257,47.8475315 61.2313493,47.7897096 61.1040023,47.7284702 C62.0150661,45.8494319 62.7265229,43.852321 63.2102155,41.7657766 C63.6939081,39.6792322 63.9498365,37.5032543 63.9498433,35.2664818 C63.9498433,35.0669445 63.9478066,34.867891 63.9437534,34.6693416 C60.1390251,34.4408021 52.68892,33.8906523 48.9028229,32.9153607 C42.1566916,31.1775696 30.406895,25.5499984 30.406895,25.5499984 C30.406895,25.5499984 15.1009514,36.7838699 8.56228213,37.9519937 L7.65414478,38.0221017 C7.98627535,41.5069279 8.94173003,44.8062006 10.4056942,47.8031422 C10.3323016,47.8372231 10.2582523,47.8701216 10.1835705,47.9018135 C10.1835705,47.9018135 10.3011912,50.5587179 10.3011912,51.8294483 C10.3011912,53.7356238 8.40741066,56.8380094 8.40741066,56.8380094 C9.10909091,57.541942 9.54307524,58.5147602 9.54307524,59.5890028 C9.54307524,61.7376513 7.80709561,63.4796244 5.66561285,63.4796244 C3.52412633,63.4796244 1.78814624,61.7376513 1.78814624,59.5890028 C1.78814624,58.5147602 2.22213103,57.541942 2.92381176,56.8380094 C2.92381176,56.8380094 1.12875893,53.7356238 1.12875893,51.8294483 C1.12875893,49.9232727 2.28376317,48.2879389 3.92983448,47.5895549 L3.99557022,47.5761818 L2.14696975,46.3256708 C0.820476019,44.9946066 0,43.1557759 0,41.1246959 C0,39.093616 0.820476019,37.2548652 2.14696975,35.9238856 L3.76041677,34.8323605 L2.41998809,32.837558 C2.01314248,31.8724044 1.78814624,30.8112884 1.78814624,29.6974232 C1.78814624,26.2684863 4.75572315,22.2251767 8.14722236,20.5440626 C8.80272408,18.8187163 9.6140808,17.1026187 10.5843715,15.4220219 C16.0726834,5.91601881 25.087232,0.245736677 33.2348793,0.304467085 L36.9639687,0.00879310345 C49.6812342,0.811492933 60.5719982,8.93448754 63.3430587,20.418027 Z" id="Combined-Shape" stroke="#4A4A4A" stroke-width="3" fill="#D54D4C"></path>
                </g>
            </g>
            <rect id="Rectangle-12" fill="#FFFFFF" x="0" y="180" width="200" height="20"></rect>
            <path d="M5,180 L195,180" id="Line" stroke="#E42D40" stroke-width="3" stroke-linecap="square"></path>
        </g>
    </g>
</svg>