<?xml version="1.0" encoding="UTF-8" standalone="no"?>
<svg width="180px" height="335px" viewBox="0 0 180 335" version="1.1" xmlns="http://www.w3.org/2000/svg" xmlns:xlink="http://www.w3.org/1999/xlink">
    <!-- Generator: Sketch 39.1 (31720) - http://www.bohemiancoding.com/sketch -->
    <title>Person 5</title>
    <desc>Created with Sketch.</desc>
    <defs></defs>
    <g id="People" stroke="none" stroke-width="1" fill="none" fill-rule="evenodd">
        <g id="Person-5">
            <g id="Body" transform="translate(40.000000, 149.000000)" stroke="#4A4A4A" stroke-width="4" fill="#FBC27B">
                <path d="M40,20.0930546 C17.1775937,25.1559359 0,47.2070972 0,73.6428564 L0,134.357197 C0,164.535585 22.3857576,189 50,189 C77.6142424,189 100,164.535585 100,134.357197 L100,73.6428564 C100,47.2070972 82.8224063,25.1559359 60,20.0930546 L60,7.99845994 C60,3.58493529 56.4224178,0 52.0092465,0 L47.9907535,0 C43.5755992,0 40,3.58103249 40,7.99845994 L40,20.0930546 Z" id="Combined-Shape"></path>
            </g>
            <path d="M57.6,222.642855 L36,222.642856 C36,206.140002 43.2297059,191.046805 54.658999,180.756509 C64.1302135,172.229157 77.5653213,188 91.08,188 C104.63925,188 115.951269,172.263706 125.434615,180.840987 C136.809758,191.129315 144,206.185105 144,222.642856 L122.4,222.642855 L122.4,338.357197 C122.4,338.357197 119.823382,338 90,338 C60.1766182,338 57.6,338.357197 57.6,338.357197 L57.6,222.642855 Z" id="Fill-3" stroke="#4A4A4A" stroke-width="4" fill="#9A43E6"></path>
            <g id="Face" transform="translate(24.000000, 20.000000)">
                <path d="M6,60.8806724 C6,31.1318607 32.8629028,26 65.9999798,26 C99.137067,26 126,31.1318607 126,60.8806724 L125.999798,86.1350003 C125.999798,115.883812 99.1368956,140 65.9998185,140 C32.8629028,139.999848 6,115.883676 6,86.1348464 L6,60.8806724 Z" id="Fill-3" stroke="#4A4A4A" stroke-width="4" fill="#FAC27B"></path>
                <circle id="Combined-Shape" fill="#4A4A4A" cx="44" cy="92" r="7"></circle>
                <circle id="Combined-Shape" fill="#4A4A4A" cx="86" cy="92" r="7"></circle>
                <path d="M57,90.5 C57,90.5 61,89.5 65,89.5 C69,89.5 73,90.5 73,90.5" id="Line" stroke="#4A4A4A" stroke-width="3" stroke-linecap="square"></path>
                <path d="M100,90 C100,90 113.03969,89.9110773 118,89 C121.206357,88.4110773 124.5,85.5 124.5,85.5" id="Line" stroke="#4A4A4A" stroke-width="5" stroke-linecap="square"></path>
                <path d="M7.5,90 C7.5,90 19.5396903,90.4110773 24.5,89.5 C27.7063569,88.9110773 31,86 31,86" id="Line" stroke="#4A4A4A" stroke-width="5" stroke-linecap="square" transform="translate(19.250000, 88.046247) scale(-1, 1) translate(-19.250000, -88.046247) "></path>
                <path d="M44,104 C50.627417,104 56,98.627417 56,92 C56,85.372583 50.627417,80 44,80 C41.3610048,80 38.9209738,80.8518669 36.9398887,82.2956189 C33.9457933,84.4776207 32,88.0115782 32,92 C32,98.627417 37.372583,104 44,104 Z" id="Oval-2" stroke="#4A4A4A" stroke-width="3"></path>
                <path d="M86,104 C92.627417,104 98,98.627417 98,92 C98,85.372583 92.627417,80 86,80 C79.372583,80 74,85.372583 74,92 C74,98.627417 79.372583,104 86,104 Z" id="Oval-2" stroke="#4A4A4A" stroke-width="3"></path>
                <path d="M126,64.25 L126,42.3994435 C126,30.1935806 115.998809,20.2988957 103.661674,20.2988957 L33.654707,20.2988957 L33.5660077,0 C21.6399532,0.0149641038 10.6152682,6.15576788 4.59561821,16.1365408 C-1.58490526,26.383907 -1.52776426,39.0788105 4.74481885,49.2735239 C9.32568436,56.7186383 16.7008364,61.9811558 25.1319719,64.1122149 L33.8477842,64.5 L115.999983,64.5 L115.999983,79 L126,79 L126,64.25 Z" id="Combined-Shape" stroke="#4A4A4A" stroke-width="4" fill="#F6AC33"></path>
                <path d="M48.8138359,112 C50.5765195,112 81.4234822,112 83.186165,112 C84.9488477,112 83.2992058,115.47698 83.2992058,115.47698 C79.5501102,121.825896 73.2011708,126 66.0000004,126 C58.7989005,126 52.4498933,121.825896 48.7007932,115.47698 C48.7007932,115.47698 47.0511523,112 48.8138359,112 Z" id="Fill-3" fill="#D54D4C"></path>
            </g>
        </g>
    </g>
</svg>