<?xml version="1.0" encoding="UTF-8" standalone="no"?>
<svg width="180px" height="335px" viewBox="0 0 180 335" version="1.1" xmlns="http://www.w3.org/2000/svg" xmlns:xlink="http://www.w3.org/1999/xlink">
    <!-- Generator: Sketch 39.1 (31720) - http://www.bohemiancoding.com/sketch -->
    <title>Person 3</title>
    <desc>Created with Sketch.</desc>
    <defs></defs>
    <g id="People" stroke="none" stroke-width="1" fill="none" fill-rule="evenodd">
        <g id="Person-3">
            <g id="Body" transform="translate(39.000000, 149.000000)" stroke="#4A4A4A" stroke-width="4">
                <path d="M61,18.6854203 C83.8224063,35.2576372 101,102.071484 101,102.071484 C101,132.959952 78.6142424,189 51,189 C23.3857576,189 1,132.959952 1,102.071484 C1,102.071484 18.1775937,35.2576372 41,18.6854203 L41,7.99845994 C41,3.58103249 44.5755992,0 48.9907535,0 L53.0092465,0 C57.4224178,0 61,3.58493529 61,7.99845994 L61,18.6854203 Z" id="Combined-Shape" fill="#F6E5B7"></path>
                <path d="M18.6,84.6428554 L0,84.6428564 C0,74.1751195 7.40893459,35.0526798 14.658999,28.756509 C24.2096628,20.4624295 38.5653213,29 52.08,29 C65.6392503,29 77.9512686,20.2637059 87.4346154,28.8409865 C98.8097576,39.1293149 102,68.1851045 102,84.6428564 L83.4,84.6428554 L83.4,189.357197 C83.4,189.357197 80.8233818,189 51,189 C21.1766182,189 18.6,189.357197 18.6,189.357197 L18.6,84.6428554 Z" id="Fill-3" fill="#62CA7E"></path>
            </g>
            <g id="Face" transform="translate(25.000000, 37.000000)">
                <path d="M63.9915571,3 L66.0084832,3 C98.5886071,3 125,29.8629514 125,63.0000513 C124.999899,96.1370486 98.588476,123 66.0083521,123 L63.9915571,122.999897 C31.4114232,122.999897 5,96.136946 5,62.9998462 C5,29.8629514 31.4114232,3 63.9915571,3 Z" id="Fill-5" stroke="#4A4A4A" stroke-width="4" fill="#F7E5B8"></path>
                <circle id="Oval" fill="#4A4A4A" cx="44" cy="74" r="7"></circle>
                <circle id="Oval" fill="#4A4A4A" cx="86" cy="74" r="7"></circle>
                <path d="M66.9236926,0.579545455 C101.55271,0.579545455 129.625,28.9609613 129.625,63.9712709 C129.624893,66.1594485 123.000003,81.0000014 123.000003,81.0000014 L124.273672,71.5816951 C121.540673,58.0786493 112.191571,49.7991522 98.5020262,44.7891184 C82.241185,38.8380539 64.9448052,58.0422078 64.9448052,58.0422078 C64.9448052,58.0422078 48.2408063,38.8771058 31.7357476,45.0506873 C18.2747462,50.0856642 9.31535876,60.3110243 6.62939188,73.5816951 L6.99999988,80.0000014 C6.99999988,80.0000014 1.62861921,70.8331659 1,66.0000014 C0.778443185,64.2965528 1.69869445,57.4897766 1.69869445,57.4897766 C4.90965016,25.5241773 31.6116475,0.579545455 64.0763181,0.579545455 L66.9236926,0.579545455 Z" id="Fill-3" stroke="#4A4A4A" stroke-width="3" fill="#D27A41"></path>
                <path d="M65.3344804,127 C58.2626239,127 56.5657327,112.944476 57.0874305,113.234709 L59.3131353,115.071037 L70.0975211,114.954482 L72.389217,113.063668 C74.4760695,111.902843 70.9919742,127 65.3344804,127 Z" id="Fill-3" stroke="#4A4A4A" stroke-width="3" fill="#D27A41"></path>
                <path d="M48,95 C48,95 55.5185185,99 66.6666667,99 C77.8148148,99 83,95 83,95" id="Path-2" stroke="#4A4A4A" stroke-width="4" stroke-linecap="round" stroke-linejoin="bevel"></path>
                <rect id="Rectangle-2" fill="#844319" x="50.8572475" y="16" width="28.2855051" height="3" rx="1.5"></rect>
                <rect id="Rectangle-2" fill="#844319" x="47.7144949" y="23" width="34.5710101" height="3" rx="1.5"></rect>
                <rect id="Rectangle-2" fill="#844319" x="44.9286237" y="30" width="40.1427525" height="3" rx="1.5"></rect>
            </g>
        </g>
    </g>
</svg>