<?xml version="1.0" encoding="UTF-8" standalone="no"?>
<svg width="180px" height="335px" viewBox="0 0 180 335" version="1.1" xmlns="http://www.w3.org/2000/svg" xmlns:xlink="http://www.w3.org/1999/xlink">
    <!-- Generator: Sketch 39.1 (31720) - http://www.bohemiancoding.com/sketch -->
    <title>Person 4</title>
    <desc>Created with Sketch.</desc>
    <defs></defs>
    <g id="People" stroke="none" stroke-width="1" fill="none" fill-rule="evenodd">
        <g id="Person-4">
            <path d="M19.9999975,170.666394 C41.0000006,185.129724 53.84808,185.129724 89.9999975,185.129724 C126.487438,185.129724 139.999997,185.129724 160.000004,170.666394 C161.626435,169.490213 160,100.093619 160,97.8331968 C160,57.6085329 128.659932,25 90,25 C51.3400675,25 20,57.6085329 20,97.8331968 C20,100.442722 18.1094691,169.36433 19.9999975,170.666394 Z" id="Oval-2" stroke="#4A4A4A" stroke-width="4" fill="#FFEE5E"></path>
            <g id="Body" transform="translate(40.000000, 149.000000)" stroke="#4A4A4A" stroke-width="4" fill="#AE742A">
                <path d="M40,20.0930546 C17.1775937,25.1559359 0,47.2070972 0,73.6428564 L0,134.357197 C0,164.535585 22.3857576,189 50,189 C77.6142424,189 100,164.535585 100,134.357197 L100,73.6428564 C100,47.2070972 82.8224063,25.1559359 60,20.0930546 L60,7.99845994 C60,3.58493529 56.4224178,0 52.0092465,0 L47.9907535,0 C43.5755992,0 40,3.58103249 40,7.99845994 L40,20.0930546 Z" id="Combined-Shape"></path>
            </g>
            <path d="M57.6,222.642855 L36,218.642856 C36,202.140002 43.2297059,191.046805 54.658999,180.756509 C64.1302135,172.229157 77.5653213,188 91.08,188 C104.63925,188 115.951269,172.263706 125.434615,180.840987 C136.809758,191.129315 144,202.185105 144,218.642856 L122.4,222.642855 L122.4,338.357197 C122.4,338.357197 119.823382,338 90,338 C60.1766182,338 57.6,338.357197 57.6,338.357197 L57.6,222.642855 Z" id="Fill-3" stroke="#4A4A4A" stroke-width="4" fill="#DC597F"></path>
            <g id="Face" transform="translate(30.000000, 78.000000)">
                <path d="M0,34.8806724 C0,17.5784788 9.08690588,8.60345361 23.2100728,4.1220829 C25.6839101,3.3371186 28.312268,2.69002682 31.0733773,2.16020535 C35.8199678,1.24939549 59.9998169,13.5411377 59.9998169,13.5411377 C59.9998169,13.5411377 55.3150126,0 59.9999798,0 C65.9808644,0 86.1209984,1.56702407 90.1627058,2.40715975 C108.00698,6.11638704 120,15.0033816 120,34.8806724 L119.999798,28.1350003 C119.999798,57.883812 93.1368956,82 59.9998185,82 C26.8629028,81.9998479 0,57.8836762 0,28.1348464 L0,34.8806724 Z" id="Fill-3" stroke="#4A4A4A" stroke-width="4" fill="#AE742A"></path>
                <circle id="Combined-Shape" fill="#4A4A4A" cx="38" cy="33" r="7"></circle>
                <circle id="Combined-Shape" fill="#4A4A4A" cx="80" cy="33" r="7"></circle>
                <path d="M42.8138359,49 C44.5765195,49 75.4234822,49 77.186165,49 C78.9488477,49 77.2992058,52.47698 77.2992058,52.47698 C73.5501102,58.825896 67.2011708,63 60.0000004,63 C52.7989005,63 46.4498933,58.825896 42.7007932,52.47698 C42.7007932,52.47698 41.0511523,49 42.8138359,49 Z" id="Fill-3" fill="#4A4A4A"></path>
            </g>
        </g>
    </g>
</svg>