<?xml version="1.0" encoding="UTF-8" standalone="no"?>
<svg width="180px" height="335px" viewBox="0 0 180 335" version="1.1" xmlns="http://www.w3.org/2000/svg" xmlns:xlink="http://www.w3.org/1999/xlink">
    <!-- Generator: Sketch 39.1 (31720) - http://www.bohemiancoding.com/sketch -->
    <title>Person 1</title>
    <desc>Created with Sketch.</desc>
    <defs></defs>
    <g id="People" stroke="none" stroke-width="1" fill="none" fill-rule="evenodd">
        <g id="Person-1">
            <g id="Body" transform="translate(36.000000, 149.000000)" stroke="#4A4A4A" stroke-width="4">
                <path d="M44,20.0930546 C21.1775937,25.1559359 4,47.2070972 4,73.6428564 L4,134.357197 C4,164.535585 26.3857576,189 54,189 C81.6142424,189 104,164.535585 104,134.357197 L104,73.6428564 C104,47.2070972 86.8224063,25.1559359 64,20.0930546 L64,7.99845994 C64,3.58493529 60.4224178,0 56.0092465,0 L51.9907535,0 C47.5755992,0 44,3.58103249 44,7.99845994 L44,20.0930546 Z" id="Combined-Shape" fill="#FBDEBA"></path>
                <path d="M21.6,73.6428554 L0,69.6428564 C0,53.1400023 7.22970587,42.0468051 18.658999,31.756509 C28.1302135,23.2291574 41.5653213,39 55.08,39 C68.6392503,39 79.9512686,23.2637059 89.4346154,31.8409865 C100.809758,42.1293149 108,53.1851045 108,69.6428564 L86.4,73.6428554 L86.4,189.357197 C86.4,189.357197 83.8233818,189 54,189 C24.1766182,189 21.6,189.357197 21.6,189.357197 L21.6,73.6428554 Z" id="Fill-3" fill="#4A9CD0"></path>
            </g>
            <g id="Face" transform="translate(14.000000, 25.000000)">
                <path d="M74.9915571,15 L77.0084832,15 C109.588607,15 136,41.8629514 136,75.0000513 C135.999899,108.137049 109.588476,135 77.0083521,135 L74.9915571,134.999897 C42.4114232,134.999897 16,108.136946 16,74.9998462 C16,41.8629514 42.4114232,15 74.9915571,15 Z" id="Fill-5" stroke="#4A4A4A" stroke-width="4" fill="#FBDEBA"></path>
                <path d="M58.8138359,102 C60.5765195,102 91.4234822,102 93.186165,102 C94.9488477,102 93.2992058,105.47698 93.2992058,105.47698 C89.5501102,111.825896 83.2011708,116 76.0000004,116 C68.7989005,116 62.4498933,111.825896 58.7007932,105.47698 C58.7007932,105.47698 57.0511523,102 58.8138359,102 Z" id="Fill-3" fill="#D54D4C"></path>
                <circle id="Oval" fill="#4A4A4A" cx="55" cy="86" r="7"></circle>
                <circle id="Oval" fill="#4A4A4A" cx="97" cy="86" r="7"></circle>
                <path d="M134.709572,43.4223374 C142.328712,46.8184415 149.0971,55.6751048 149.0971,63.15652 C149.0971,65.52534 148.606,67.78198 147.7181,69.83454 L144.7924,74.07682 L148.3139,76.39813 C151.2092,79.22868 153,83.13909 153,87.45852 C153,91.77795 151.2092,95.68853 148.3139,98.51926 L144.2791,101.17868 L144.4225,101.20712 C148.0153,102.69235 150.5363,106.17016 150.5363,110.22396 C150.5363,114.27776 146.6183,120.8755 146.6183,120.8755 C148.1498,122.37253 149.097,124.44139 149.097,126.725946 C149.097,131.295405 145.308,135.000001 140.634,135.000001 C135.9599,135.000001 132.1709,131.295405 132.1709,126.725946 C132.1709,124.44139 133.1181,122.37253 134.6496,120.8755 C134.6496,120.8755 130.5162,114.27776 130.5162,110.22396 C130.5162,107.52154 130.773,101.87119 130.773,101.87119 C130.49381,101.75575 130.21867,101.632783 129.947845,101.502547 C131.885374,97.5064585 133.398405,93.2592694 134.427058,88.8218849 C135.455711,84.3845005 135.999986,79.7569207 136,75.0000513 C136,74.5757019 135.995669,74.1523815 135.987049,73.7301332 C127.89566,73.2441058 112.05177,72.0741207 104.000003,70.0000004 C89.6532309,66.304298 64.66533,54.33633 64.66533,54.33633 C64.66533,54.33633 32.11469,78.22703 18.20912,80.71124 L16.2778146,80.8603363 C16.9841456,88.2714 19.0160792,95.2878532 22.1294431,101.661349 C21.9733615,101.733828 21.8158832,101.803792 21.65706,101.87119 C21.65706,101.87119 21.9072,107.52154 21.9072,110.22396 C21.9072,114.27776 17.87976,120.8755 17.87976,120.8755 C19.372,122.37253 20.29494,124.44139 20.29494,126.725946 C20.29494,131.295405 16.60309,135.000001 12.04887,135.000001 C7.494642,135.000001 3.802791,131.295405 3.802791,126.725946 C3.802791,124.44139 4.725732,122.37253 6.217973,120.8755 C6.217973,120.8755 2.400494,114.27776 2.400494,110.22396 C2.400494,106.17016 4.856803,102.69235 8.357448,101.20712 L8.497246,101.17868 L4.565889,98.51926 C1.744879,95.68853 0,91.77795 0,87.45852 C0,83.13909 1.744879,79.22868 4.565889,76.39813 L7.997153,74.07682 L5.146508,69.83454 C4.281283,67.78198 3.802791,65.52534 3.802791,63.15652 C3.802791,55.8643142 10.1138379,47.2655424 17.3264262,43.6903732 C18.7204606,40.0211351 20.4459456,36.3715684 22.50943,32.7975 C34.18124,12.5814 53.35218,0.5226 70.67951,0.6475 L78.61004,0.0187 C105.655425,1.72577497 128.816449,19.0006768 134.709572,43.4223374 Z" id="Combined-Shape" stroke="#4A4A4A" stroke-width="3" fill="#D54D4C"></path>
            </g>
        </g>
    </g>
</svg>