<?xml version="1.0" encoding="UTF-8" standalone="no"?>
<svg width="200px" height="200px" viewBox="0 0 200 200" version="1.1" xmlns="http://www.w3.org/2000/svg" xmlns:xlink="http://www.w3.org/1999/xlink">
    <!-- Generator: Sketch 39.1 (31720) - http://www.bohemiancoding.com/sketch -->
    <title>Resources BW</title>
    <desc>Created with Sketch.</desc>
    <defs>
        <rect id="path-1" x="40" y="60" width="120" height="80" rx="8"></rect>
        <mask id="mask-2" maskContentUnits="userSpaceOnUse" maskUnits="objectBoundingBox" x="0" y="0" width="120" height="80" fill="white">
            <use xlink:href="#path-1"></use>
        </mask>
        <path d="M0.70760862,32.2401691 C-0.0989577536,36.5258054 1.93871688,40 5.26656023,40 L128.73344,40 C132.057846,40 134.09791,36.5202361 133.292391,32.2401691 L128.685137,7.75983088 C127.87857,3.47419462 124.525778,0 121.200081,0 L12.7999194,0 C9.47260343,0 6.12038152,3.47976387 5.31486329,7.75983088 L0.70760862,32.2401691" id="path-3"></path>
        <mask id="mask-4" maskContentUnits="userSpaceOnUse" maskUnits="objectBoundingBox" x="0" y="0" width="132.93676" height="40" fill="white">
            <use xlink:href="#path-3"></use>
        </mask>
        <path d="M177.166667,60.4328884 C171.391689,60.4328887 166.710145,53.2364235 166.710145,44.3531355 L166.710145,46.9960536 C166.710145,42.5799551 163.12046,39 158.710892,39 L119.999253,39 C115.581388,39 112,42.5815896 112,46.994441 L112,63.179472 C112,67.5946799 115.589349,71.173913 119.995394,71.173913 L150.288075,71.173913 C159.177868,71.173913 171.491389,66.0864946 177.166667,60.4328884 L177.166667,60.4328884 L177.166667,60.4328884" id="path-5"></path>
        <mask id="mask-6" maskContentUnits="userSpaceOnUse" maskUnits="objectBoundingBox" x="0" y="0" width="65.1666667" height="32.173913" fill="white">
            <use xlink:href="#path-5"></use>
        </mask>
        <path d="M0.0378942808,12.4197384 C0.0378942808,6.01548382 17.7004795,10.6423843 17.7004795,10.6423843 C22.6468973,11.6239898 24.64106,15.9726058 21.8240791,20.172205 C21.8240791,20.172205 18.5765049,28.3556719 11.5590473,27.5417751 C4.54158967,26.7278783 0.0378942809,18.8239929 0.0378942808,12.4197384 Z" id="path-7"></path>
        <mask id="mask-8" maskContentUnits="userSpaceOnUse" maskUnits="objectBoundingBox" x="0" y="0" width="23.0743312" height="18.5723619" fill="white">
            <use xlink:href="#path-7"></use>
        </mask>
        <path d="M25.9839184,12.2655812 C25.9839184,5.86132665 43.4979314,10.4639625 43.4979314,10.4639625 C48.5264034,11.458969 50.5509506,15.8774852 47.685475,20.1318108 C47.685475,20.1318108 44.5225291,28.2015147 37.5050714,27.3876179 C30.4876138,26.5737211 25.9839184,18.6698357 25.9839184,12.2655812 Z" id="path-9"></path>
        <mask id="mask-10" maskContentUnits="userSpaceOnUse" maskUnits="objectBoundingBox" x="0" y="0" width="23.0128829" height="18.5819928" fill="white">
            <use xlink:href="#path-9"></use>
        </mask>
    </defs>
    <g id="Slices" stroke="none" stroke-width="1" fill="none" fill-rule="evenodd">
        <g id="Resources-BW">
            <use id="Rectangle" stroke="#4A4A4A" mask="url(#mask-2)" stroke-width="6" xlink:href="#path-1"></use>
            <g id="Group" transform="translate(33.000000, 140.000000)">
                <use id="Rectangle" stroke="#4A4A4A" mask="url(#mask-4)" stroke-width="6" xlink:href="#path-3"></use>
                <rect id="Rectangle-2" fill="#4A4A4A" x="23.3370787" y="9" width="12.0449438" height="8" rx="4"></rect>
                <path d="M13.2744083,10.4673233 C13.4269236,9.65694302 14.2249716,9 15.0542162,9 L18.8221883,9 C19.6526337,9 20.3258427,9.66831553 20.3258427,10.5047388 L20.3258427,15.4952612 C20.3258427,16.3263055 19.648182,17 18.8262344,17 L13.5445521,17 C12.7163413,17 12.1681549,16.3453264 12.3210974,15.5326767 L13.2744083,10.4673233 Z" id="Rectangle-2" fill="#4A4A4A"></path>
                <path d="M11.0159813,24.4673233 C11.1684967,23.656943 11.961579,23 12.7990652,23 L33.8750921,23 C34.7073468,23 35.3820225,23.6683155 35.3820225,24.5047388 L35.3820225,29.4952612 C35.3820225,30.3263055 34.7105612,31 33.8764644,31 L11.2920749,31 C10.4605782,31 9.90972789,30.3453264 10.0626704,29.5326767 L11.0159813,24.4673233 Z" id="Rectangle-2" fill="#4A4A4A"></path>
                <rect id="Rectangle-2" fill="#4A4A4A" x="38.3932584" y="9" width="12.0449438" height="8" rx="4"></rect>
                <rect id="Rectangle-2" fill="#4A4A4A" x="38.3932584" y="23" width="12.0449438" height="8" rx="4"></rect>
                <rect id="Rectangle-2" fill="#4A4A4A" x="53.4494382" y="9" width="12.0449438" height="8" rx="4"></rect>
                <rect id="Rectangle-2" fill="#4A4A4A" x="53.4494382" y="23" width="27.1011236" height="8" rx="4"></rect>
                <rect id="Rectangle-2" fill="#4A4A4A" x="68.505618" y="9" width="12.0449438" height="8" rx="4"></rect>
                <rect id="Rectangle-2" fill="#4A4A4A" x="98.6179775" y="9" width="12.0449438" height="8" rx="4"></rect>
                <path d="M98.6179775,24.5047388 C98.6179775,23.6736945 99.2874217,23 100.124908,23 L121.200935,23 C122.033189,23 122.831076,23.6546736 122.984019,24.4673233 L123.93733,29.5326767 C124.089845,30.343057 123.542022,31 122.707925,31 L100.123536,31 C99.2920388,31 98.6179775,30.3316845 98.6179775,29.4952612 L98.6179775,24.5047388 Z" id="Rectangle-2" fill="#4A4A4A"></path>
                <rect id="Rectangle-2" fill="#4A4A4A" x="83.5617978" y="9" width="12.0449438" height="8" rx="4"></rect>
                <rect id="Rectangle-2" fill="#4A4A4A" x="83.5617978" y="23" width="12.0449438" height="8" rx="4"></rect>
                <path d="M113.543029,10.5047388 C113.543029,9.67369451 114.217438,9 115.046683,9 L118.814655,9 C119.6451,9 120.44152,9.65467358 120.594463,10.4673233 L121.547774,15.5326767 C121.700289,16.343057 121.146267,17 120.324319,17 L115.042637,17 C114.214426,17 113.543029,16.3316845 113.543029,15.4952612 L113.543029,10.5047388 Z" id="Rectangle-2" fill="#4A4A4A"></path>
            </g>
            <path d="M66.7049191,47.3748938 C66.9454926,46.4578763 67.0735372,45.4957656 67.0735372,44.5039653 C67.0735372,38.230822 61.9510189,33.1454345 55.6320722,33.1454345 C52.6250817,33.1454345 49.8890238,34.297027 47.8469785,36.1801987 C45.8602579,31.0818865 40.8741776,27.4661691 35.0374352,27.4661691 C27.4546993,27.4661691 21.3076772,33.5686341 21.3076772,41.0964061 C21.3076772,42.3995527 21.4918895,43.6599862 21.8358727,44.8534424 C15.7230079,47.2196447 11.3917409,53.1213233 11.3917409,60.0272907 C11.3917409,69.0187962 18.7340172,76.3078515 27.7911741,76.3078515 C30.8809778,76.3078515 33.7712039,75.459552 36.2384311,73.9847545 C38.504563,75.6808776 41.324639,76.6864692 44.3812983,76.6864692 C47.8586102,76.6864692 51.0297416,75.3850571 53.4274494,73.2460891 C55.9377484,75.1660318 59.0830331,76.3078515 62.4969512,76.3078515 C70.7115819,76.3078515 77.3708557,69.6968479 77.3708557,61.5417615 C77.3708557,54.8375482 72.8703078,49.1768749 66.7049191,47.3748938 Z" id="Combined-Shape" stroke="#4A4A4A" stroke-width="4" fill="#FFFFFF" transform="translate(44.381298, 52.076319) rotate(-6.000000) translate(-44.381298, -52.076319) "></path>
            <g id="hack-strikes-back" transform="translate(150.042014, 105.023846) rotate(14.000000) translate(-150.042014, -105.023846) translate(114.542014, 86.023846)" fill="#4A4A4A">
                <g id="svg2" transform="translate(0.000000, -0.000000)">
                    <g id="layer1" transform="translate(0.080373, 0.045116)">
                        <path d="M13.638512,0.10546712 C11.9950458,0.0998873628 11.177063,0.87740626 10.8291078,2.18550531 L10.6845415,2.72742473 L10.4435978,2.72742473 C8.68828742,2.72682243 7.11891471,4.46469764 6.66078078,6.18699964 L0.136023815,30.7136922 C-0.211625876,32.0206393 0.918944998,34.1487693 3.00807341,34.1442358 L40.8349095,34.0756659 L40.8408156,34.3882141 C40.8355109,35.4525733 41.4940098,36.8524193 43.045003,36.8907438 L55.1162853,36.8713895 C56.6672784,36.9097156 58.1771777,36.1333309 58.4861902,34.9716352 L58.7415906,34.0281148 L60.1375532,34.023284 C62.0536952,34.019119 63.0839939,32.9281732 63.848087,30.0556596 L69.7688177,6.55473533 C70.2269454,4.83242868 68.791815,2.74739833 67.0365077,2.746779 L28.0604956,2.75963487 L28.686405,2.15813714 C29.5117588,1.42102236 29.0398992,0.157755997 27.8903669,0.153853248 L13.638512,0.10546712 Z" id="rect3004-3"></path>
                    </g>
                </g>
            </g>
            <use id="Rectangle-11" stroke="#4A4A4A" mask="url(#mask-6)" stroke-width="6" fill="#FFFFFF" xlink:href="#path-5"></use>
            <g id="Group-2" transform="translate(29.374356, 132.217622) rotate(-60.000000) translate(-29.374356, -132.217622) translate(4.874356, 118.217622)">
                <path d="M42.5287264,3.60953577 C41.8233811,2.82284279 38.7186471,4.16359231 36.3992173,3.58909541 C35.0211664,3.24776755 34.3356741,1.74505667 34.5074698,1.30801963 C34.9684189,0.13539531 39.9004966,0.145211323 39.9004966,0.145211323 C42.6552076,-0.00851417852 45.539875,2.00840545 46.3454092,4.65613484 L48.3959452,11.3960903 L45.962036,11.3960903 C45.962036,11.3960903 43.3060568,4.47651601 42.5287264,3.60953577 Z" id="Rectangle-4" fill="#4A4A4A"></path>
                <path d="M8.65218314,3.60799105 C7.94683789,2.82129806 4.84210388,4.16204759 2.52267413,3.58755068 C1.14462321,3.24622282 0.459130876,1.74351195 0.63092659,1.30647491 C1.09187569,0.133850586 6.02395338,0.1436666 6.02395338,0.1436666 C8.77866441,-0.0100589019 11.6633318,2.00686073 12.468866,4.65459011 L14.519402,11.3945456 L12.0854928,11.3945456 C12.0854928,11.3945456 9.42951358,4.47497129 8.65218314,3.60799105 Z" id="Rectangle-4" fill="#4A4A4A" transform="translate(7.562170, 5.764989) scale(-1, 1) translate(-7.562170, -5.764989) "></path>
                <rect id="Rectangle-3" fill="#4A4A4A" x="19.962963" y="12.7826087" width="7.86419753" height="4.26086957" rx="2.13043478"></rect>
                <use id="Rectangle-10" stroke="#4A4A4A" mask="url(#mask-8)" stroke-width="6" fill="#FFFFFF" xlink:href="#path-7"></use>
                <use id="Rectangle-10" stroke="#4A4A4A" mask="url(#mask-10)" stroke-width="6" fill="#FFFFFF" transform="translate(37.490360, 18.154294) scale(-1, 1) translate(-37.490360, -18.154294) " xlink:href="#path-9"></use>
            </g>
            <circle id="Oval-2" fill="#4A4A4A" cx="66.5" cy="78.5" r="9.5"></circle>
            <circle id="Oval-2" fill="#4A4A4A" cx="78.5" cy="100.5" r="9.5"></circle>
            <circle id="Oval-2" fill="#4A4A4A" cx="69.5" cy="122.5" r="9.5"></circle>
            <path d="M67.5206542,83 L65.8587402,83 L65.8587402,77.6793946 C65.8587402,77.1006157 65.8876787,76.4350299 65.9455566,75.6826173 C65.9166177,75.7239586 65.8101653,75.8500479 65.6261962,76.0608888 C65.4422272,76.2717297 65.0835964,76.6499974 64.5502929,77.1957032 L63.6077148,76.1663087 L66.0199707,73.9338869 L67.5206542,73.9338869 L67.5206542,83 Z" id="1" fill="#FFFFFF"></path>
            <path d="M80.9423339,105.196338 L76.0806152,105.196338 L76.0806152,103.9375 L77.6929199,101.655469 C78.1352724,101.02708 78.4391267,100.560963 78.6044921,100.257104 C78.7698576,99.9532455 78.8918127,99.6617933 78.9703613,99.3827392 C79.0489099,99.1036851 79.0881835,98.8153335 79.0881835,98.5176757 C79.0881835,98.1704084 79.0106697,97.9099618 78.8556396,97.7363281 C78.7006095,97.5626944 78.4990735,97.4758789 78.2510254,97.4758789 C78.0319162,97.4758789 77.8272796,97.5337559 77.6371094,97.6495117 C77.4469391,97.7652675 77.215431,97.9740382 76.9425781,98.27583 L76,97.2836426 C76.4340842,96.7916805 76.8371563,96.4547535 77.2092285,96.2728516 C77.5813007,96.0909496 77.9843728,96 78.418457,96 C79.1501989,96 79.7217345,96.2149718 80.133081,96.6449219 C80.5444274,97.0748719 80.7500976,97.6722455 80.7500976,98.4370605 C80.7500976,98.7843279 80.7128909,99.1129867 80.6384765,99.4230468 C80.5640621,99.733107 80.4514086,100.044196 80.3005126,100.356323 C80.1496167,100.66845 79.9604828,100.992975 79.7331054,101.329907 C79.505728,101.666839 78.9186896,102.438877 77.9719726,103.646045 L77.9719726,103.695654 L80.9423339,103.695654 L80.9423339,105.196338 Z" id="2" fill="#FFFFFF"></path>
            <path d="M72.1407714,119.974072 C72.1407714,120.544583 72.0002129,121.023102 71.7190917,121.409644 C71.4379705,121.796185 71.0410995,122.063867 70.5284667,122.212695 L70.5284667,122.262305 C71.0989774,122.353256 71.5402897,122.576496 71.8524169,122.932031 C72.1645441,123.287567 72.3206054,123.771253 72.3206054,124.383106 C72.3206054,125.218201 72.0611923,125.883787 71.5423583,126.379883 C71.0235244,126.875979 70.3134973,127.124023 69.4122558,127.124023 C68.6102336,127.124023 67.9363797,126.981398 67.3906738,126.696143 L67.3906738,125.183057 C67.6635267,125.348422 67.959113,125.478645 68.2774414,125.57373 C68.5957698,125.668816 68.9016912,125.716357 69.1952148,125.716357 C69.6747745,125.716357 70.0365059,125.605771 70.2804199,125.384595 C70.5243338,125.163419 70.646289,124.813056 70.646289,124.333496 C70.646289,123.428121 70.0902562,122.97544 68.9781738,122.97544 L68.4634765,122.97544 L68.4634765,121.716602 L68.9533691,121.716602 C69.4453312,121.716602 69.8225654,121.600848 70.085083,121.369336 C70.3476005,121.137824 70.4788574,120.792629 70.4788574,120.33374 C70.4788574,119.974071 70.3951424,119.702255 70.2277099,119.518286 C70.0602774,119.334317 69.8236017,119.242334 69.5176757,119.242334 C69.0505185,119.242334 68.5957704,119.44077 68.153418,119.837647 L67.3906738,118.721436 C68.0025258,118.109584 68.7735305,117.803662 69.7037109,117.803662 C70.4685259,117.803662 71.0658995,117.99693 71.4958495,118.383472 C71.9257996,118.770013 72.1407714,119.300208 72.1407714,119.974072 L72.1407714,119.974072 Z" id="3" fill="#FFFFFF"></path>
            <rect id="Rectangle-9" fill="#4A4A4A" x="82" y="74" width="33" height="6"></rect>
            <rect id="Rectangle-9" fill="#4A4A4A" x="83.5" y="120" width="36.5" height="6"></rect>
            <rect id="Rectangle-9" fill="#4A4A4A" x="92" y="97" width="16" height="6"></rect>
            <path d="" id="Path-4" stroke="#979797"></path>
            <path d="" id="Path-12" stroke="#979797"></path>
            <path d="" id="Path-13" stroke="#979797"></path>
            <path d="" id="Path-14" stroke="#979797"></path>
            <path d="" id="Path-15" stroke="#979797"></path>
            <path d="" id="Path-16" stroke="#979797"></path>
            <path d="" id="Path-17" stroke="#979797"></path>
            <path d="M129.61498,58.4094724 C129.904598,58.0280252 130.229529,57.6183288 130.589785,57.1803708 C130.950041,56.7424129 131.324419,56.3344824 131.71293,55.9565671 C132.101441,55.5786518 132.48818,55.2643157 132.873159,55.0135495 C133.258138,54.7627832 133.620155,54.637402 133.959219,54.637402 C134.043985,54.637402 134.139345,54.6532954 134.245303,54.6850826 C134.35126,54.7168699 134.451918,54.7751457 134.54728,54.8599118 C134.642642,54.9446778 134.722109,55.0629953 134.785684,55.2148678 C134.849258,55.3667403 134.881045,55.5627589 134.881045,55.8029294 C134.881045,56.2832703 134.81394,56.7512425 134.679727,57.2068601 C134.545514,57.6624776 134.398941,58.1180883 134.240005,58.5737058 C134.081069,59.0293234 133.936262,59.4937637 133.805581,59.9670408 C133.6749,60.440318 133.609561,60.9347792 133.609561,61.4504393 C133.609561,61.7329928 133.651943,61.9590322 133.736709,62.1285644 C133.821475,62.2980965 133.930963,62.3828612 134.065176,62.3828612 C134.234708,62.3828612 134.414833,62.3475426 134.605557,62.2769042 C134.79628,62.2062658 134.987001,62.1144373 135.177725,62.0014159 C135.368448,61.8883945 135.555637,61.7594814 135.739297,61.6146727 C135.922957,61.4698641 136.096018,61.3197598 136.258486,61.1643553 C136.646997,60.8040996 137.028439,60.3944032 137.402822,59.9352537 L137.582949,62.7537109 C137.4558,62.8526046 137.2951,62.9762199 137.100845,63.1245605 C136.906589,63.2729011 136.691145,63.4300691 136.454507,63.5960693 C136.217868,63.7620695 135.961808,63.9298331 135.686318,64.0993652 C135.410829,64.2688973 135.133577,64.4190016 134.854556,64.5496826 C134.575534,64.6803636 134.296517,64.7880855 134.017495,64.8728516 C133.738474,64.9576176 133.471818,65 133.21752,65 C132.829008,65 132.491715,64.89581 132.20563,64.6874267 C131.919544,64.4790435 131.684675,64.2141536 131.501016,63.892749 C131.317356,63.5713444 131.179613,63.2199237 131.087783,62.8384765 C130.995953,62.4570293 130.950039,62.0967789 130.950039,61.7577147 C130.950039,61.5316719 130.98006,61.2791435 131.040102,61.0001219 C131.100145,60.7211003 131.174314,60.440317 131.262612,60.1577635 C131.35091,59.87521 131.449802,59.5997245 131.559292,59.3312986 C131.668781,59.0628728 131.771206,58.8227059 131.866567,58.6107908 C131.961929,58.3988757 132.044928,58.2258142 132.115566,58.0916013 C132.186205,57.9573884 132.232119,57.8796874 132.25331,57.8584958 L132.030801,57.8267087 C131.910715,57.9044109 131.707633,58.1021954 131.421548,58.4200681 C131.135462,58.7379408 130.812297,59.1388076 130.452041,59.6226805 C130.091785,60.1065534 129.719173,60.6504607 129.334194,61.2544188 C128.949215,61.8583769 128.601326,62.4817513 128.290517,63.1245605 C128.135113,63.4424332 128.007966,63.7196846 127.909072,63.9563232 C127.810178,64.1929618 127.713052,64.3872144 127.61769,64.5390869 C127.522328,64.6909594 127.418138,64.805745 127.305117,64.8834473 C127.192096,64.9611495 127.047289,65 126.870693,65 C126.637586,65 126.453929,64.9328945 126.319717,64.7986816 C126.185504,64.6644687 126.08308,64.4861095 126.012441,64.2635986 C125.941803,64.0410877 125.895889,63.7885593 125.874697,63.5060058 C125.853505,63.2234523 125.84291,62.9338393 125.84291,62.6371581 C125.84291,62.163881 125.848208,61.5440385 125.858803,60.7776122 C125.869399,60.0111858 125.902952,59.161772 125.959463,58.2293455 C126.015973,57.2969189 126.097206,56.3150602 126.203164,55.2837399 C126.309121,54.2524196 126.459226,53.2334763 126.653481,52.2268794 C126.847737,51.2202826 127.091435,50.2596151 127.384585,49.3448481 C127.677734,48.4300811 128.034452,47.6248157 128.454751,46.9290277 C128.875049,46.2332397 129.367744,45.6805027 129.932851,45.2708001 C130.497958,44.8610975 131.147822,44.6562493 131.882461,44.6562493 C132.263908,44.6562493 132.576478,44.7127591 132.820181,44.8257805 C133.063883,44.9388019 133.258136,45.0977359 133.402944,45.3025872 C133.547753,45.5074385 133.648411,45.7529032 133.704922,46.0389886 C133.761433,46.325074 133.789688,46.6447079 133.789688,46.9978998 C133.789688,47.5206237 133.715518,48.0998497 133.567178,48.7355951 C133.418837,49.3713405 133.222819,50.0317994 132.979116,50.7169917 C132.735414,51.4021839 132.458162,52.0961956 132.147353,52.7990474 C131.836545,53.5018993 131.518677,54.1835494 131.19374,54.8440182 C130.868804,55.504487 130.54917,56.1278613 130.234829,56.7141599 C129.920488,57.3004584 129.643237,57.8161108 129.403066,58.2611326 L129.61498,58.4094724 Z M130.557998,51.8613277 C130.974764,50.7805605 131.276739,49.8693391 131.463931,49.1276362 C131.651122,48.3859332 131.744717,47.838494 131.744717,47.4853021 C131.744717,46.9484505 131.674079,46.6800287 131.532803,46.6800287 C131.349143,46.6800287 131.077189,46.9802372 130.716933,47.5806635 C130.356678,48.1810897 129.932854,49.0534605 129.445449,50.1978022 C129.325364,50.5863133 129.21411,50.988946 129.111684,51.4057124 C129.009259,51.8224788 128.91743,52.2374731 128.836196,52.6507076 C128.754962,53.0639421 128.680793,53.4701066 128.613686,53.8692135 C128.54658,54.2683203 128.488304,54.6479959 128.438857,55.0082516 C128.318772,55.8488483 128.226943,56.671773 128.163369,57.4770505 C128.354093,57.0320287 128.562473,56.5481631 128.788515,56.0254391 C129.014558,55.5027152 129.237066,54.9852968 129.456045,54.4731686 C129.675024,53.9610403 129.881638,53.4771747 130.075893,53.0215572 C130.270149,52.5659397 130.430849,52.1792004 130.557998,51.8613277 L130.557998,51.8613277 Z M143.762246,62.7431152 C143.507948,62.9762218 143.191846,63.2252183 142.813931,63.4901123 C142.436016,63.7550062 142.028085,63.9987049 141.590127,64.2212158 C141.152169,64.4437267 140.705388,64.6291496 140.249771,64.7774902 C139.794153,64.9258308 139.3615,65 138.951797,65 C138.584477,65 138.275439,64.9487879 138.024673,64.8463623 C137.773907,64.7439367 137.570824,64.6008961 137.41542,64.4172363 C137.260016,64.2335765 137.148762,64.009303 137.081655,63.7444091 C137.014549,63.4795152 136.991384,63.1828581 136.991384,63.1828581 L137.6167,62.7007324 L137.41542,60.0000001 C137.41542,60.0000001 137.81629,58.2222848 137.98229,57.5936033 C138.14829,56.9649217 138.294863,56.3856957 138.422012,55.8559079 C138.471459,55.6722481 138.570351,55.5150801 138.718692,55.3843991 C138.867032,55.2537181 139.034796,55.1477621 139.221987,55.066528 C139.409179,54.9852938 139.603432,54.9252521 139.804751,54.886401 C140.006071,54.8475499 140.187962,54.8281246 140.35043,54.8281246 C140.647111,54.8281246 140.848427,54.8828686 140.954385,54.992358 C141.060343,55.1018475 141.113321,55.24842 141.113321,55.4320797 C141.113321,55.5874842 141.078002,55.8117577 141.007364,56.1049069 C140.936725,56.3980562 140.848428,56.7300516 140.742471,57.100903 C140.636513,57.4717545 140.523494,57.8708554 140.403408,58.2982175 C140.283323,58.7255797 140.170303,59.1529355 140.064346,59.5802977 C139.958388,60.0076598 139.870092,60.42442 139.799453,60.8305907 C139.728815,61.2367613 139.693496,61.6023095 139.693496,61.927246 C139.693496,62.2451187 139.728815,62.4976471 139.799453,62.6848388 C139.870092,62.8720305 140.014898,62.9656249 140.233877,62.9656249 C140.488175,62.9656249 140.770725,62.8773283 141.081533,62.7007323 C141.392342,62.5241364 141.706678,62.3104585 142.024551,62.0596923 C142.342424,61.808926 142.653228,61.5493339 142.956973,61.2809081 C143.260718,61.0124822 143.52914,60.782911 143.762246,60.5921873 L143.762246,62.7431152 Z M139.025967,51.850732 C139.025967,51.6882637 139.061286,51.5046067 139.131924,51.2997554 C139.202562,51.0949041 139.317348,50.9024174 139.476284,50.7222895 C139.635221,50.5421617 139.847133,50.3902914 140.112027,50.2666743 C140.37692,50.1430571 140.70715,50.0812495 141.102725,50.0812495 C141.349959,50.0812495 141.583062,50.1095044 141.802041,50.1660151 C142.02102,50.2225258 142.211741,50.3090565 142.374209,50.4256098 C142.536678,50.5421632 142.665591,50.6957993 142.760952,50.8865229 C142.856314,51.0772466 142.903994,51.303286 142.903994,51.564648 C142.903994,51.8048184 142.865144,52.0379216 142.787442,52.2639644 C142.709739,52.4900072 142.586124,52.6913236 142.416592,52.8679195 C142.24706,53.0445154 142.033382,53.187556 141.775552,53.2970455 C141.517722,53.406535 141.208684,53.4612789 140.848428,53.4612789 C140.22681,53.4612789 139.767668,53.3147065 139.470987,53.0215572 C139.174305,52.7284079 139.025967,52.3381368 139.025967,51.850732 L139.025967,51.850732 Z M146.561514,59.5749998 C146.632152,58.8474245 146.738108,58.096903 146.879385,57.3234128 C147.020662,56.5499226 147.183128,55.776444 147.366788,55.0029538 C147.550447,54.2294635 147.746466,53.4648146 147.954849,52.7089839 C148.163232,51.9531533 148.369846,51.2291208 148.574698,50.5368647 C148.779549,49.8446086 148.975568,49.1947453 149.162759,48.5872553 C149.349951,47.9797652 149.514183,47.432326 149.65546,46.9449212 C149.747289,46.605857 149.879734,46.3321374 150.052798,46.1237542 C150.225862,45.915371 150.418349,45.7529052 150.630264,45.6363519 C150.842179,45.5197985 151.066453,45.4403316 151.303091,45.3979485 C151.53973,45.3555655 151.767535,45.3343743 151.986514,45.3343743 C152.099536,45.3343743 152.205492,45.3485018 152.304385,45.3767571 C152.403279,45.4050125 152.488044,45.4562245 152.558682,45.5303948 C152.629321,45.6045651 152.684065,45.7069892 152.722916,45.8376702 C152.761767,45.9683512 152.781192,46.1361148 152.781192,46.3409661 C152.781192,46.4822429 152.772362,46.6358791 152.754703,46.8018792 C152.737043,46.9678794 152.707022,47.1568343 152.664639,47.3687494 C152.488043,48.1952184 152.258472,49.0234409 151.975919,49.8534419 C151.693365,50.6834428 151.354306,51.5752389 150.958731,52.528857 C150.563156,53.4824751 150.112843,54.5296733 149.607779,55.6704831 C149.102714,56.8112929 148.539382,58.1127854 147.917764,59.5749998 C147.903636,59.652702 147.866552,59.7251053 147.806509,59.7922117 C147.746467,59.8593182 147.674063,59.915828 147.589297,59.961743 C147.504531,60.0076579 147.412703,60.0429766 147.313809,60.0677 C147.214915,60.0924235 147.119555,60.104785 147.027725,60.104785 C146.893512,60.104785 146.778726,60.0765301 146.683365,60.0200194 C146.588003,59.9635087 146.540323,59.8681483 146.540323,59.7339354 C146.540323,59.6986162 146.547386,59.6456382 146.561514,59.5749998 L146.561514,59.5749998 Z M148.405166,63.0397949 C148.391039,63.0680502 148.378677,63.1351557 148.368082,63.2411132 C148.357486,63.3470708 148.332763,63.474218 148.293912,63.6225585 C148.255061,63.7708991 148.200317,63.9263012 148.129678,64.0887695 C148.05904,64.2512378 147.95485,64.4013421 147.817105,64.5390869 C147.67936,64.6768317 147.504533,64.7916174 147.292618,64.8834473 C147.080702,64.9752772 146.815813,65.0211914 146.49794,65.0211914 C146.236578,65.0211914 145.999943,64.9876387 145.788028,64.9205322 C145.576113,64.8534258 145.394222,64.7492357 145.242349,64.607959 C145.090476,64.4666822 144.972159,64.2865571 144.887393,64.0675781 C144.802627,63.8485991 144.760244,63.5872411 144.760244,63.283496 C144.760244,63.0291979 144.797329,62.7802013 144.871499,62.5364989 C144.94567,62.2927965 145.060455,62.0755868 145.21586,61.8848632 C145.371264,61.6941396 145.572581,61.5422693 145.819815,61.4292479 C146.067049,61.3162265 146.360194,61.2597167 146.699258,61.2597167 C147.250238,61.2597167 147.674061,61.408055 147.970743,61.7047362 C148.267424,62.0014174 148.415762,62.4252413 148.415762,62.9762206 C148.415762,63.004476 148.41223,63.0256672 148.405166,63.0397949 L148.405166,63.0397949 Z" id="hi!" fill="#4A4A4A"></path>
        </g>
    </g>
</svg>