<svg width="198" height="451" viewBox="0 0 198 451" version="1.1" xmlns="http://www.w3.org/2000/svg" xmlns:xlink="http://www.w3.org/1999/xlink" xmlns:figma="http://www.figma.com/figma/ns">
<title>Michael Holding</title>
<desc>Created using Figma</desc>
<g id="Canvas" transform="translate(-552 -1558)" figma:type="canvas">
<g id="Michael Holding" style="mix-blend-mode:normal;" figma:type="frame">
<g id="Body" style="mix-blend-mode:normal;" figma:type="frame">
<g id="Combined Shape" style="mix-blend-mode:normal;" figma:type="vector-operation">
<use xlink:href="#path0_fill" transform="translate(554.242 1741.15)" fill="#FAC27B" style="mix-blend-mode:normal;"/>
<use xlink:href="#path1_stroke" transform="translate(554.242 1741.15)" fill="#4A4A4A" style="mix-blend-mode:normal;"/>
</g>
</g>
<g id="Fill 3" style="mix-blend-mode:normal;" figma:type="vector">
<use xlink:href="#path2_fill" transform="translate(587.322 1782.01)" fill="#9A43E5" style="mix-blend-mode:normal;"/>
<use xlink:href="#path3_stroke" transform="translate(587.322 1782.01)" fill="#4A4A4A" style="mix-blend-mode:normal;"/>
</g>
<g id="Face" style="mix-blend-mode:normal;" figma:type="frame">
<g id="Fill 3" style="mix-blend-mode:normal;" figma:type="vector">
<use xlink:href="#path4_fill" transform="translate(578.905 1597.18)" fill="#FAC27B" style="mix-blend-mode:normal;"/>
<use xlink:href="#path5_stroke" transform="translate(578.905 1597.18)" fill="#4A4A4A" style="mix-blend-mode:normal;"/>
</g>
<g id="Combined Shape" style="mix-blend-mode:normal;" figma:type="vector">
<use xlink:href="#path6_fill" transform="translate(622.392 1679.65)" fill="#4A4A4A" style="mix-blend-mode:normal;"/>
</g>
<g id="Combined Shape" style="mix-blend-mode:normal;" figma:type="vector">
<use xlink:href="#path6_fill" transform="translate(681.31 1679.65)" fill="#4A4A4A" style="mix-blend-mode:normal;"/>
</g>
<g id="Line" style="mix-blend-mode:normal;" figma:type="vector">
<use xlink:href="#path7_stroke" transform="translate(650.448 1685.94)" fill="#4A4A4A" style="mix-blend-mode:normal;"/>
</g>
<g id="Line" style="mix-blend-mode:normal;" figma:type="vector">
<use xlink:href="#path8_stroke" transform="translate(710.769 1680.35)" fill="#4A4A4A" style="mix-blend-mode:normal;"/>
</g>
<g id="Line" style="mix-blend-mode:normal;" figma:type="vector">
<use xlink:href="#path9_stroke" transform="matrix(-1 0 0 1 613.975 1681.05)" fill="#4A4A4A" style="mix-blend-mode:normal;"/>
</g>
<g id="Oval 2" style="mix-blend-mode:normal;" figma:type="vector">
<use xlink:href="#path10_stroke" transform="translate(615.378 1672.66)" fill="#4A4A4A" style="mix-blend-mode:normal;"/>
</g>
<g id="Oval 2" style="mix-blend-mode:normal;" figma:type="vector">
<use xlink:href="#path11_stroke" transform="translate(674.296 1672.66)" fill="#4A4A4A" style="mix-blend-mode:normal;"/>
</g>
<g id="Combined Shape" style="mix-blend-mode:normal;" figma:type="vector-operation">
<use xlink:href="#path12_fill" transform="translate(570.488 1560.84)" fill="#F5AC33" style="mix-blend-mode:normal;"/>
<use xlink:href="#path13_stroke" transform="translate(570.488 1560.84)" fill="#4A4A4A" style="mix-blend-mode:normal;"/>
</g>
<g id="Fill 3" style="mix-blend-mode:normal;" figma:type="vector">
<use xlink:href="#path14_fill" transform="translate(637.823 1717.39)" fill="#D54D4C" style="mix-blend-mode:normal;"/>
</g>
</g>
</g>
</g>
<defs>
<path id="path0_fill" fill-rule="evenodd" d="M 102.804 -7.62939e-06C 98.3853 -7.62939e-06 94.8035 3.58178 94.8035 7.99999L 94.8035 28.0862C 62.7881 35.1631 38.6912 65.9861 38.6912 102.938L 0 145.371C 0 145.371 22.291 161.162 38.6912 145.371C 44.8741 139.418 51.3135 128.475 56.8233 119.111C 63.0747 108.487 68.1293 99.8971 70.2545 102.938C 72.8882 106.707 72.2423 137.474 71.553 170.312C 70.731 209.465 69.8472 251.563 74.387 254.356C 84.5611 260.613 96.3134 264.184 108.832 264.184L 152.176 264.184L 152.176 227.746C 161.108 219.174 178.972 196.946 178.972 176.61L 178.972 102.938C 178.972 65.9862 154.875 35.1631 122.86 28.0862L 122.86 7.99999C 122.86 3.58178 119.278 -7.62939e-06 114.86 -7.62939e-06L 102.804 -7.62939e-06Z"/>
<path id="path1_stroke" d="M 94.8035 28.0862L 95.2352 30.039C 96.1513 29.8365 96.8035 29.0244 96.8035 28.0862L 94.8035 28.0862ZM 38.6912 102.938L 40.1691 104.286C 40.505 103.917 40.6912 103.437 40.6912 102.938L 38.6912 102.938ZM 0 145.371L -1.47788 144.024C -1.86407 144.447 -2.04998 145.016 -1.98844 145.586C -1.92689 146.156 -1.62381 146.672 -1.15609 147.003L 0 145.371ZM 38.6912 145.371L 40.0784 146.812L 40.0784 146.812L 38.6912 145.371ZM 56.8233 119.111L 58.547 120.125L 58.547 120.125L 56.8233 119.111ZM 70.2545 102.938L 71.8938 101.792L 71.8938 101.792L 70.2545 102.938ZM 71.553 170.312L 73.5525 170.354L 73.5525 170.354L 71.553 170.312ZM 74.387 254.356L 75.4348 252.652L 75.4348 252.652L 74.387 254.356ZM 152.176 264.184L 152.176 266.184C 153.281 266.184 154.176 265.289 154.176 264.184L 152.176 264.184ZM 152.176 227.746L 150.791 226.303C 150.398 226.681 150.176 227.202 150.176 227.746L 152.176 227.746ZM 122.86 28.0862L 120.86 28.0862C 120.86 29.0244 121.512 29.8365 122.428 30.039L 122.86 28.0862ZM 96.8035 7.99999C 96.8035 4.68634 99.4898 1.99999 102.804 1.99999L 102.804 -2.00001C 97.2807 -2.00001 92.8035 2.47722 92.8035 7.99999L 96.8035 7.99999ZM 96.8035 28.0862L 96.8035 7.99999L 92.8035 7.99999L 92.8035 28.0862L 96.8035 28.0862ZM 94.3719 26.1333C 61.3504 33.4326 36.6912 65.1431 36.6912 102.938L 40.6912 102.938C 40.6912 66.8291 64.2257 36.8936 95.2352 30.039L 94.3719 26.1333ZM 37.2133 101.591L -1.47788 144.024L 1.47788 146.719L 40.1691 104.286L 37.2133 101.591ZM 0 145.371C -1.15609 147.003 -1.15535 147.004 -1.15452 147.004C -1.15414 147.005 -1.15322 147.005 -1.15245 147.006C -1.15133 147.007 -1.14899 147.008 -1.14675 147.01C -1.14316 147.012 -1.13643 147.017 -1.12925 147.022C -1.11667 147.031 -1.09507 147.046 -1.07005 147.063C -1.02361 147.095 -0.948468 147.146 -0.857026 147.208C -0.681602 147.325 -0.408464 147.503 -0.0700761 147.715C 0.590768 148.128 1.58986 148.721 2.80839 149.362C 5.21001 150.624 8.72171 152.193 12.6942 153.229C 20.7035 155.303 31.1962 155.364 40.0784 146.812L 37.304 143.931C 29.786 151.169 20.9332 151.23 13.6969 149.357C 10.0466 148.419 6.96051 147.027 4.67005 145.822C 3.54255 145.23 2.67203 144.712 2.04977 144.323C 1.74661 144.134 1.52482 143.988 1.36571 143.882C 1.28988 143.831 1.23785 143.796 1.19894 143.769C 1.18128 143.757 1.17066 143.749 1.16169 143.743C 1.15809 143.741 1.15671 143.74 1.15489 143.738C 1.15442 143.738 1.15424 143.738 1.15448 143.738C 1.15458 143.738 1.15498 143.739 1.15503 143.739C 1.15552 143.739 1.15609 143.739 0 145.371ZM 40.0784 146.812C 46.5055 140.624 53.0955 129.39 58.547 120.125L 55.0996 118.097C 49.5315 127.559 43.2428 138.213 37.304 143.931L 40.0784 146.812ZM 58.547 120.125C 61.6727 114.813 64.4412 110.103 66.6889 107.097C 67.8342 105.562 68.6713 104.713 69.1979 104.384C 69.448 104.228 69.3918 104.341 69.1245 104.314C 68.7632 104.278 68.5971 104.058 68.6151 104.084L 71.8938 101.792C 71.3805 101.058 70.5916 100.441 69.5227 100.334C 68.5477 100.237 67.6992 100.604 67.0788 100.992C 65.8646 101.75 64.6489 103.143 63.4835 104.704C 61.1098 107.889 58.2253 112.785 55.0996 118.097L 58.547 120.125ZM 68.6151 104.084C 68.5523 104.01 68.7012 104.225 68.8044 104.56C 68.9228 104.929 69.021 105.347 69.1278 105.93C 69.3497 107.13 69.5249 108.664 69.6712 110.589C 69.9672 114.468 70.1094 119.624 70.1499 125.737C 70.2315 137.977 69.8981 153.851 69.5534 170.27L 73.5525 170.354C 73.8972 153.935 74.2314 138.006 74.1498 125.711C 74.1088 119.556 73.9618 114.261 73.6596 110.286C 73.5069 108.284 73.3059 106.539 73.0617 105.206C 72.8294 103.945 72.4972 102.656 71.8938 101.792L 68.6151 104.084ZM 69.5534 170.27C 69.1424 189.846 68.7156 210.196 68.9596 226C 69.0821 233.911 69.3765 240.752 69.9253 245.77C 70.2033 248.299 70.5656 250.481 70.9989 252.076C 71.2262 252.901 71.5225 253.711 71.82 254.297C 72.133 254.905 72.604 255.607 73.3392 256.059L 75.4348 252.652C 75.6026 252.755 75.5485 252.801 75.3761 252.466C 75.1882 252.11 75.0387 251.691 74.8573 251.021C 74.4733 249.626 74.1662 247.755 73.9015 245.334C 73.3649 240.449 73.0804 233.795 72.9591 225.938C 72.7156 210.207 73.1416 189.93 73.5525 170.354L 69.5534 170.27ZM 73.3392 256.059C 83.7397 262.437 96.0194 266.163 108.832 266.184L 108.832 262.184C 96.6073 262.206 85.3825 258.79 75.4348 252.652L 73.3392 256.059ZM 108.832 266.184L 152.176 266.184L 152.176 262.184L 108.832 262.184L 108.832 266.184ZM 154.176 264.184L 154.176 227.746L 150.176 227.746L 150.176 264.184L 154.176 264.184ZM 153.561 229.189C 158.09 224.84 164.955 216.941 170.632 207.63C 176.292 198.331 180.972 187.314 180.972 176.61L 176.972 176.61C 176.972 186.242 172.72 196.507 167.215 205.55C 161.727 214.58 155.194 222.081 150.791 226.303L 153.561 229.189ZM 180.972 176.61L 180.972 102.938L 176.972 102.938L 176.972 176.61L 180.972 176.61ZM 180.972 102.938C 180.972 65.1432 156.313 33.4326 123.291 26.1333L 122.428 30.039C 153.437 36.8936 176.972 66.8292 176.972 102.938L 180.972 102.938ZM 120.86 7.99999L 120.86 28.0862L 124.86 28.0862L 124.86 7.99999L 120.86 7.99999ZM 114.86 1.99999C 118.173 1.99999 120.86 4.68634 120.86 7.99999L 124.86 7.99999C 124.86 2.47722 120.383 -2.00001 114.86 -2.00001L 114.86 1.99999ZM 102.804 1.99999L 114.86 1.99999L 114.86 -2.00001L 102.804 -2.00001L 102.804 1.99999Z"/>
<path id="path2_fill" fill-rule="evenodd" d="M 30.3006 62.0839L 0 62.0839C 0 39.0162 10.1419 17.9189 26.175 3.53509C 39.4613 -8.38445 58.3081 13.66 77.2666 13.66C 96.2876 13.66 112.156 -8.33616 125.46 3.65317C 141.417 18.0342 151.503 39.0792 151.503 62.0839L 121.203 62.0839L 121.203 223.829C 121.203 223.829 117.588 223.33 75.7516 223.33C 33.9151 223.33 30.3006 223.829 30.3006 223.829L 30.3006 62.0839Z"/>
<path id="path3_stroke" d="M 30.3006 62.0839L 32.3006 62.0839L 32.3006 60.0839L 30.3006 60.0839L 30.3006 62.0839ZM 0 62.0839L -2 62.0839L -2 64.0839L 0 64.0839L 0 62.0839ZM 26.175 3.53509L 24.8394 2.04638L 26.175 3.53509ZM 125.46 3.65317L 124.121 5.13885L 125.46 3.65317ZM 151.503 62.0839L 151.503 64.0839L 153.503 64.0839L 153.503 62.0839L 151.503 62.0839ZM 121.203 62.0839L 121.203 60.0839L 119.203 60.0839L 119.203 62.0839L 121.203 62.0839ZM 121.203 223.829L 120.929 225.811L 123.203 226.125L 123.203 223.829L 121.203 223.829ZM 30.3006 223.829L 28.3006 223.829L 28.3006 226.125L 30.5743 225.811L 30.3006 223.829ZM 30.3006 60.0839L 0 60.0839L 0 64.0839L 30.3006 64.0839L 30.3006 60.0839ZM 2 62.0839C 2 39.6075 11.8827 19.044 27.5105 5.0238L 24.8394 2.04638C 8.40107 16.7937 -2 38.4248 -2 62.0839L 2 62.0839ZM 27.5105 5.0238C 33.0863 0.0216414 39.8895 1.86555 48.758 5.94474C 57.182 9.81952 67.2171 15.66 77.2666 15.66L 77.2666 11.66C 68.3577 11.66 59.4901 6.47832 50.4295 2.31074C 41.8133 -1.65243 32.55 -4.871 24.8394 2.04638L 27.5105 5.0238ZM 77.2666 15.66C 87.386 15.66 96.6953 9.79932 104.401 5.94977C 108.349 3.9762 111.835 2.47163 115.197 2.14824C 118.325 1.82632 121.241 2.54355 124.121 5.13885L 126.798 2.16749C 123.027 -1.23188 118.97 -2.26111 114.787 -1.83075C 110.837 -1.40185 106.673 0.344632 102.613 2.37145C 94.3038 6.52267 86.1682 11.66 77.2666 11.66L 77.2666 15.66ZM 124.121 5.13885C 139.674 19.1565 149.503 39.6689 149.503 62.0839L 153.503 62.0839C 153.503 38.4895 143.159 16.912 126.798 2.16749L 124.121 5.13885ZM 151.503 60.0839L 121.203 60.0839L 121.203 64.0839L 151.503 64.0839L 151.503 60.0839ZM 119.203 62.0839L 119.203 223.829L 123.203 223.829L 123.203 62.0839L 119.203 62.0839ZM 121.203 223.829C 121.476 221.848 121.475 221.848 121.473 221.848C 121.473 221.848 121.471 221.848 121.47 221.847C 121.469 221.847 121.466 221.847 121.464 221.847C 121.461 221.846 121.455 221.845 121.451 221.845C 121.445 221.844 121.433 221.843 121.422 221.841C 121.408 221.84 121.379 221.837 121.35 221.834C 121.304 221.829 121.221 221.822 121.116 221.814C 120.924 221.799 120.591 221.778 120.078 221.754C 119.074 221.706 117.288 221.643 114.206 221.58C 108.064 221.455 96.6808 221.33 75.7516 221.33L 75.7516 225.33C 96.6588 225.33 108.001 225.455 114.125 225.579C 117.177 225.641 118.909 225.703 119.89 225.749C 120.369 225.772 120.646 225.789 120.815 225.802C 120.89 225.808 120.926 225.811 120.953 225.814C 120.961 225.815 120.962 225.815 120.96 225.815C 120.962 225.815 120.947 225.813 120.949 225.813C 120.951 225.814 120.938 225.812 120.94 225.812C 120.942 225.812 120.934 225.811 120.935 225.811C 120.934 225.811 120.932 225.811 120.932 225.811C 120.93 225.811 120.929 225.811 121.203 223.829ZM 75.7516 221.33C 54.8224 221.33 43.4393 221.455 37.2967 221.58C 34.215 221.643 32.4291 221.706 31.4249 221.754C 30.9118 221.778 30.5789 221.799 30.3868 221.814C 30.2818 221.822 30.1988 221.829 30.1531 221.834C 30.1242 221.837 30.0951 221.84 30.081 221.841C 30.0705 221.843 30.0577 221.844 30.0524 221.845C 30.0478 221.845 30.0417 221.846 30.0393 221.847C 30.0372 221.847 30.0342 221.847 30.0331 221.847C 30.032 221.848 30.0305 221.848 30.03 221.848C 30.0285 221.848 30.0269 221.848 30.3006 223.829C 30.5743 225.811 30.5728 225.811 30.5714 225.811C 30.5709 225.811 30.5694 225.811 30.5685 225.811C 30.5694 225.811 30.5616 225.812 30.5633 225.812C 30.5647 225.812 30.5518 225.814 30.5544 225.813C 30.556 225.813 30.5411 225.815 30.5435 225.815C 30.5413 225.815 30.542 225.815 30.5498 225.814C 30.5775 225.811 30.6129 225.808 30.6885 225.802C 30.8575 225.789 31.1338 225.772 31.6133 225.749C 32.5942 225.703 34.3267 225.641 37.3781 225.579C 43.502 225.455 54.8443 225.33 75.7516 225.33L 75.7516 221.33ZM 32.3006 223.829L 32.3006 62.0839L 28.3006 62.0839L 28.3006 223.829L 32.3006 223.829Z"/>
<path id="path4_fill" fill-rule="evenodd" d="M 0 48.7562C 0 7.17332 37.6835 0 84.1684 0C 130.653 0 168.337 7.17332 168.337 48.7562L 168.337 84.0567C 168.337 125.64 130.653 159.349 84.1682 159.349C 37.6835 159.349 0 125.639 0 84.0565L 0 48.7562Z"/>
<path id="path5_stroke" d="M 168.337 48.7562L 170.337 48.7562L 170.337 48.7562L 168.337 48.7562ZM 168.337 84.0567L 166.337 84.0567L 166.337 84.0567L 168.337 84.0567ZM 84.1682 159.349L 84.1681 161.349L 84.1682 161.349L 84.1682 159.349ZM 2 48.7562C 1.98068 38.6378 4.17444 30.9463 8.28878 24.6891C 12.3449 18.4298 18.0747 13.9896 25.4867 10.6022C 40.2874 3.80871 60.9386 2 84.1684 2L 84.1684 -2C 60.9132 -2 39.4803 -0.222055 23.818 6.96685C 15.9985 10.5706 9.40215 15.7205 4.93996 22.5015C 0.535989 29.2845 -1.98068 38.0832 -2 48.7562L 2 48.7562ZM 84.1684 2C 107.398 2 128.049 3.80871 142.85 10.6022C 150.262 13.9896 155.992 18.4298 160.048 24.6891C 164.162 30.9463 166.356 38.6378 166.337 48.7562L 170.337 48.7562C 170.318 38.0832 167.801 29.2845 163.397 22.5015C 158.935 15.7205 152.338 10.5706 144.519 6.96685C 128.857 -0.222055 107.424 -2 84.1684 -2L 84.1684 2ZM 166.337 48.7562L 166.337 84.0567L 170.337 84.0568L 170.337 48.7562L 166.337 48.7562ZM 166.337 84.0567C 166.337 124.331 129.764 157.349 84.1682 157.349L 84.1682 161.349C 131.542 161.349 170.337 126.948 170.337 84.0567L 166.337 84.0567ZM 84.1682 157.349C 38.5726 157.349 2 124.331 2 84.0565L -2 84.0565C -2 126.948 36.7943 161.349 84.1681 161.349L 84.1682 157.349ZM 2 84.0565L 2 48.7562L -2 48.7562L -2 84.0565L 2 84.0565Z"/>
<path id="path6_fill" fill-rule="evenodd" d="M 9.81965 19.5692C 15.2429 19.5692 19.6393 15.1885 19.6393 9.78461C 19.6393 4.38072 15.2429 0 9.81965 0C 4.39641 0 0 4.38072 0 9.78461C 0 15.1885 4.39641 19.5692 9.81965 19.5692Z"/>
<path id="path7_stroke" d="M -0.362581 -0.0577181L -1.8181 0.304863L -1.09294 3.2159L 0.362581 2.85332L -0.362581 -0.0577181ZM 22.0823 2.85332L 23.5378 3.2159L 24.263 0.304863L 22.8075 -0.0577181L 22.0823 2.85332ZM 0 1.3978C 0.362581 2.85332 0.362436 2.85336 0.362312 2.85339C 0.362299 2.85339 0.362196 2.85342 0.362169 2.85342C 0.36211 2.85344 0.362149 2.85343 0.362267 2.8534C 0.362724 2.85328 0.363071 2.8532 0.363979 2.85297C 0.366244 2.85241 0.368943 2.85175 0.373423 2.85065C 0.383285 2.84823 0.396574 2.84499 0.415924 2.84033C 0.456464 2.83055 0.513559 2.81695 0.591757 2.79877C 0.751957 2.76152 0.979834 2.70989 1.27765 2.64633C 1.88136 2.51739 2.7244 2.34922 3.75276 2.17863C 5.82684 1.83387 8.50972 1.49712 11.2225 1.5L 11.2225 -1.5C 8.32396 -1.49712 5.39561 -1.13497 3.26128 -0.780833C 2.18542 -0.601968 1.27496 -0.420687 0.651209 -0.287539C 0.335297 -0.220056 0.08096 -0.162481 -0.0876237 -0.123292C -0.173816 -0.103246 -0.242756 -0.0868238 -0.287151 -0.0761227C -0.310268 -0.0705485 -0.329173 -0.0659402 -0.340887 -0.063069C -0.347196 -0.061522 -0.352631 -0.0601825 -0.355803 -0.0593987C -0.357613 -0.0589512 -0.35931 -0.0585307 -0.360217 -0.0583057C -0.360782 -0.0581655 -0.361374 -0.0580185 -0.361656 -0.0579482C -0.361853 -0.0578992 -0.362085 -0.0578417 -0.362183 -0.0578172C -0.362393 -0.057765 -0.362581 -0.0577181 0 1.3978ZM 11.2225 1.5C 13.9352 1.49712 16.6181 1.83387 18.6922 2.17863C 19.7205 2.34922 20.5636 2.51739 21.1673 2.64633C 21.4651 2.70989 21.693 2.76152 21.8532 2.79877C 21.9314 2.81695 21.9884 2.83055 22.029 2.84033C 22.0483 2.84499 22.0616 2.84823 22.0715 2.85065C 22.076 2.85175 22.0787 2.85241 22.0809 2.85297C 22.0818 2.8532 22.0822 2.85328 22.0826 2.8534C 22.0828 2.85343 22.0828 2.85344 22.0827 2.85342C 22.0827 2.85342 22.0826 2.85339 22.0826 2.85339C 22.0825 2.85336 22.0823 2.85332 22.4449 1.3978C 22.8075 -0.0577181 22.8073 -0.057765 22.8071 -0.0578172C 22.807 -0.0578417 22.8068 -0.0578992 22.8066 -0.0579482C 22.8063 -0.0580185 22.8057 -0.0581655 22.8051 -0.0583057C 22.8042 -0.0585307 22.8025 -0.0589512 22.8007 -0.0593987C 22.7975 -0.0601825 22.7921 -0.061522 22.7858 -0.063069C 22.7741 -0.0659402 22.7552 -0.0705485 22.7321 -0.0761227C 22.6877 -0.0868238 22.6187 -0.103246 22.5325 -0.123292C 22.364 -0.162481 22.1096 -0.220056 21.7937 -0.287539C 21.17 -0.420687 20.2595 -0.601968 19.1836 -0.780833C 17.0493 -1.13497 14.1209 -1.49712 11.2225 -1.5L 11.2225 1.5Z"/>
<path id="path8_stroke" d="M -0.0169872 3.79016L -2.51693 3.80715L -2.48295 8.80703L 0.0169872 8.79004L -0.0169872 3.79016ZM 25.2505 4.8923L 24.8005 2.43315L 25.2505 4.8923ZM 36.0211 1.87614L 37.8972 0.223836L 34.5926 -3.52844L 32.7165 -1.87614L 36.0211 1.87614ZM 0 6.2901C 0.0169872 8.79004 0.017139 8.79004 0.0173603 8.79004C 0.017527 8.79004 0.0178181 8.79004 0.0181511 8.79004C 0.0187626 8.79003 0.0197616 8.79003 0.0209813 8.79002C 0.0233108 8.79 0.0269655 8.78998 0.0315978 8.78994C 0.0406413 8.78988 0.054493 8.78977 0.0723598 8.78963C 0.107646 8.78935 0.160843 8.78891 0.229631 8.78829C 0.366292 8.78706 0.569256 8.78508 0.828222 8.78211C 1.34423 8.7762 2.09326 8.76627 3.01012 8.75041C 4.83973 8.71875 7.36575 8.66288 10.1032 8.56724C 15.5715 8.37596 22.0661 8.01162 25.7006 7.35146L 24.8005 2.43315C 21.4766 3.04649 15.346 3.38105 9.92854 3.57029C 7.22317 3.66491 4.74125 3.71972 2.92363 3.75116C 2.01688 3.76685 1.28246 3.77658 0.770942 3.78244C 0.516141 3.78536 0.319314 3.78729 0.184625 3.7885C 0.117739 3.7891 0.0673721 3.78951 0.0330127 3.78978C 0.0160567 3.78992 0.0035653 3.79001 -0.00502862 3.79008C -0.00921511 3.79011 -0.0122026 3.79013 -0.0143107 3.79014C -0.0153099 3.79015 -0.0159785 3.79015 -0.01648 3.79016C -0.0167034 3.79016 -0.0168301 3.79016 -0.016942 3.79016C -0.0169994 3.79016 -0.0169872 3.79016 0 6.2901ZM 25.7006 7.35146C 28.3255 6.8403 31.0541 5.40803 32.8622 4.23138C 33.7848 3.62812 34.5903 3.03002 35.1182 2.61676C 35.3911 2.40281 35.6196 2.21583 35.7642 2.09512C 35.8406 2.03126 35.9054 1.97611 35.9445 1.94252C 35.9661 1.92403 35.9853 1.90733 35.9962 1.89789C 36.0026 1.89233 36.0088 1.88687 36.012 1.88407C 36.0141 1.88226 36.0164 1.88027 36.0174 1.87936C 36.0182 1.8787 36.0191 1.87789 36.0195 1.87756C 36.0198 1.87729 36.0202 1.87694 36.0203 1.8768C 36.0207 1.87646 36.0211 1.87614 34.3688 0C 32.7165 -1.87614 32.7168 -1.87643 32.7171 -1.87671C 32.7172 -1.87678 32.7175 -1.87705 32.7177 -1.87719C 32.7176 -1.87711 32.7186 -1.87805 32.7184 -1.87788C 32.7185 -1.87795 32.7189 -1.87831 32.7188 -1.87817C 32.7175 -1.87705 32.7171 -1.87666 32.7146 -1.8745C 32.7077 -1.86849 32.7004 -1.86223 32.687 -1.85072C 32.6563 -1.82431 32.6175 -1.79123 32.5587 -1.74221C 32.433 -1.63718 32.2655 -1.49983 32.035 -1.31944C 31.556 -0.94402 30.9252 -0.473393 30.1305 0.0435276C 28.504 1.10723 26.6735 2.12111 24.8005 2.43315L 25.7006 7.35146Z"/>
<path id="path9_stroke" d="M 0.085005 3.09265L -2.41355 3.00764L -2.58356 8.00475L -0.085005 8.08976L 0.085005 3.09265ZM 23.8477 4.8923L 23.3976 2.43315L 23.8477 4.8923ZM 34.6183 1.87614L 36.4944 0.223836L 33.1898 -3.52844L 31.3137 -1.87614L 34.6183 1.87614ZM 0 5.5912C -0.085005 8.08976 -0.0848314 8.08976 -0.0845936 8.08977C -0.0844285 8.08978 -0.0841262 8.08979 -0.0837962 8.0898C -0.0832092 8.08982 -0.0822193 8.08985 -0.0810481 8.08989C -0.0788517 8.08996 -0.0753407 8.09008 -0.0709717 8.09023C -0.0625281 8.09051 -0.0494574 8.09094 -0.0327671 8.09149C 1.79146e-05 8.09255 0.049743 8.09415 0.113708 8.09614C 0.240419 8.10008 0.42932 8.10575 0.669789 8.11244C 1.14817 8.12574 1.84476 8.14345 2.69751 8.16058C 4.39751 8.1947 6.75503 8.22705 9.3221 8.21931C 14.447 8.20345 20.6309 8.01525 24.2978 7.35146L 23.3976 2.43315C 20.1061 3.04286 14.3662 3.20411 9.30685 3.21933C 6.78179 3.22712 4.48207 3.19541 2.79787 3.16159C 1.95851 3.14475 1.28125 3.12752 0.808821 3.11437C 0.573882 3.10784 0.39313 3.10241 0.26904 3.09855C 0.207605 3.09664 0.161643 3.09517 0.130091 3.09414C 0.114613 3.09363 0.103353 3.09326 0.0955074 3.093C 0.0917319 3.09287 0.089109 3.09279 0.0872075 3.09272C 0.0863299 3.09269 0.0857799 3.09267 0.0853393 3.09266C 0.0851554 3.09265 0.085072 3.09265 0.0849798 3.09265C 0.0849603 3.09265 0.085005 3.09265 0 5.5912ZM 24.2978 7.35146C 26.9227 6.8403 29.6513 5.40803 31.4594 4.23138C 32.382 3.62812 33.1875 3.03002 33.7154 2.61676C 33.9883 2.40281 34.2168 2.21583 34.3614 2.09512C 34.4378 2.03126 34.5026 1.97611 34.5417 1.94252C 34.5633 1.92403 34.5825 1.90733 34.5934 1.89789C 34.5998 1.89233 34.606 1.88687 34.6092 1.88407C 34.6113 1.88226 34.6136 1.88027 34.6146 1.87936C 34.6154 1.8787 34.6163 1.87789 34.6166 1.87756C 34.617 1.87729 34.6174 1.87694 34.6175 1.8768C 34.6179 1.87646 34.6183 1.87614 32.966 0C 31.3137 -1.87614 31.314 -1.87643 31.3143 -1.87671C 31.3144 -1.87678 31.3147 -1.87705 31.3149 -1.87719C 31.3148 -1.87711 31.3158 -1.87804 31.3156 -1.87788C 31.3157 -1.87795 31.3161 -1.87831 31.316 -1.87817C 31.3147 -1.87705 31.3142 -1.87666 31.3118 -1.8745C 31.3049 -1.86849 31.2976 -1.86223 31.2842 -1.85072C 31.2535 -1.82431 31.2146 -1.79123 31.1559 -1.74221C 31.0302 -1.63718 30.8627 -1.49983 30.6321 -1.31944C 30.1532 -0.94402 29.5224 -0.473393 28.7277 0.0435278C 27.1012 1.10723 25.2707 2.12111 23.3976 2.43315L 24.2978 7.35146Z"/>
<path id="path10_stroke" d="M 6.92971 3.20882L 6.04833 1.99508L 6.92971 3.20882ZM 16.8337 35.0472C 26.954 35.0472 35.1674 26.8709 35.1674 16.7736L 32.1674 16.7736C 32.1674 25.2039 25.3073 32.0472 16.8337 32.0472L 16.8337 35.0472ZM 35.1674 16.7736C 35.1674 6.67632 26.954 -1.5 16.8337 -1.5L 16.8337 1.5C 25.3073 1.5 32.1674 8.34328 32.1674 16.7736L 35.1674 16.7736ZM 16.8337 -1.5C 12.8818 -1.47903 9.01422 -0.138762 6.04833 1.99508L 7.81109 4.42256C 10.4034 2.52024 13.3816 1.47903 16.8337 1.5L 16.8337 -1.5ZM 6.04833 1.99508C 1.4774 5.31434 -1.5 10.6967 -1.5 16.7736L 1.5 16.7736C 1.5 11.7005 3.98175 7.2033 7.81109 4.42256L 6.04833 1.99508ZM -1.5 16.7736C -1.5 26.8709 6.71333 35.0472 16.8337 35.0472L 16.8337 32.0472C 8.36006 32.0472 1.5 25.2039 1.5 16.7736L -1.5 16.7736Z"/>
<path id="path11_stroke" d="M 16.8337 35.0472C 26.954 35.0472 35.1674 26.8709 35.1674 16.7736L 32.1674 16.7736C 32.1674 25.2039 25.3073 32.0472 16.8337 32.0472L 16.8337 35.0472ZM 35.1674 16.7736C 35.1674 6.67632 26.954 -1.5 16.8337 -1.5L 16.8337 1.5C 25.3073 1.5 32.1674 8.34328 32.1674 16.7736L 35.1674 16.7736ZM 16.8337 -1.5C 6.71333 -1.5 -1.5 6.67632 -1.5 16.7736L 1.5 16.7736C 1.5 8.34328 8.36006 1.5 16.8337 1.5L 16.8337 -1.5ZM -1.5 16.7736C -1.5 26.8709 6.71333 35.0472 16.8337 35.0472L 16.8337 32.0472C 8.36006 32.0472 1.5 25.2039 1.5 16.7736L -1.5 16.7736Z"/>
<path id="path12_fill" fill-rule="evenodd" d="M 145.417 28.3738L 47.2111 28.3738L 47.0867 0C 30.3567 0.020874 14.8912 8.60449 6.44677 22.5557C -2.22327 36.8794 -2.14314 54.6244 6.65606 68.8745C 13.0821 79.2814 23.4281 86.6373 35.2553 89.6161L 47.4819 90.1582L 162.726 90.1582L 162.726 110.426L 176.754 110.426L 176.754 90.1582L 176.754 89.4591L 176.754 59.266C 176.754 42.2046 162.724 28.3738 145.417 28.3738Z"/>
<path id="path13_stroke" d="M 47.2111 28.3738L 45.2111 28.3825L 45.2198 30.3738L 47.2111 30.3738L 47.2111 28.3738ZM 47.0867 0L 49.0866 -0.00876785L 49.0779 -2.00249L 47.0842 -2L 47.0867 0ZM 6.44677 22.5557L 8.15775 23.5913L 8.15775 23.5913L 6.44677 22.5557ZM 6.65606 68.8745L 4.95434 69.9253L 4.95434 69.9253L 6.65606 68.8745ZM 35.2553 89.6161L 34.7668 91.5555L 34.9638 91.6051L 35.1667 91.6141L 35.2553 89.6161ZM 47.4819 90.1582L 47.3933 92.1562L 47.4376 92.1582L 47.4819 92.1582L 47.4819 90.1582ZM 162.726 90.1582L 164.726 90.1582L 164.726 88.1582L 162.726 88.1582L 162.726 90.1582ZM 162.726 110.426L 160.726 110.426L 160.726 112.426L 162.726 112.426L 162.726 110.426ZM 176.754 110.426L 176.754 112.426L 178.754 112.426L 178.754 110.426L 176.754 110.426ZM 176.754 90.1582L 174.754 90.158L 174.754 90.1582L 176.754 90.1582ZM 176.754 89.4591L 178.754 89.4593L 178.754 89.4591L 176.754 89.4591ZM 176.754 59.266L 174.754 59.266L 174.754 59.266L 176.754 59.266ZM 47.2111 30.3738L 145.417 30.3738L 145.417 26.3738L 47.2111 26.3738L 47.2111 30.3738ZM 45.0867 0.00876785L 45.2111 28.3825L 49.211 28.365L 49.0866 -0.00876785L 45.0867 0.00876785ZM 8.15775 23.5913C 16.2289 10.2567 31.0359 2.02003 47.0892 2L 47.0842 -2C 29.6775 -1.97828 13.5534 6.95228 4.73578 21.52L 8.15775 23.5913ZM 8.35778 67.8237C -0.0471992 54.212 -0.123499 37.2727 8.15775 23.5913L 4.73579 21.52C -4.32305 36.4861 -4.23907 55.0367 4.95434 69.9253L 8.35778 67.8237ZM 35.7438 87.6767C 24.4009 84.8199 14.4997 77.7704 8.35778 67.8237L 4.95434 69.9253C 11.6646 80.7924 22.4552 88.4548 34.7668 91.5555L 35.7438 87.6767ZM 47.5705 88.1602L 35.3439 87.618L 35.1667 91.6141L 47.3933 92.1562L 47.5705 88.1602ZM 162.726 88.1582L 47.4819 88.1582L 47.4819 92.1582L 162.726 92.1582L 162.726 88.1582ZM 164.726 110.426L 164.726 90.1582L 160.726 90.1582L 160.726 110.426L 164.726 110.426ZM 176.754 108.426L 162.726 108.426L 162.726 112.426L 176.754 112.426L 176.754 108.426ZM 174.754 90.1582L 174.754 110.426L 178.754 110.426L 178.754 90.1582L 174.754 90.1582ZM 174.754 89.4589L 174.754 90.158L 178.754 90.1584L 178.754 89.4593L 174.754 89.4589ZM 174.754 59.266L 174.754 89.4591L 178.754 89.4591L 178.754 59.266L 174.754 59.266ZM 145.417 30.3738C 161.646 30.3738 174.754 43.336 174.754 59.266L 178.754 59.266C 178.754 41.0732 163.801 26.3738 145.417 26.3738L 145.417 30.3738Z"/>
<path id="path14_fill" fill-rule="evenodd" d="M 1.14165 0C 3.61436 0 46.8867 1.16081e-16 49.3594 0C 51.8321 0 49.518 4.86013 49.518 4.86013C 44.2587 13.7346 35.3524 19.5692 25.2505 19.5692C 15.1488 19.5692 6.24234 13.7346 0.983078 4.86013C 0.983078 4.86013 -1.33105 0 1.14165 0Z"/>
</defs>
</svg>
