<?xml version='1.0' encoding='utf-8'?>
<svg xmlns="http://www.w3.org/2000/svg" version="1.1" width="600px" height="976px" viewBox="0 0 600 976"> <g id="layer1"> <g style="fill:rgb(0,0,0); fill-opacity:1.0; stroke-linejoin: miter"> <path d="M-129.79898,-49.98718C-126.31661,-49.98718,-122.98247,-49.56768,-119.98537,-48.696953C-113.17965,-46.694023,-100.332985,-39.763615,-88.67541,-31.814896C-86.104614,-30.035112,-83.115776,-28.077837,-82.03997,-27.42574C-80.90454,-26.774128,-78.87201,-25.409872,-77.43713,-24.401085C-66.13729,-16.451147,-55.858128,-10.405501,-48.213486,-7.2726936C-38.956177,-3.4301705,-28.019732,2.9709427,-26.459982,5.5295324C-26.220358,5.826895,-24.36776,6.893544,-22.277126,7.840076C-16.900974,10.325179,-13.25419,12.81663,-9.184373,16.857151C-4.8751755,21.135221,0.50732344,25.349813,2.5369835,25.93868C4.3279963,26.468952,7.6729007,27.94771,14.183999,30.965528C24.568642,35.81313,26.96299,36.88056,27.502632,36.88056C27.503126,36.88056,27.503618,36.880558,27.504108,36.880558C27.50434,36.880558,27.50457,36.880558,27.5048,36.880558C27.86397,36.880558,29.476593,37.828304,31.208998,38.954285C32.942455,40.080994,34.91456,41.206966,35.630745,41.38348C39.689575,42.38226,46.335804,49.753098,51.318523,58.85904C53.419716,62.727688,55.218727,65.4645,57.555515,68.49721C58.21469,69.38954,59.174957,71.05556,59.71591,72.24647C60.197357,73.437386,61.5173,75.639046,62.5964,77.18567C65.59322,81.34948,67.15578,84.68322,67.52504,87.84239C68.324295,94.45908,69.107376,96.602875,71.38063,98.562836C73.83314,100.64096,76.35205,104.56771,77.01758,107.189285C77.19977,108.08333,78.39972,110.10652,79.598206,111.71223C81.63592,114.50764,82.777885,116.94855,85.7907,125.524956C86.57378,127.66899,87.7177,130.64677,88.319626,132.19511C88.92168,133.7432,89.40691,136.00761,89.41143,137.26006C89.42571,141.19585,90.774345,151.32889,91.67913,154.12845C92.82574,157.88112,94.026535,176.54247,93.19842,178.39427C92.84344,179.17088,92.556206,182.21312,92.566826,185.13524C92.577446,188.05734,92.29046,191.1594,91.93609,192.11472C90.51885,195.9365,90.233574,199.51582,91.082085,203.26973C91.62676,205.47432,92.004326,210.8996,92.08733,217.33978C92.32196,232.7248,92.213684,235.76654,91.39215,239.4074C90.80548,242.09294,90.80963,243.226,91.414856,245.66887C91.897644,247.27727,92.084045,249.30412,91.84857,250.14006C91.31976,252.3483,90.30182,267.6781,90.37848,272.32947C90.4483,275.13196,90.872375,276.97913,91.77313,278.7052C92.972305,281.02286,95.41804,282.9196,97.206314,282.9196C97.2093,282.9196,97.21228,282.91956,97.21526,282.91956C97.21566,282.91956,97.21606,282.91956,97.21646,282.91956C97.63649,282.91956,99.664955,283.68683,101.69402,284.6328L105.33806,286.34888L107.300705,284.91052C108.371376,284.13135,110.99052,282.80994,113.19401,281.96716C115.39737,281.12415,117.83743,279.74377,118.60965,278.90613C120.272835,277.11093,123.42725,275.3702,126.10889,274.82358C127.121826,274.5814,128.43066,273.7418,128.96436,272.90488C129.4386,272.12778,130.98413,270.75058,132.29297,269.91122C135.38683,267.93198,144.73666,264.37976,147.89548,263.89124C149.26645,263.70715,152.06674,262.98157,154.15146,262.318C158.73824,260.87024,162.55232,260.20032,172.15009,259.27087C177.0819,258.82016,184.21239,258.5186,189.16689,258.5186C191.0399,258.5186,192.60193,258.5617,193.61661,258.65613C193.74466,258.66486,193.94846,258.6691,194.2168,258.6691C195.69812,258.6691,199.14645,258.54007,202.67995,258.32532C204.95871,258.18686,206.6451,258.1137,207.96924,258.1137C210.28273,258.1137,211.49043,258.337,212.8197,258.82532C214.2528,259.3568,217.71326,259.82117,220.51646,259.9303L225.7054,260.09042L229.21162,256.73813C231.11311,254.88266,233.61066,252.90561,234.74152,252.30502C235.8725,251.70468,237.65741,250.56529,238.66864,249.84581C239.67963,249.06676,240.75055,248.40685,241.04877,248.40587C241.34685,248.40489,245.9904,246.18175,251.40714,243.41881C256.824,240.71545,263.25418,237.82971,265.69632,237.04553C268.1383,236.20178,273.14026,234.15613,276.71204,232.4137C280.34363,230.7306,284.57172,229.10509,286.1214,228.86095C287.67133,228.67662,290.5312,227.95055,292.37738,227.28795C298.5716,225.11852,302.08707,224.33067,307.92923,223.71301C323.30933,222.16663,327.06516,221.85458,331.1202,221.83994L335.41388,221.82431L335.40656,219.79672C335.4001,218.0079,335.69684,217.58922,337.95905,216.50768C339.3875,215.78673,340.75726,215.24522,340.9958,215.24425C342.00958,215.24059,349.0816,208.4762,349.0782,207.5221C349.07196,205.7926,350.91336,203.818,353.7715,202.61487C356.74844,201.29236,360.37466,198.11855,362.2122,195.07045C362.86453,194.0541,364.82645,192.37733,366.55215,191.35709C368.27808,190.39688,370.53723,188.48038,371.54602,187.10513C372.49524,185.73013,374.93237,183.57437,376.9552,182.25505C379.39465,180.69572,381.23657,178.8405,382.6006,176.74821C383.78625,174.83563,385.33102,173.21991,386.4028,172.79852C387.41513,172.37762,388.4847,171.30023,388.8984,170.2846C389.66733,168.55267,393.2325,164.96162,394.2463,164.95796C394.5444,164.95674,395.55405,163.82002,396.44345,162.3857C398.8741,158.44112,402.14056,154.73166,403.6292,154.1301C404.46307,153.82883,404.93756,153.1113,404.9344,152.21677C404.92914,150.78561,406.8847,147.37938,409.3199,144.62743C410.09198,143.78978,411.39728,141.93651,412.28644,140.44214C413.17548,138.948,415.31158,136.01831,417.09296,133.86499C420.23987,130.09668,422.313,126.21289,422.95728,122.99024C423.13318,122.15455,423.9624,120.60109,424.7938,119.643814C425.62497,118.62721,426.27594,117.25318,426.27362,116.597176C426.2658,114.45021,427.80573,111.52272,429.70792,109.84597C430.6591,109.007835,432.08365,107.153595,432.79398,105.72C433.56412,104.28592,435.22427,101.6558,436.58926,99.8621C437.89505,98.127975,439.55618,95.736626,440.20816,94.6607C441.80838,91.91168,445.54773,87.067696,448.87415,83.418045C450.359,81.74275,451.9619,79.76913,452.4364,79.05184C454.8684,75.46469,470.37167,58.531864,471.2662,58.52869C471.50473,58.527714,472.33627,57.570683,473.10727,56.4347C473.87827,55.23939,476.31476,52.904434,478.45563,51.226948C480.59625,49.549706,483.86578,46.675198,485.64813,44.819977C489.62906,40.81022,493.07852,38.233322,497.66287,36.129322C499.5679,35.227955,501.6495,33.670094,502.36154,32.713066C503.7855,30.680597,506.64227,29.11981,511.34833,27.731142C513.13544,27.187685,515.15936,26.166693,515.75336,25.50849C517.17865,23.89326,522.1192,21.37056,523.789,21.364456C524.4449,21.362259,526.0522,20.581255,527.24146,19.622517C528.4307,18.723835,530.4543,17.583456,531.7647,17.161339C533.0754,16.798546,537.1241,14.994839,540.69574,13.252656C547.1844,10.0683365,553.0813,8.138898,556.1227,8.127667C557.0172,8.124494,560.8895,7.0368495,564.82056,5.7106805C570.0619,3.902579,572.9221,3.2961352,575.6654,3.2861254C577.75256,3.278557,581.1497,2.7292418,583.23444,2.065669C585.3193,1.4023405,588.89435,0.5544421,591.1591,0.18823199C593.4836,-0.17773397,596.16437,-0.9628884,597.17596,-1.5627406C598.8422,-2.5229435,601.16583,-3.1276784,610.99805,-5.19115C612.30896,-5.493884,614.3937,-6.157457,615.7036,-6.6989594C617.0468,-7.2729573,618.8397,-7.579406,621.19946,-7.579406C621.5597,-7.579406,621.9331,-7.5722647,622.3202,-7.557844C622.6621,-7.5505314,623.0015,-7.546884,623.3332,-7.546884C625.3159,-7.546884,627.02246,-7.677193,627.3281,-7.93382C627.57324,-8.075199,629.11975,-8.159249,631.2871,-8.159249C632.80255,-8.159249,634.6215,-8.118156,636.51135,-8.026836C638.1707,-7.954759,639.8172,-7.920972,641.3629,-7.920972C644.5398,-7.920972,647.2912,-8.063691,648.85486,-8.310039C653.0133,-9.028392,667.3068,-10.244271,671.87415,-10.244271C671.9542,-10.244271,672.0314,-10.2438965,672.1054,-10.243139C672.1228,-10.243202,672.1405,-10.243234,672.1585,-10.243234C673.6811,-10.243234,677.2689,-10.019117,680.1581,-9.6760025C683.141,-9.38865,688.2118,-8.87034,691.4929,-8.524394C694.7742,-8.178448,699.4276,-7.658429,701.81433,-7.3095527C704.1409,-7.0195146,707.9594,-6.496811,710.16705,-6.2067723C717.7441,-5.280017,725.8621,-3.16259,728.31366,-1.3823209C729.2092,-0.7902262,730.22363,-0.25756565,730.5825,-0.25756565C730.58295,-0.25756565,730.5833,-0.25756633,730.58374,-0.25756773C730.584,-0.25756863,730.5843,-0.25756907,730.58453,-0.25756907C730.94446,-0.25756907,732.91394,0.56958747,734.94366,1.5751914C736.97516,2.6411066,740.14056,3.9416406,741.93195,4.591297C743.723,5.1811395,746.17224,6.305404,747.3081,7.0763984C748.44385,7.8473926,749.9972,8.617166,750.7733,8.853005C751.48975,9.088844,752.08765,9.504127,752.0886,9.802221C752.0896,10.040747,753.1654,10.692844,754.41943,11.1655C755.7333,11.697236,756.9286,12.408416,757.16846,12.765593C757.3479,13.06198,757.942,13.357154,758.47723,13.357154C758.479,13.357154,758.4808,13.357151,758.48254,13.357144C758.4832,13.3571415,758.4839,13.357141,758.4846,13.357141C759.74054,13.357141,764.9408,17.39178,770.5628,22.735538C773.07623,25.171568,776.1268,27.665215,777.3813,28.256765C779.05426,29.145435,780.01227,30.215256,780.8538,32.060955C781.51495,33.489662,782.8932,35.27384,783.96924,35.98551C789.7086,39.960354,795.76306,48.585335,795.7783,52.81921C795.78723,55.26427,794.3098,58.967144,792.6465,60.762062C791.56146,61.97647,789.98285,62.56481,787.6706,62.56481C786.5653,62.56481,785.29236,62.430374,783.82556,62.165623C781.73706,61.81528,778.57477,61.34971,776.7852,61.177345C773.5638,60.89097,771.6525,60.063087,769.13983,57.865585C768.48175,57.27159,766.7496,56.502796,765.3172,56.209827C763.9443,55.857044,760.00287,54.32067,756.6574,52.722775C753.3155,51.066772,750.0341,49.7677,749.31396,49.7677C749.31323,49.7677,749.3125,49.7677,749.31177,49.767704C749.3093,49.76771,749.3069,49.767715,749.3045,49.767715C748.65045,49.767715,747.9384,49.47339,747.75903,49.176884C747.0991,48.105843,743.6959,46.98524,740.1166,46.64027C737.73035,46.41029,735.76,45.76161,733.8474,44.57582C731.1588,42.868793,726.8322,42.036522,720.5638,42.036522C719.8645,42.036522,719.14105,42.04688,718.39307,42.06753C717.9021,42.08858,717.4686,42.10009,717.0825,42.10009C715.07745,42.10009,714.35205,41.789623,713.4987,40.89273C712.3614,39.70401,711.58563,39.587555,702.8781,39.38077C696.04065,39.207355,691.74493,39.10707,688.3883,39.10707C683.6642,39.10707,680.8002,39.305717,675.32825,39.778717C667.51843,40.403473,665.7306,40.76773,663.7074,41.967922C662.3386,42.74795,659.6586,43.711815,657.69183,44.01699C653.93744,44.74648,647.6215,46.26015,644.58344,47.165665C643.63043,47.46718,640.2968,49.08949,637.2613,50.71058C634.22565,52.33167,629.81976,54.25623,627.4371,54.98035C625.0544,55.704716,622.4937,56.727905,621.72015,57.20764C620.1137,58.22717,612.7281,60.75866,609.3312,61.367542C608.0797,61.610462,606.4125,62.27257,605.57947,62.812366C603.0217,64.6107,599.44946,66.23374,597.18494,66.65928C595.9335,66.90244,593.9685,67.74424,592.7787,68.524025C591.589,69.36313,589.32764,70.6832,587.8396,71.4642C586.292,72.244965,584.2698,73.743004,583.2599,74.82015C580.9432,77.27351,579.1573,78.17464,575.6408,78.72395C573.7933,79.028885,571.5308,80.05085,569.1513,81.66975C567.1882,82.98884,564.5107,84.668274,563.2607,85.328674C562.0108,85.98932,559.0362,87.96783,556.65717,89.70611C554.2781,91.44414,551.00635,93.72197,549.3406,94.80155C547.734,95.82133,545.59485,97.91629,544.5863,99.351105C542.8065,101.92165,539.7771,105.21266,534.72534,109.94215C533.2987,111.259285,530.92285,113.891846,529.4386,115.68627C527.95447,117.540276,526.1721,119.39551,525.4579,119.75586C524.7439,120.176025,523.3202,122.26831,522.2544,124.35937C521.1886,126.51024,519.35,129.26,518.1621,130.57616C516.9741,131.89255,515.7298,134.1035,515.31757,135.53612C514.9649,136.96873,514.018,138.94017,513.2459,139.83739C512.4742,140.7944,511.232,143.60178,510.46576,146.04953C508.93378,151.18379,507.98724,153.27437,505.73175,156.20477C504.06976,158.3576,502.41623,162.83636,494.8043,185.16713C488.6091,203.49742,488.13644,204.69199,486.71228,206.66489C485.58472,208.16,485.35132,209.59213,485.01318,215.0201C484.79114,219.55305,484.26538,222.59625,483.37915,224.86578C482.7296,226.65704,482.14233,229.16386,482.14703,230.41609C482.15717,233.21907,481.09308,235.78717,478.659,238.83746C477.64984,240.09357,476.82013,241.52765,476.82172,241.94513C476.82343,242.42218,476.05548,244.45268,475.1087,246.48369C474.22174,248.57402,473.15985,251.73856,472.74884,253.52884C472.39752,255.31912,471.27423,258.00687,470.32538,259.50125C468.7247,262.07132,466.24423,268.75952,465.30637,273.2356C464.60287,276.5774,462.6483,280.28198,461.39706,280.58472C460.5035,280.82666,460.26706,281.42383,460.27414,283.39157C460.28525,286.43295,458.75754,292.70016,457.57077,294.37424C456.97775,295.27084,456.7474,297.53793,456.76584,302.60675C456.78696,308.451,457.03244,310.35822,458.23813,313.93207C461.07162,322.38992,461.7537,329.54364,460.1005,334.14154C459.6287,335.5744,458.8638,338.43973,458.45377,340.46866C457.75015,343.81094,457.75235,344.40726,458.83426,346.72903C459.5557,348.33658,459.98074,350.42227,459.92886,352.56924C459.87576,354.35855,460.18314,356.92175,460.5457,358.2323C460.96793,359.54285,461.40164,364.0138,461.47635,368.188C461.61075,372.36194,461.9877,377.60837,462.41348,379.9326C463.20523,384.462,462.91324,386.19247,461.19083,388.10703C460.1215,389.244,460.12222,389.42282,460.95963,390.13547C462.09598,391.02585,462.1039,393.23236,461.03836,395.38312C460.3279,396.81683,459.92215,400.0385,459.29843,408.92648C459.18503,410.53696,458.5399,413.5211,457.8314,415.49167C457.12314,417.5217,456.53952,421.04233,456.43002,423.72638C456.26413,427.305,455.9117,428.79718,454.96225,430.1126C454.2502,431.06927,453.65878,432.44305,453.66147,433.15863C453.67953,438.1679,450.91635,449.0911,449.4283,449.87173C448.71396,450.2322,448.3597,451.18753,448.36472,452.5591C448.36948,453.87112,447.8381,455.36392,446.8884,456.61978C446.05746,457.69608,445.40646,459.0701,445.40878,459.7261C445.41098,460.32242,444.52426,462.47244,443.45798,464.4442C439.07422,472.51086,438.89697,472.92896,438.901,474.062C438.9032,474.65845,438.01624,476.74878,436.89038,478.72083C435.29065,481.5891,434.28076,482.66623,432.19727,483.68747C429.8755,484.82895,429.63806,485.12802,429.82263,486.67795C430.00586,487.86996,429.71082,488.70578,428.87866,489.4841C427.98706,490.32236,427.63306,491.33725,427.6399,493.24557C427.64514,494.67685,427.2356,496.82516,426.76276,498.01968C425.52106,500.94632,425.8813,501.60095,428.98395,502.06665C432.80292,502.70886,436.62457,504.06665,438.71732,505.60962C439.6741,506.32166,441.168,507.15112,442.0037,507.3866C445.34683,508.3883,448.39468,510.16638,450.9678,512.6019C455.5757,516.9983,462.94153,525.4994,462.94507,526.4535C462.94592,526.692,463.36572,527.34656,463.90466,527.9409C464.4484,528.52234,464.99103,528.78345,466.0616,528.78345C466.52325,528.78345,467.08307,528.7349,467.78345,528.6426C468.32892,528.579,468.8784,528.54785,469.42728,528.54785C472.59738,528.54785,475.7478,529.5864,477.9911,531.4083C480.56293,533.48596,484.16556,540.27136,484.77505,543.90686C485.44687,548.2579,486.17062,550.5214,489.4785,558.2022C489.83932,559.0358,490.73898,560.4638,491.39865,561.47516C492.11777,562.4267,493.13913,564.5103,493.6815,566.0588C496.26965,573.2593,496.69226,574.2757,497.16882,574.2757C497.16922,574.2757,497.16962,574.2757,497.17,574.2757C497.17056,574.2757,497.1711,574.2757,497.17166,574.2757C497.46912,574.2757,497.70786,574.57275,497.70944,574.98944C497.71066,575.3472,498.3741,577.37244,499.21628,579.39685C500.0587,581.4811,501.14755,585.7112,501.6358,588.8104C502.06476,591.9696,502.79156,595.068,503.15192,595.7822C503.93243,597.2107,506.03986,602.8087,506.8255,605.66833C508.2155,610.7322,508.63947,612.5198,509.4942,618.00305C510.53265,624.79767,510.6718,630.2835,509.90607,632.9102C507.49005,640.9101,505.3656,647.0602,504.47778,648.9121C503.4713,650.94324,503.41455,651.71875,504.031,657.2626C504.40112,660.6605,504.53784,665.49036,504.36804,667.9957C503.96912,673.06604,504.82764,679.62274,506.14905,682.1822C506.62952,683.1347,507.7141,686.23175,508.5,689.15094C509.28564,692.0107,510.6129,696.2399,511.51587,698.5623C513.44275,703.684,513.454,706.785,511.81494,715.259C510.87793,719.9737,510.17053,722.2422,509.2201,723.2594C508.50732,724.03735,507.6194,725.88916,507.2074,727.3816C506.32568,730.9032,504.0083,733.2374,500.61108,733.7864C498.58475,734.09204,497.33524,734.8718,495.19595,736.9668C492.52164,739.54065,492.1049,739.7212,488.52774,739.97266C487.79163,740.0197,487.1399,740.04663,486.56174,740.04663C483.25314,740.04663,482.35336,739.1647,481.83463,736.1206L481.28763,733.26013L478.30405,732.79407C476.6335,732.56165,474.54428,732.0325,473.52942,731.67834C472.57855,731.32574,471.2149,731.0928,470.55515,731.0928C470.55188,731.0928,470.54865,731.0928,470.5454,731.0928C469.88977,731.1548,464.52332,731.35315,458.62036,731.61316L447.94742,732.06934L443.3671,735.24646C435.6934,740.5819,432.6575,742.08374,429.61624,742.09485C429.5875,742.095,429.559,742.09503,429.53073,742.09503C427.39108,742.09503,426.68365,741.79315,425.97354,740.73645C424.6542,738.7136,424.0939,732.21545,424.85074,727.1438C425.6669,721.9525,429.33926,715.0812,433.4988,710.9513C434.9247,709.5149,436.23,707.6614,436.46548,706.8257C437.34683,703.1848,443.59097,698.3318,451.0349,695.50183C454.3103,694.2377,456.39142,692.56036,458.22955,689.63153C460.36395,686.22455,460.3587,684.7934,458.3172,680.9245C455.61517,675.8653,454.5373,674.61694,451.55014,673.13684C448.38376,671.5382,445.57028,668.62646,445.5638,666.8374C445.56125,666.1218,444.6639,665.34973,442.81198,664.4619C441.3377,663.8365,440.52386,663.5587,439.6438,663.5587C439.0264,663.5587,438.37643,663.69543,437.44296,663.9447C436.01328,664.3673,432.73947,666.0491,430.24072,667.6682C425.89462,670.40643,424.4995,671.1208,422.27448,671.1208C421.8189,671.1208,421.32852,671.0908,420.77094,671.0422C417.7884,670.8144,416.94794,669.2669,416.92877,663.95953C416.90985,658.7713,418.67804,653.04,422.0561,647.18353C425.07813,641.865,429.11902,637.9144,434.00034,635.51135C437.09592,634.0093,437.98972,633.827,443.65488,633.8065C449.49936,633.845,450.27512,633.9614,455.23224,636.03064C458.15887,637.27234,460.90656,638.5148,461.32526,638.871C461.654,639.15063,462.38638,639.31866,463.14746,639.31866C463.356,639.31866,463.56668,639.306,463.7718,639.27966L465.44098,639.0946L465.3261,623.88824C465.21454,609.57635,465.09027,608.20514,463.57587,601.7104C461.6986,593.84534,458.93323,587.713,455.58096,584.20667C453.42593,581.94836,452.88834,581.7118,446.14407,580.1858C442.2051,579.3651,438.20596,578.36584,437.19086,578.0117C436.2354,577.65735,434.44403,577.0078,433.3094,576.5946C432.17487,576.1813,427.3423,575.54285,422.5702,575.2024C417.79834,574.92163,412.8468,574.40283,411.53345,574.0498C410.22058,573.75635,408.19104,573.2269,407.05692,572.933C406.4386,572.8051,405.35947,572.7321,404.158,572.7321C403.15607,572.7321,402.06906,572.7829,401.0933,572.8949C398.9473,573.14124,395.4899,573.57117,393.34415,573.8175C390.6017,574.06604,388.75516,574.66907,387.1492,575.80786C385.12637,577.1273,384.0541,577.4293,379.58197,577.5647C378.44705,577.6278,377.52707,577.6647,376.7436,577.6647C374.3577,577.6647,373.23764,577.3232,371.169,576.343C369.43683,575.5741,366.92853,574.56934,365.61505,574.1566C362.09247,573.0364,355.64035,569.8395,352.65085,567.7035C351.2159,566.6948,348.88498,565.2721,347.39157,564.562C345.0018,563.3778,344.34286,562.5454,341.70065,557.48596C338.09763,550.641,336.47974,548.5,333.61035,546.6022C332.4148,545.8312,331.15735,544.40454,330.79614,543.45166C330.43506,542.5585,329.47168,539.9977,328.56885,537.73486C326.76294,533.0899,326.56873,528.8565,327.854,521.5168C328.90277,515.6494,329.07498,513.71704,327.39337,513.71704C326.7319,513.71704,325.78363,514.016,324.489,514.4921C322.7024,515.1546,318.76917,515.88446,315.66895,516.1342C314.1162,516.2568,312.886,516.33136,311.74115,516.33136C308.7982,516.33136,306.41922,515.8384,300.5751,514.39984C298.6985,513.938,294.46207,513.59973,291.09055,513.59973C291.03052,513.59973,290.97073,513.5998,290.9113,513.60004C290.732,513.6007,290.5567,513.601,290.38528,513.601C285.7108,513.601,283.9041,513.349,281.4843,512.3223C279.75262,511.67255,276.0523,510.85114,273.24863,510.6228C265.7323,509.99414,260.7793,509.05786,259.34436,508.0492C258.63077,507.57727,257.14996,507.16708,255.96033,507.16708C255.95418,507.16708,255.94803,507.16708,255.9419,507.1671C255.93198,507.16714,255.92206,507.16718,255.91211,507.16718C254.78593,507.16718,253.49191,506.9349,253.01794,506.641C252.9339,506.57843,252.80765,506.54733,252.64017,506.54733C251.85417,506.54733,250.16,507.23242,247.65773,508.56885C245.15785,509.88977,241.9435,511.5116,240.57448,512.2323C238.1935,513.4335,238.07484,513.6129,238.97218,514.38477C240.58705,515.69104,244.07484,523.66943,245.40602,528.97205C246.91957,535.2283,249.21107,542.1971,250.41248,544.6379C251.25305,546.18524,251.37927,548.0931,251.22668,555.3692L251.07971,564.13605L254.26025,569.6705C258.16174,576.57404,259.18494,579.1943,259.79907,584.0821C260.10498,586.22784,260.59265,589.1481,261.0155,590.63745C262.7089,597.1316,262.32437,606.1976,260.1924,610.32C259.7781,611.15643,255.56058,615.7636,250.8671,620.611C240.23235,631.6225,232.33258,640.3577,230.25726,643.6452C229.36786,645.0201,227.2309,647.77106,225.56842,649.8046C223.78717,651.9578,222.24606,654.52795,221.83383,655.9606C220.30539,662.04895,216.53036,673.5124,215.69981,674.7082C215.22533,675.4255,214.03526,676.14545,213.08202,676.3874C211.65184,676.69086,210.46385,678.007,207.2611,682.8492C205.06676,686.1966,202.87352,689.84235,202.51952,690.91705C202.10631,692.0516,201.21825,693.84393,200.50682,694.97955C199.55847,696.5931,199.3247,697.9058,199.33984,702.08026C199.3601,707.68585,197.48425,716.6379,195.35193,720.6412C192.74597,725.6004,190.66418,727.0988,182.266,729.93207C178.98393,731.07465,176.5162,731.6072,173.98225,731.6072C172.23975,731.6072,170.46593,731.35535,168.37444,730.87695C167.04329,730.5493,165.82858,730.36615,165.15428,730.36615C164.86104,730.36615,164.67,730.4008,164.61601,730.47327C164.49785,730.77185,161.69633,731.1398,158.41716,731.33057C153.70697,731.6459,151.44281,732.1312,147.86981,733.5753C145.42828,734.53845,142.50922,735.3838,141.43585,735.3877C140.3028,735.39185,137.44269,736.0582,135.0605,736.90173C132.61836,737.7455,129.58052,738.7107,128.26985,739.07324C126.95918,739.4358,125.291824,740.0978,124.51839,740.57776C122.91219,741.65686,114.80967,743.8332,112.483864,743.8416C111.64903,743.84467,108.78856,744.3918,106.22691,745.11664C103.64066,745.7907,101.68933,746.11365,99.217415,746.11365C97.4753,746.11365,95.47463,745.95325,92.810905,745.6424C92.746284,745.6352,92.6705,745.63165,92.58401,745.63165C90.59443,745.63165,82.94074,747.51196,75.2342,749.94025C68.39347,752.08484,63.84224,753.27484,60.822605,753.27484C56.11173,753.27484,55.12853,750.3786,54.995262,743.69244C54.9244,740.5916,55.277855,739.39764,57.468098,734.91705C59.12575,731.5715,61.142292,728.52277,63.221878,726.42804C64.944595,724.57324,66.9637,722.2401,67.615616,721.1046C70.8764,715.84485,77.41974,711.28894,83.73608,709.8944C87.430405,709.1057,88.02501,708.62646,88.43297,706.0011C88.72435,704.0917,89.25816,703.31445,91.69737,701.69543C94.13646,700.07654,95.089584,699.7748,98.25022,699.7634C101.5897,699.7512,103.49668,699.3866,111.36081,697.2709C112.61191,696.90857,114.87301,695.5287,116.418175,694.09186C117.90389,692.65533,120.22347,690.91754,121.532906,690.25665C122.8426,689.5959,125.51935,687.7375,127.48151,686.1203C132.89227,681.74725,139.25847,677.669,142.35588,676.644C143.54692,676.2222,144.55705,675.2048,145.44536,673.472L146.74821,670.9629L145.37334,670.07324C143.72896,668.9944,141.46436,668.45776,138.70973,668.45776C135.25584,668.45776,131.03156,669.30133,126.29352,670.9773C124.03853,671.77673,122.13182,672.18146,120.557205,672.18146C117.26587,672.18146,115.42546,670.41315,114.88802,666.7847C113.78842,659.57294,122.27387,647.9132,132.39288,642.68823C136.8211,640.4301,141.52057,639.3158,146.1974,639.3158C153.2138,639.3158,160.17926,641.82385,166.10135,646.7405C167.77615,648.10596,169.45058,649.41187,169.86891,649.6488C169.90944,649.67224,169.96117,649.6837,170.0235,649.6837C172.16708,649.6837,186.85736,636.1353,190.31505,630.8493C191.50108,628.9963,193.5792,626.4841,194.88632,625.1674C196.19357,623.85065,197.55869,622.0568,197.97287,621.1607C198.32748,620.26495,198.98044,619.4277,199.39719,619.24725C199.8735,619.06647,200.82321,617.8107,201.53354,616.377C202.24423,615.00287,203.90512,612.5517,205.21152,610.9965C207.94344,607.88556,213.92525,596.5333,213.91841,594.6251C213.91292,593.1343,209.83626,587.1854,206.8437,584.2146C205.58737,583.08606,203.13205,580.2921,201.33493,578.0326C199.53769,575.77295,195.64523,571.31445,192.77084,568.0449C189.8369,564.77563,186.78185,561.02966,185.94212,559.66113C184.08287,556.74585,171.45496,544.3876,168.22717,542.312C166.96794,541.50165,166.36761,541.1336,165.64435,541.1336C165.09735,541.1336,164.48004,541.3441,163.45424,541.73303C159.84758,543.02325,155.71835,543.73004,151.90686,543.73004C150.55733,543.73004,149.24762,543.6414,148.01505,543.45874C145.62845,543.1096,141.87003,542.7058,139.66324,542.6542C138.95465,542.624,138.3696,542.60144,137.8641,542.60144C135.6039,542.60144,134.93384,543.0535,131.92033,545.3063C128.11382,548.06323,124.363335,549.86597,118.6446,551.61615C117.0362,552.09894,113.702225,553.602,111.321365,554.863C108.23324,556.4966,106.19226,557.21924,103.25054,557.21924C101.54292,557.21924,99.5318,556.97577,96.83615,556.5256C95.36468,556.29565,94.241806,556.1805,93.36018,556.1805C92.454254,556.1805,91.80306,556.30206,91.29014,556.5457C90.51609,556.9063,88.61643,559.29865,87.07542,561.8686C85.47459,564.43866,82.328354,568.4455,79.89195,570.8398C77.21806,573.47345,75.43719,575.74603,75.20257,576.82025C73.914055,583.26556,71.026115,592.6983,69.48644,595.6856C67.472725,599.50964,63.372444,603.52,60.097546,604.90356C58.966442,605.44446,57.596752,605.98596,57.12062,606.2263C56.644363,606.46655,54.037125,611.068,51.373066,616.4447C48.649555,621.8813,45.924156,626.7812,45.210655,627.3802C44.497032,627.9195,43.186794,628.4013,42.292263,628.4046C42.278004,628.40466,42.263767,628.40466,42.249554,628.40466C36.91437,628.40466,34.88434,624.76843,34.850067,615.3119C34.825592,608.57324,35.589203,605.3502,38.66745,599.0774C40.029076,596.32916,40.38143,594.8371,40.3702,591.73615C40.359398,588.75446,40.769493,586.7253,42.069782,583.5003C43.015278,581.1115,43.8987,578.06683,44.072834,576.75433C44.246418,575.2629,45.251728,572.9334,46.615555,570.78156C47.92061,568.8686,49.758194,565.8205,50.705883,564.028C52.068127,561.4588,53.315685,560.1423,56.052376,558.3433L59.62177,555.945L56.396553,554.585C55.000877,553.977,53.883987,553.62836,52.84242,553.62836C50.540886,553.62836,48.607124,555.3304,44.845905,559.69586C39.145042,566.336,35.040005,569.0346,29.437838,570.009C27.05399,570.4351,24.312782,570.9819,23.359718,571.2834C22.215506,571.6508,20.704062,571.8232,19.34064,571.8232C17.793985,571.8232,16.437813,571.6013,16.024279,571.1908C15.927216,571.0944,15.78691,571.04816,15.60784,571.04816C13.357723,571.04816,4.986885,578.3578,-0.6215815,585.5039C-2.4853425,587.7937,-4.5628924,588.9655,-6.774153,588.9655C-7.4509535,588.9655,-8.14028,588.8557,-8.839836,588.63464C-13.079091,587.2189,-13.996326,580.9606,-11.104055,572.72046C-8.802361,566.09265,-6.0133615,562.26587,2.0090926,554.48413C7.5952697,549.0968,9.198478,547.18256,9.787649,545.21246C10.90746,541.5708,12.51311,540.3126,18.47087,538.7406C25.143652,536.98694,27.048862,536.145,32.87967,532.42664C35.438076,530.80725,37.93777,529.4265,38.414818,529.4248C38.891685,529.3634,37.934902,528.65125,36.26211,527.8225C33.573395,526.401,32.55893,526.2258,26.416235,526.1288C26.078772,526.1257,25.748848,526.1241,25.426302,526.1241C21.302794,526.1241,18.385235,526.38,16.340866,526.94055C14.875143,527.36017,13.148788,527.55585,11.362938,527.55585C6.979112,527.55585,2.2367723,526.3766,0.11108388,524.4352C-0.29085937,524.0646,-0.60977185,523.87225,-1.1156965,523.87225C-1.6641906,523.87225,-2.432492,524.0983,-3.764706,524.5685C-7.5171437,525.83435,-13.826647,529.0775,-16.443405,531.05493C-17.801895,532.07355,-19.280016,532.5878,-20.6275,532.5878C-21.816666,532.5878,-22.904087,532.1873,-23.71775,531.3795C-24.854897,530.2506,-24.97654,529.5951,-24.749489,526.4336C-24.293007,520.7666,-22.397623,517.18176,-17.524519,512.51245C-15.147569,510.17798,-11.519581,507.48132,-9.257682,506.3401C-7.055291,505.19897,-5.0925245,503.76074,-4.916011,503.10413C-4.267635,501.0144,-0.2857053,497.24304,2.9880953,495.56143C7.392998,493.33902,11.504932,492.54886,18.124311,492.5248C25.936617,492.556,42.400833,493.92758,44.37184,494.75522C45.32018,495.10696,47.03206,495.39725,48.223743,495.39725C48.23267,495.39725,48.241566,495.39722,48.250435,495.3972C48.2564,495.39716,48.262386,495.39716,48.268383,495.39716C49.52094,495.39716,51.418198,495.86588,52.54816,496.51474C53.683353,497.1069,56.071777,497.93304,57.74286,498.28485C59.47375,498.69598,61.623844,499.58276,62.520935,500.29517C63.469,501.01474,64.6234,501.42233,65.69354,501.42233C65.770905,501.42233,65.847824,501.4202,65.924194,501.4159C66.45904,501.3647,67.07127,501.3406,67.74087,501.3406C72.743416,501.3406,80.947685,502.6845,84.00339,504.09344C87.40259,505.63892,92.82362,506.55417,98.76467,506.55417C99.191956,506.55417,99.621925,506.54944,100.05403,506.53986C100.06856,506.5398,100.08321,506.53976,100.098,506.53976C104.210655,506.53976,118.31562,508.56403,119.9826,509.44928C121.05816,510.0418,125.175705,510.80206,131.91801,511.79144C134.06596,512.08185,136.57254,512.60956,137.46817,512.90436C137.9401,513.10455,138.41164,513.20984,138.76491,513.20984C139.03757,513.20984,139.23976,513.14716,139.31729,513.0169C139.49539,512.7778,139.30838,510.57196,138.94168,508.12823C138.1459,502.46588,138.54567,497.57437,140.20302,494.1691C142.27467,489.86783,141.97511,489.51114,135.71315,489.41458C132.73123,489.36575,127.42142,488.72903,123.781044,488.02664C120.20025,487.26437,115.06879,486.4482,112.44379,486.15952C105.94099,485.4675,97.639725,482.15793,90.94442,477.7097C85.20928,473.85672,80.96816,471.42783,80.06985,471.42783C80.06926,471.42783,80.06867,471.42783,80.06809,471.42783C79.77,471.42892,78.887,474.59286,78.12559,478.4122C76.66221,485.99106,75.77628,488.37973,74.28764,488.98154C73.57897,489.24213,72.01686,489.36624,70.05431,489.36624C66.57423,489.36624,61.834995,488.97592,58.362488,488.264C55.31897,487.67856,50.124763,486.02768,46.839916,484.66806C40.62862,482.1262,34.658714,480.35886,29.527555,479.66183C27.916595,479.42917,25.469028,478.72238,24.155125,478.1904C22.840979,477.59885,20.69114,476.77182,19.377848,476.4188C18.064436,476.00613,16.03386,475.17862,14.898667,474.58633C13.763414,473.99417,11.194814,472.81082,9.223624,471.92337C7.2524953,471.03604,4.862361,469.73282,3.8457606,468.9612C2.8889742,468.24905,-0.098754786,466.59012,-2.7274144,465.28763C-13.361133,460.138,-18.263716,456.69696,-18.870161,453.8963C-19.233807,452.28754,-21.688087,449.73206,-26.05356,446.40833C-28.0867,444.86523,-29.101776,444.5111,-32.740326,444.2857C-41.210594,443.72015,-46.294388,439.62372,-53.075634,427.90024C-59.316532,417.1887,-60.992558,415.4653,-69.41485,411.6793C-70.549614,411.20627,-76.22545,408.30478,-81.96141,405.28415C-93.19406,399.42102,-96.30429,396.86816,-97.57175,392.69824C-97.993744,391.4474,-99.852325,388.71094,-101.70876,386.5708C-105.0021,382.88538,-105.96255,381.15955,-106.81295,376.8689C-107.29867,374.48523,-107.777245,374.06958,-112.255264,372.59497C-115.83338,371.4099,-119.09142,370.78372,-122.410545,370.78372C-128.83913,370.78372,-135.49683,373.13275,-145.153,378.31995C-151.40245,381.68213,-155.1553,382.82886,-159.92606,382.84607C-159.9469,382.84613,-159.96776,382.8462,-159.98862,382.8462C-164.56601,382.8462,-169.83797,381.02426,-171.15126,379.0105C-171.78415,378.05505,-172.70415,377.56525,-174.21657,377.56525C-176.00008,377.56525,-178.60742,378.24637,-182.53926,379.6482C-186.43817,381.02026,-188.83243,381.67184,-190.51378,381.67184C-191.78609,381.67184,-192.65018,381.29874,-193.44911,380.58234C-195.24422,378.919,-195.13484,376.17548,-193.24043,372.352C-190.9318,367.6325,-186.23495,363.6795,-180.16072,361.3317C-175.7538,359.6459,-174.98024,359.16605,-174.27077,357.49368C-173.79774,356.35892,-172.4316,354.86307,-170.88454,353.90335C-169.45638,353.06326,-167.79117,351.80496,-167.13712,351.26578C-165.29453,349.58926,-158.08786,347.0585,-155.10617,347.04764C-152.7208,347.03897,-152.54233,346.9191,-153.14236,345.90762C-153.4429,345.25272,-154.51974,344.3024,-155.4761,343.7095C-156.37259,343.17606,-157.45071,341.86795,-157.87204,340.79617C-158.92062,337.8022,-160.57321,337.26248,-169.67847,337.26248C-169.99228,337.26248,-170.31494,337.26312,-170.64674,337.2643C-171.3133,337.26672,-171.9308,337.26816,-172.50325,337.26816C-178.84474,337.26816,-179.6568,337.0938,-180.37123,336.16653C-183.54762,331.82477,-177.19574,323.81058,-168.14215,320.79605C-165.1134,319.77426,-163.08673,319.49634,-157.08417,319.49634C-156.71233,319.49634,-156.32524,319.4974,-155.9217,319.49942C-149.95827,319.4777,-147.09671,319.2288,-145.96579,318.62845C-145.07309,318.1481,-142.92752,317.78238,-141.13846,317.7759C-141.09227,317.77576,-141.04666,317.77567,-141.0016,317.77567C-138.25409,317.77567,-137.56303,318.10165,-134.15111,320.5535C-128.05174,325.1232,-127.45439,325.41922,-115.93048,329.37292C-114.61684,329.84528,-113.06392,330.49567,-112.52614,330.7918C-111.9331,331.14478,-110.63591,331.37778,-109.62548,331.37778C-109.61762,331.37778,-109.60977,331.37778,-109.601944,331.37775L-107.81289,331.37115L-109.131966,329.40784C-109.9109,328.39685,-111.528564,326.31558,-112.72662,324.82913C-115.24255,321.7372,-117.82433,316.91617,-119.03149,312.92508C-119.574455,311.19754,-120.47442,309.70987,-121.610466,308.87918C-123.4641,307.5143,-132.18694,303.0734,-136.30777,301.4185C-139.53293,300.05862,-140.78983,298.81082,-140.79697,296.84296C-140.80777,293.86127,-139.08163,292.9604,-130.44011,291.43817C-128.45493,291.10336,-126.37071,290.93695,-124.30818,290.93695C-120.36432,290.93695,-116.49977,291.5454,-113.558655,292.7486C-111.74113,293.48438,-110.55268,293.8231,-109.75631,293.8231C-109.40125,293.8231,-109.12413,293.75577,-108.90394,293.62628C-108.44993,293.39716,-106.78142,293.26773,-104.79787,293.26773C-104.1807,293.26773,-103.53304,293.28024,-102.88197,293.3062C-98.58748,293.5291,-97.6324,293.76422,-96.31593,295.01178C-94.520836,296.6751,-84.68851,311.07095,-84.68503,312.02518C-84.68375,312.38297,-83.72439,313.81067,-82.58639,315.1781C-81.44857,316.48596,-80.06747,319.10498,-79.46445,320.9514C-78.740814,323.15524,-77.960785,324.46445,-77.06479,324.87863C-76.34805,325.17416,-75.3295,326.4825,-74.788055,327.79245C-74.306244,329.10275,-72.8065,331.54224,-71.488266,333.26685C-70.17003,334.99146,-69.09013,336.7766,-69.088425,337.25366C-69.08452,338.32715,-66.924736,341.89746,-65.4287,343.32324C-64.77056,343.91724,-64.290276,344.81006,-64.28808,345.40637C-64.286125,345.9431,-63.08721,347.6681,-61.590694,349.21313C-58.896725,352.0658,-58.65625,352.60168,-57.982788,357.42978C-57.798706,358.8602,-56.835266,361.4211,-55.874817,363.14706C-54.854984,364.81308,-54.073063,366.65903,-54.07111,367.19565C-54.068974,367.79196,-53.228886,369.22018,-52.270145,370.46896C-51.25184,371.71762,-50.23072,373.74155,-50.047005,375.05283C-49.86335,376.3641,-48.601753,378.9238,-47.043713,381.00534C-45.664745,383.02792,-44.464977,384.99152,-44.463634,385.34943C-44.46107,386.065,-39.77651,395.17218,-36.47567,400.94476C-34.01553,405.11032,-32.27725,407.549,-28.864044,411.41278C-26.547905,414.12473,-25.881947,414.55554,-23.952076,414.55554C-23.935783,414.55554,-23.919403,414.5555,-23.90293,414.55545C-23.89433,414.55542,-23.885714,414.5554,-23.877085,414.5554C-22.688772,414.5554,-21.213991,414.8466,-20.620644,415.19962C-19.186441,416.0292,-4.856501,420.86734,-0.49908394,421.98465C4.037227,423.10123,9.233816,425.4081,14.0151825,428.3129C16.1071,429.61722,19.929789,431.27322,22.496862,432.0392C25.063694,432.7454,27.631195,433.63065,28.288239,433.92654C28.885712,434.22244,30.736479,434.81204,32.34799,435.1641C34.019188,435.57547,36.16909,436.40262,37.185204,437.05484C38.324074,437.7325,41.14643,438.2116,42.930916,438.2116C43.955814,438.2116,44.638355,438.0536,44.462963,437.68436C43.441177,435.48172,39.90505,430.6044,36.19216,426.32413C29.8439,418.89285,27.028963,415.5635,23.554663,411.2824C21.936867,409.2011,19.601236,406.46637,18.40379,405.15863C17.266033,403.8509,16.00743,402.12604,15.646528,401.29242C15.28575,400.4588,13.847153,398.43646,12.46953,396.7718C9.474843,393.2044,7.6125407,389.45416,5.0188546,381.35324C3.9335284,378.07724,2.3093848,374.20688,1.349791,372.71945C-1.229613,368.55453,-2.6738253,364.98154,-3.163815,361.40524C-3.408932,359.61703,-4.2539015,356.81735,-5.035029,355.21008C-5.875726,353.60303,-6.8415456,350.3861,-7.1481247,348.06152C-7.454765,345.73694,-8.059745,343.35376,-8.360526,342.63916C-8.720755,341.9845,-9.385121,339.66113,-9.810597,337.45618C-10.236256,335.19165,-11.682788,330.96277,-13.06517,327.98605C-14.387983,325.00912,-15.472638,321.91208,-15.475446,321.1368C-15.478253,320.36154,-16.02232,318.33594,-16.62492,316.60864C-17.28715,314.8817,-17.95225,312.3794,-18.195536,311.06836C-18.438576,309.81702,-19.101967,307.79175,-19.702614,306.6012C-22.105259,301.8391,-24.523104,292.90274,-24.900787,287.41763C-25.214996,283.00577,-25.578644,281.39688,-26.717985,279.67178C-27.49771,278.42227,-28.158474,277.1127,-28.16,276.69522C-28.161526,276.27774,-28.583035,275.14615,-29.063381,274.25333C-29.543911,273.30093,-30.20608,271.57413,-30.568262,270.38248C-31.293785,267.64203,-38.301346,259.3188,-43.265877,255.22186C-48.170597,251.18451,-52.655457,247.80147,-55.106075,246.25996L-57.73626,244.54024L-81.64999,244.50752C-83.30555,244.4985,-84.9573,244.4942,-86.5851,244.4942C-97.8573,244.4942,-107.9813,244.70021,-110.27313,244.96922C-112.895935,245.27684,-118.32067,245.83324,-122.315056,246.14598C-126.78636,246.52,-130.89873,247.1909,-133.04277,247.97386C-137.03305,249.41965,-148.9484,252.6235,-152.88148,253.41306C-154.37148,253.65695,-158.3639,254.50632,-161.8199,255.29391C-167.34935,256.5825,-169.26076,256.74292,-181.66418,256.74292C-182.0918,256.74292,-182.53189,256.74274,-182.98503,256.7424C-196.9397,256.7334,-198.13257,256.67822,-201.77501,255.3794C-203.92442,254.67163,-206.31328,253.72607,-207.1497,253.31177C-209.65886,252.06836,-216.00412,245.47194,-217.3854,242.79323C-218.10617,241.36476,-219.24576,239.57985,-219.96396,238.86671C-221.04172,237.678,-221.22427,236.66505,-221.36041,232.01392C-221.43103,228.9729,-221.8031,225.03833,-222.22723,223.19092C-223.3337,218.04019,-222.51646,215.88268,-218.91606,215.88268C-217.9765,215.88268,-216.84741,216.0296,-215.5135,216.30861C-213.30525,216.77785,-211.27577,217.30714,-210.91707,217.54445C-210.7892,217.60777,-210.66902,217.64076,-210.56738,217.64076C-210.38414,217.64076,-210.26115,217.53354,-210.26198,217.30348C-210.26631,216.11086,-208.30293,214.85133,-206.33504,214.84425L-204.24783,214.83669L-204.73312,212.57228C-205.70346,208.10329,-205.35367,205.89554,-203.27316,204.03934C-201.97174,202.88431,-200.5062,202.31212,-198.28528,202.31212C-196.24556,202.31212,-193.56871,202.79474,-189.79674,203.75174C-186.17987,204.68126,-183.80643,205.13518,-181.44633,205.13518C-179.32722,205.13518,-177.21889,204.76921,-174.23087,204.05298C-165.47221,201.93408,-164.63847,201.63281,-160.5324,199.23242C-158.27106,197.91261,-154.99677,196.35011,-153.15009,195.80666C-148.08655,194.29738,-147.55109,193.93752,-141.07375,187.6526C-137.44899,184.06131,-134.41658,181.60526,-133.40366,181.36307C-132.50974,181.18094,-130.54703,179.7427,-128.94272,178.1265C-127.33847,176.51053,-125.73312,175.1929,-125.375336,175.19168C-124.42118,175.18826,-121.57108,171.77861,-121.57517,170.64555C-121.57908,169.57207,-115.98338,166.80864,-113.83653,166.80083C-113.00169,166.79765,-111.037224,165.83647,-109.431206,164.69756C-105.80279,162.12016,-103.420044,161.39604,-98.23188,161.37724C-95.846504,161.36845,-92.74727,160.88017,-90.78169,160.21709C-88.458755,159.43317,-84.94216,158.94342,-80.11238,158.74686C-73.01699,158.42313,-68.786224,157.51321,-61.40153,154.74321C-58.781113,153.77959,-58.603073,153.54057,-54.695362,145.77373C-52.50463,141.41241,-50.73028,137.35089,-50.73248,136.75446C-50.734615,136.15826,-51.931023,135.1485,-53.66411,134.14116C-56.711224,132.54205,-59.344643,129.92755,-59.94816,127.961975C-60.18906,127.306946,-61.565403,125.99982,-63.00052,124.931465C-64.49527,123.86384,-66.11124,122.259346,-66.53195,121.36652C-67.01223,120.4737,-68.86782,118.5721,-70.66183,117.20711C-72.99385,115.485916,-74.491165,113.70223,-75.69252,111.32137L-77.37458,107.928314L-80.89405,107.64267C-83.8172,107.355316,-84.59357,107.059906,-85.851265,105.57359C-87.049385,104.087265,-87.23084,103.37218,-87.00123,100.926384C-86.71786,98.288864,-86.77083,98.127655,-88.129684,98.127655C-88.15405,98.127655,-88.17884,98.12771,-88.20405,98.1278C-88.207596,98.127815,-88.21114,98.12782,-88.21469,98.12782C-90.53672,98.12782,-92.80556,95.33776,-92.45752,92.776C-92.34241,91.642456,-92.04944,90.21033,-91.81305,89.61292C-91.40171,88.84256,-91.634,88.60262,-92.685425,88.60262C-92.693954,88.60262,-92.702545,88.60264,-92.71118,88.60267C-92.71435,88.602684,-92.71752,88.602684,-92.72069,88.602684C-94.388016,88.602684,-96.23547,87.002426,-96.2409,85.51429C-96.24385,84.689156,-96.71094,84.44827,-98.21934,84.44827C-98.23686,84.44827,-98.254524,84.44831,-98.27233,84.44837C-98.27785,84.448395,-98.28336,84.4484,-98.28888,84.4484C-100.906784,84.4484,-103.40913,82.19556,-103.4182,79.69618C-103.42396,78.11233,-103.597755,77.91405,-105.2496,77.91405C-105.27697,77.91405,-105.30475,77.9141,-105.33293,77.91421C-105.33684,77.91422,-105.34075,77.91423,-105.34467,77.91423C-106.3573,77.91423,-107.722374,77.44364,-108.3184,76.91103C-108.85547,76.44458,-109.22269,76.22149,-109.59921,76.22149C-109.893715,76.22149,-110.19392,76.35797,-110.58555,76.62124C-111.40972,77.13447,-112.5021,77.381386,-113.64084,77.381386C-115.29724,77.381386,-117.051735,76.85894,-118.22153,75.87368C-119.23565,75.044556,-120.723785,74.39515,-121.61903,74.39515C-121.621376,74.39515,-121.62372,74.39516,-121.62606,74.395164C-121.62866,74.39517,-121.631256,74.39518,-121.633865,74.39518C-122.64659,74.39518,-123.95759,73.68469,-125.21126,72.440094C-126.28859,71.37076,-128.20296,69.70767,-129.33919,68.817535C-131.07338,67.51187,-131.49342,66.79777,-131.49947,65.127846C-131.50441,63.7583,-131.80405,63.103184,-132.3393,63.103184C-132.34009,63.103184,-132.3409,63.103184,-132.34169,63.103188C-132.34227,63.10319,-132.34283,63.10319,-132.34341,63.10319C-132.82175,63.10319,-134.07489,62.392895,-135.0907,61.503094C-136.94495,59.959393,-137.00525,59.78068,-136.7799,56.14226C-136.55608,52.652973,-136.6136,52.38879,-137.77682,52.38879C-137.7869,52.38879,-137.79706,52.38881,-137.80731,52.388847C-137.80865,52.38885,-137.81,52.388855,-137.81134,52.388855C-138.52786,52.388855,-139.83907,51.738968,-140.79419,50.968437C-142.17017,49.780697,-142.41064,49.245052,-142.11829,47.633972C-141.88342,46.61908,-141.1737,45.00629,-140.46106,44.168888L-139.2146,42.554142L-141.12573,41.78608C-142.14099,41.37226,-143.45691,40.303413,-143.93738,39.35102C-144.69612,38.061314,-145.20811,37.743458,-146.88162,37.743458C-147.06104,37.743458,-147.2538,37.747112,-147.46165,37.753613C-147.53865,37.75527,-147.61476,37.756096,-147.69,37.756096C-150.87726,37.756096,-152.47636,36.27064,-152.48715,33.299515C-152.49167,32.047073,-152.19778,30.853228,-151.9003,30.673296C-150.85126,30.018621,-151.18845,29.621212,-152.629,29.621212C-152.90428,29.621212,-153.21986,29.635725,-153.57376,29.66573C-153.79572,29.687878,-154.01404,29.6987,-154.2281,29.6987C-157.00397,29.6987,-159.06665,27.878988,-159.07588,25.33224C-159.07997,24.199184,-158.78572,23.124723,-158.42873,22.884977C-158.01216,22.644743,-158.3127,21.98996,-159.32997,21.03952C-160.16768,20.267061,-160.88802,18.957981,-160.89082,18.18259C-160.89418,17.259615,-160.92558,16.79758,-161.29677,16.79758C-161.66905,16.79758,-162.38307,17.2623,-163.75331,18.192844C-165.1198,19.12943,-166.17326,19.611706,-167.1856,19.611706C-168.37671,19.611706,-169.5109,18.944054,-171.031,17.563208C-174.0227,14.831034,-174.2096,12.625226,-171.71771,9.097643C-170.76831,7.7822156,-169.63983,6.5258694,-169.2829,6.2861238C-168.56879,5.865958,-170.6065,3.0705523,-174.31702,-0.55371016L-176.59135,-2.8115194L-176.30785,-6.867666C-176.13719,-9.134508,-175.85785,-14.32371,-175.75348,-18.438938C-175.5448,-26.669395,-174.77887,-29.236286,-172.04346,-31.39302C-171.09192,-32.112015,-168.59442,-34.08906,-166.5133,-35.766552C-164.43196,-37.384224,-162.46895,-38.762882,-162.17079,-38.76386C-161.813,-38.76508,-159.3138,-40.265324,-156.51772,-42.123962C-148.7957,-47.18334,-138.80197,-49.98718,-129.79898,-49.98718 Z"/> </g> </g> </svg>