<svg width="123" height="140" viewBox="0 0 123 140" version="1.1" xmlns="http://www.w3.org/2000/svg" xmlns:xlink="http://www.w3.org/1999/xlink" xmlns:figma="http://www.figma.com/figma/ns">
<title>numbered_paper</title>
<desc>Created using Figma</desc>
<g id="Canvas" transform="translate(-3601 -1729)" figma:type="canvas">
<g id="numbered_paper" style="mix-blend-mode:normal;" figma:type="frame">
<g id="Vector 5" style="mix-blend-mode:normal;" figma:type="vector">
<use xlink:href="#path0_fill" transform="matrix(0.985586 0.169177 -0.169177 0.985586 3624.36 1731.58)" fill="#FFFFFF" style="mix-blend-mode:normal;"/>
<use xlink:href="#path1_stroke" transform="matrix(0.985586 0.169177 -0.169177 0.985586 3624.36 1731.58)" fill="#4A4A4A" style="mix-blend-mode:normal;"/>
</g>
<g id="3" style="mix-blend-mode:normal;" figma:type="frame">
<g id="Vector 2" style="mix-blend-mode:normal;" figma:type="vector">
<use xlink:href="#path2_stroke" transform="matrix(0.985586 0.169177 -0.169177 0.985586 3638.8 1827.54)" fill="#4A4A4A" style="mix-blend-mode:normal;"/>
</g>
<g id="Ellipse" style="mix-blend-mode:normal;" figma:type="ellipse">
<use xlink:href="#path3_fill" transform="matrix(0.985586 0.169177 -0.169177 0.985586 3629.75 1832.97)" fill="#4A4A4A" style="mix-blend-mode:normal;"/>
</g>
<g id="Vector 4" style="mix-blend-mode:normal;" figma:type="vector">
<use xlink:href="#path4_stroke" transform="matrix(0.985586 0.169177 -0.169177 0.985586 3619.99 1819.1)" fill="#4A4A4A" style="mix-blend-mode:normal;"/>
</g>
</g>
<g id="2" style="mix-blend-mode:normal;" figma:type="frame">
<g id="Vector 2" style="mix-blend-mode:normal;" figma:type="vector">
<use xlink:href="#path2_stroke" transform="matrix(0.985586 0.169177 -0.169177 0.985586 3644.84 1792.32)" fill="#4A4A4A" style="mix-blend-mode:normal;"/>
</g>
<g id="Ellipse" style="mix-blend-mode:normal;" figma:type="ellipse">
<use xlink:href="#path3_fill" transform="matrix(0.985586 0.169177 -0.169177 0.985586 3636.86 1797.41)" fill="#4A4A4A" style="mix-blend-mode:normal;"/>
</g>
<g id="Vector 3" style="mix-blend-mode:normal;" figma:type="vector">
<use xlink:href="#path5_stroke" transform="matrix(0.985586 0.169177 -0.169177 0.985586 3625.74 1785.36)" fill="#4A4A4A" style="mix-blend-mode:normal;"/>
</g>
</g>
<g id="1" style="mix-blend-mode:normal;" figma:type="frame">
<g id="Vector 2" style="mix-blend-mode:normal;" figma:type="vector">
<use xlink:href="#path2_stroke" transform="matrix(0.985586 0.169177 -0.169177 0.985586 3650.74 1759.44)" fill="#4A4A4A" style="mix-blend-mode:normal;"/>
</g>
<g id="Ellipse" style="mix-blend-mode:normal;" figma:type="ellipse">
<use xlink:href="#path3_fill" transform="matrix(0.985586 0.169177 -0.169177 0.985586 3641.02 1762.85)" fill="#4A4A4A" style="mix-blend-mode:normal;"/>
</g>
<g id="1" style="mix-blend-mode:normal;" figma:type="vector">
<use xlink:href="#path6_stroke" transform="matrix(0.985586 0.169177 -0.169177 0.985586 3631.87 1751.13)" fill="#4A4A4A" style="mix-blend-mode:normal;"/>
</g>
</g>
</g>
</g>
<defs>
<path id="path0_fill" d="M 0 0L 0 120L 98 120L 98 0L 0 0Z"/>
<path id="path1_stroke" d="M 0 120L -2 120L -2 122L 0 122L 0 120ZM 0 0L 0 -2L -2 -2L -2 0L 0 0ZM 98 0L 100 0L 100 -2L 98 -2L 98 0ZM 98 120L 98 122L 100 122L 100 120L 98 120ZM 2 120L 2 0L -2 0L -2 120L 2 120ZM 0 2L 98 2L 98 -2L 0 -2L 0 2ZM 96 0L 96 120L 100 120L 100 0L 96 0ZM 98 118L 0 118L 0 122L 98 122L 98 118Z"/>
<path id="path2_stroke" d="M -1.37606 1.54218C -1.97318 2.30215 -1.84116 3.4023 -1.08119 3.99942C -0.321212 4.59654 0.778934 4.46453 1.37606 3.70455L -1.37606 1.54218ZM 12 2.62336L 13.1825 1.33334L 13.1825 1.33334L 12 2.62336ZM 46 2.12336L 47.0812 0.747305L 47.0812 0.747305L 46 2.12336ZM 57.9764 3.56289C 58.4953 2.7475 58.2549 1.66584 57.4395 1.14695C 56.6241 0.628066 55.5425 0.868433 55.0236 1.68383L 57.9764 3.56289ZM 1.37606 3.70455C 2.6737 2.053 6.76853 0.201842 10.8175 3.91338L 13.1825 1.33334C 7.41652 -3.95215 0.992964 -1.47294 -1.37606 1.54218L 1.37606 3.70455ZM 10.8175 3.91338C 12.6457 5.58927 14.4848 6.12444 16.3364 5.64579C 17.9001 5.24156 19.2762 4.11246 20.2311 3.40316C 21.3476 2.57376 22.1526 2.07502 22.9811 1.96843C 23.6757 1.87907 24.727 2.03588 26.3539 3.44582L 28.6461 0.800906C 26.523 -1.03916 24.5118 -1.75735 22.5345 -1.50296C 20.6911 -1.2658 19.2149 -0.202042 18.1439 0.593559C 16.9113 1.50926 16.1936 2.06766 15.4605 2.25718C 15.0152 2.37228 14.3543 2.40745 13.1825 1.33334L 10.8175 3.91338ZM 26.3539 3.44582C 28.5223 5.32516 30.6288 6.00556 32.712 5.83637C 34.5838 5.65158 36.3378 4.80141 37.761 4.04248C 39.1841 3.28337 40.3176 2.61706 41.5031 2.44256C 42.4668 2.27938 43.5354 2.41246 44.9188 3.49942L 47.0812 0.747305C 44.9646 -0.915735 42.9082 -1.34516 40.9188 -1.00833C 39.1511 -0.682832 37.5034 0.213354 36.114 0.954244C 34.7247 1.69531 33.6349 2.28265 32.4286 2.34786C 31.4337 2.42867 30.2277 2.17156 28.6461 0.800906L 26.3539 3.44582ZM 44.9188 3.49942C 47.9691 5.89604 50.747 6.70979 53.104 6.45036C 55.4357 6.1937 57.1221 4.90544 57.9764 3.56289L 55.0236 1.68383C 54.7113 2.17462 53.9476 2.83636 52.721 2.97137C 51.5197 3.1036 49.6309 2.75068 47.0812 0.747305L 44.9188 3.49942Z"/>
<path id="path3_fill" d="M 4 2C 4 3.10457 3.10457 4 2 4C 0.895431 4 0 3.10457 0 2C 0 0.895431 0.895431 0 2 0C 3.10457 0 4 0.895431 4 2Z"/>
<path id="path4_stroke" d="M 0.566207 -0.974797C -0.232394 -0.754508 -0.701209 0.0714663 -0.48092 0.870068C -0.260631 1.66867 0.565343 2.13748 1.36394 1.9172L 0.566207 -0.974797ZM 3.37777 6.52747L 3.25747 5.03231C 2.47053 5.09562 1.86736 5.75808 1.8779 6.5475C 1.88844 7.33691 2.50908 7.98304 3.29743 8.02532L 3.37777 6.52747ZM 8.68568 11.1861L 7.35371 10.4963L 8.68568 11.1861ZM 0.736067 11.7426C 0.0142404 11.3361 -0.900464 11.5917 -1.30698 12.3136C -1.7135 13.0354 -1.45789 13.9501 -0.736067 14.3566L 0.736067 11.7426ZM 1.36394 1.9172C 2.41168 1.62594 3.83912 1.38069 5.11178 1.54202C 5.7189 1.61211 6.12793 1.76134 6.36824 1.92885C 6.55658 2.06014 6.67556 2.2183 6.71556 2.52727L 9.69073 2.14207C 9.53772 0.960266 8.93691 0.0624577 8.08377 -0.532233C 7.2826 -1.0907 6.32847 -1.33745 5.4558 -1.43819C 3.76889 -1.61849 1.77032 -1.3047 0.566207 -0.974797L 1.36394 1.9172ZM 6.71556 2.52727C 6.81573 3.30093 6.50731 3.80219 5.84379 4.2318C 5.05952 4.76629 4.11227 4.96766 3.25747 5.03231L 3.49806 8.02264C 4.57341 7.932 6.23187 7.52774 7.47426 6.75004C 8.8374 5.86746 9.97659 4.34996 9.69073 2.14207L 6.71556 2.52727ZM 3.29743 8.02532C 4.54808 8.0924 5.94603 8.5026 6.80469 9.0989C 7.22549 9.39111 7.40411 9.64867 7.46573 9.81685C 7.50754 9.93099 7.54628 10.1245 7.35371 10.4963L 10.0177 11.876C 10.5489 10.8502 10.648 9.78198 10.2826 8.78483C 9.9371 7.84173 9.24112 7.13843 8.51589 6.63479C 7.0825 5.63938 5.10268 5.11784 3.4581 5.02963L 3.29743 8.02532ZM 7.35371 10.4963C 6.64115 11.8722 5.49178 12.3983 4.20841 12.4869C 2.85118 12.5805 1.47243 12.1573 0.736067 11.7426L -0.736067 14.3566C 0.457727 15.0289 2.41517 15.6177 4.41492 15.4798C 6.48853 15.3367 8.71694 14.3875 10.0177 11.876L 7.35371 10.4963Z"/>
<path id="path5_stroke" d="M -0.577164 -0.22315C -1.34181 0.095609 -1.70327 0.973882 -1.38452 1.73853C -1.06576 2.50318 -0.187483 2.86464 0.577164 2.54588L -0.577164 -0.22315ZM 6.75 1.99511L 8.2263 1.72951L 6.75 1.99511ZM 0.75 12L -0.75 12C -0.75 12.8284 -0.0784273 13.5 0.75 13.5L 0.75 12ZM 9 13.5C 9.82843 13.5 10.5 12.8284 10.5 12C 10.5 11.1716 9.82843 10.5 9 10.5L 9 13.5ZM 4.5 0.00576849L 4.42026 1.50365L 4.5 0.00576849ZM 5.2737 2.26071C 5.3809 2.85657 5.23971 3.55044 4.8012 4.38456C 4.34693 5.26352 3.68509 6.07834 2.91606 6.93234C 2.15008 7.78487 1.32977 8.59256 0.677784 9.31631C 0.346147 9.68549 0.0124614 10.093 -0.219108 10.4449C -0.43925 10.7836 -0.75 11.3391 -0.75 12L 2.25 12C 2.25 12.2441 2.15019 12.3045 2.29626 12.0798C 2.4309 11.8682 2.6187 11.6439 2.90815 11.3227C 3.49835 10.6655 4.31867 9.85785 5.14644 8.93869C 5.97116 8.02098 6.85619 6.90778 7.45661 5.78055C 8.07279 4.60849 8.4941 3.218 8.2263 1.72951L 5.2737 2.26071ZM 0.75 13.5L 9 13.5L 9 10.5L 0.75 10.5L 0.75 13.5ZM 0.577164 2.54588C 1.80881 2.03244 3.33817 1.44604 4.42026 1.50365L 4.57974 -1.49211C 2.68534 -1.59296 0.491754 -0.66875 -0.577164 -0.22315L 0.577164 2.54588ZM 4.42026 1.50365C 4.77016 1.52228 4.93355 1.6058 5.00766 1.66477C 5.06123 1.7074 5.19721 1.83554 5.2737 2.26071L 8.2263 1.72951C 8.04788 0.737783 7.60855 -0.0994795 6.87568 -0.682669C 6.16337 -1.24951 5.32922 -1.45221 4.57974 -1.49211L 4.42026 1.50365Z"/>
<path id="path6_stroke" d="M 0.437714 -0.634845C -0.354729 -0.393339 -0.801352 0.444843 -0.559845 1.23729C -0.318339 2.02973 0.519843 2.47635 1.31229 2.23485L 0.437714 -0.634845ZM 3.5 0L 5 0C 5 -0.475311 4.77473 -0.922495 4.39277 -1.20539C 4.01081 -1.48828 3.51738 -1.57341 3.06271 -1.43485L 3.5 0ZM 0 10.5C -0.828427 10.5 -1.5 11.1716 -1.5 12C -1.5 12.8284 -0.828427 13.5 0 13.5L 0 10.5ZM 7 13.5C 7.82843 13.5 8.5 12.8284 8.5 12C 8.5 11.1716 7.82843 10.5 7 10.5L 7 13.5ZM 1.31229 2.23485L 3.93729 1.43485L 3.06271 -1.43485L 0.437714 -0.634845L 1.31229 2.23485ZM 2 0L 2 12L 5 12L 5 0L 2 0ZM 3.5 10.5L 0 10.5L 0 13.5L 3.5 13.5L 3.5 10.5ZM 3.5 13.5L 7 13.5L 7 10.5L 3.5 10.5L 3.5 13.5Z"/>
</defs>
</svg>
