<svg width="166" height="158" viewBox="0 0 166 158" version="1.1" xmlns="http://www.w3.org/2000/svg" xmlns:xlink="http://www.w3.org/1999/xlink" xmlns:figma="http://www.figma.com/figma/ns">
<title>pencil_and_paper</title>
<desc>Created using Figma</desc>
<g id="Canvas" transform="translate(-3569 -1999)" figma:type="canvas">
<g id="pencil_and_paper" style="mix-blend-mode:normal;" figma:type="symbol">
<g id="Notes" style="mix-blend-mode:normal;" figma:type="vector">
<use xlink:href="#path0_fill" transform="translate(3597.82 2003.5)" fill="#FFFFFF" style="mix-blend-mode:normal;"/>
<use xlink:href="#path1_stroke" transform="translate(3597.82 2003.5)" fill="#474747" style="mix-blend-mode:normal;"/>
</g>
<g id="Pencil" style="mix-blend-mode:normal;" figma:type="vector">
<use xlink:href="#path2_fill" transform="matrix(0.894049 -0.447969 0.449313 0.893374 3573 2033.49)" fill="#FFFFFF" style="mix-blend-mode:normal;"/>
<use xlink:href="#path3_fill" transform="matrix(0.894049 -0.447969 0.449313 0.893374 3573 2033.49)" fill="#FFFFFF" style="mix-blend-mode:normal;"/>
<use xlink:href="#path4_fill" transform="matrix(0.894049 -0.447969 0.449313 0.893374 3573 2033.49)" fill="#FFFFFF" style="mix-blend-mode:normal;"/>
<use xlink:href="#path5_fill" transform="matrix(0.894049 -0.447969 0.449313 0.893374 3573 2033.49)" fill="#FFFFFF" style="mix-blend-mode:normal;"/>
<use xlink:href="#path6_fill" transform="matrix(0.894049 -0.447969 0.449313 0.893374 3573 2033.49)" fill="#FFFFFF" style="mix-blend-mode:normal;"/>
<use xlink:href="#path7_stroke" transform="matrix(0.894049 -0.447969 0.449313 0.893374 3573 2033.49)" fill="#4A4A4A" style="mix-blend-mode:normal;"/>
</g>
</g>
</g>
<defs>
<path id="path0_fill" d="M 22.141 0L 0 129.249L 110.705 148L 132.175 16.0724L 22.141 0Z"/>
<path id="path1_stroke" d="M 0 129.249L -1.97128 128.911L -2.30961 130.886L -0.334001 131.221L 0 129.249ZM 22.141 0L 22.4301 -1.979L 20.4992 -2.26104L 20.1697 -0.337692L 22.141 0ZM 132.175 16.0724L 134.149 16.3937L 134.476 14.3872L 132.464 14.0934L 132.175 16.0724ZM 110.705 148L 110.371 149.972L 112.356 150.308L 112.679 148.321L 110.705 148ZM 30.0556 28.789C 29.3118 29.6056 29.3708 30.8706 30.1875 31.6144C 31.0041 32.3581 32.269 32.2991 33.0128 31.4825L 30.0556 28.789ZM 107.35 41.5204L 109.014 40.4095L 107.35 41.5204ZM 118.384 45.9482C 119.35 45.4125 119.699 44.1952 119.164 43.2292C 118.628 42.2632 117.411 41.9144 116.445 42.45L 118.384 45.9482ZM 23.3462 64.9519C 22.6024 65.7685 22.6614 67.0335 23.4781 67.7773C 24.2947 68.521 25.5596 68.462 26.3034 67.6454L 23.3462 64.9519ZM 34.8889 67.638L 33.0227 68.3571L 34.8889 67.638ZM 100.641 77.6833L 102.304 76.5724L 100.641 77.6833ZM 111.675 82.1111C 112.641 81.5754 112.99 80.3581 112.454 79.3921C 111.919 78.4261 110.701 78.0772 109.735 78.6129L 111.675 82.1111ZM 16.6368 99.7754C 15.893 100.592 15.952 101.857 16.7687 102.601C 17.5853 103.345 18.8502 103.286 19.594 102.469L 16.6368 99.7754ZM 28.1795 102.462L 26.3132 103.181L 28.1795 102.462ZM 93.9316 112.507L 95.5948 111.396L 93.9316 112.507ZM 104.966 116.935C 105.932 116.399 106.28 115.182 105.745 114.216C 105.209 113.25 103.992 112.901 103.026 113.436L 104.966 116.935ZM 1.97128 129.587L 24.1123 0.337692L 20.1697 -0.337692L -1.97128 128.911L 1.97128 129.587ZM 21.852 1.979L 131.886 18.0514L 132.464 14.0934L 22.4301 -1.979L 21.852 1.979ZM 130.201 15.7511L 108.731 147.679L 112.679 148.321L 134.149 16.3937L 130.201 15.7511ZM 111.039 146.028L 0.334001 127.277L -0.334001 131.221L 110.371 149.972L 111.039 146.028ZM 33.0128 31.4825C 34.0028 30.3956 35.4378 29.4029 36.6375 29.2585C 37.2843 29.1574 37.527 29.1773 38.0397 29.6056C 38.5202 29.9513 39.1497 30.6829 39.7321 32.1942L 43.4645 30.756C 42.705 28.785 41.6851 27.301 40.3764 26.359C 39.1 25.4996 37.4137 25.1595 36.1595 25.2872C 33.5572 25.6004 31.3021 27.4204 30.0556 28.789L 33.0128 31.4825ZM 39.7321 32.1942C 40.2054 33.4226 40.8048 34.4693 41.6357 35.1892C 42.5523 35.9835 43.6219 36.2673 44.6876 36.1397C 45.6389 36.0257 46.4781 35.5974 47.1169 35.21C 47.7575 34.819 48.3949 34.3474 48.9655 33.9407C 50.2566 33.0203 50.9176 32.7059 51.342 32.7205C 51.4075 32.7228 52.1346 32.7108 53.2053 35.0009L 56.8288 33.3068C 55.5513 30.5743 53.8462 28.8044 51.4796 28.7229C 49.4718 28.6538 47.7007 29.93 46.6435 30.6837C 46.0399 31.1142 45.5242 31.5006 45.043 31.7897C 44.5601 32.0825 44.3091 32.1564 44.2119 32.168C 44.1295 32.1861 44.2269 32.1566 44.2541 32.1785C 44.306 32.1824 44.3269 32.2432 44.2551 32.1662C 44.132 32.0595 43.8299 31.7041 43.4645 30.756L 39.7321 32.1942ZM 53.2053 35.0009C 53.872 36.4268 54.6748 37.5635 55.6838 38.3313C 56.6825 39.0421 58.0483 39.4135 59.0712 39.3846C 61.1322 39.2795 63.1423 37.9775 64.5422 37.109C 66.2294 36.0621 67.3736 35.3952 68.3373 35.2957C 68.8249 35.2267 68.9377 35.229 69.3242 35.5055C 69.6721 35.7171 70.163 36.1734 70.7259 37.1566L 74.1972 35.1692C 73.4182 33.8085 72.5043 32.758 71.4029 32.088C 70.3401 31.4829 68.959 31.2289 67.9265 31.3169C 65.8499 31.5313 63.8491 32.8316 62.4333 33.71C 60.7301 34.7668 59.679 35.3484 58.8675 35.3898C 58.4542 35.4341 58.4309 35.4445 58.1061 35.1481C 57.7916 34.9088 57.3363 34.3922 56.8288 33.3068L 53.2053 35.0009ZM 70.7259 37.1566C 72.2697 39.8533 74.1708 41.295 76.5328 41.4146C 78.5613 41.5173 80.5579 40.558 81.9992 39.9144C 83.6519 39.1765 84.9524 38.6413 86.2485 38.6337C 87.3752 38.6271 88.7502 39.0307 90.4505 40.8692L 93.3871 38.1534C 91.0618 35.6389 88.6627 34.6195 86.225 34.6338C 83.9568 34.6471 81.9026 35.5769 80.3683 36.262C 78.6227 37.0415 77.6 37.4635 76.7351 37.4197C 76.2036 37.3928 75.3371 37.1603 74.1972 35.1692L 70.7259 37.1566ZM 90.4505 40.8692C 92.6655 43.2643 94.8165 44.4624 96.9947 44.6436C 99.009 44.7471 100.877 43.9724 102.135 43.2576C 102.766 42.8969 103.314 42.546 103.796 42.2782C 104.268 42.0133 104.502 41.8901 104.78 41.8461C 105.018 41.7784 104.849 41.7459 104.969 41.8502C 105.044 41.8877 105.298 42.0491 105.687 42.6312L 109.014 40.4095C 108.396 39.4849 107.665 38.7255 106.755 38.2711C 105.89 37.8837 104.735 37.7884 103.966 37.9299C 103.238 38.0952 102.444 38.4533 101.847 38.7849C 101.26 39.1135 100.696 39.4742 100.153 39.7831C 99.0627 40.4077 98.3313 40.8049 97.3263 40.6573C 96.4854 40.5874 95.1978 40.1112 93.3871 38.1534L 90.4505 40.8692ZM 105.687 42.6312C 107.632 45.5432 110.179 46.804 112.615 47.0742C 114.954 47.3337 117.078 46.6726 118.384 45.9482L 116.445 42.45C 115.738 42.8417 114.44 43.2521 113.056 43.0986C 111.768 42.9558 110.289 42.3193 109.014 40.4095L 105.687 42.6312ZM 26.3034 67.6454C 27.2934 66.5585 28.7284 65.5658 29.9281 65.4214C 30.5749 65.3203 30.8176 65.3402 31.3303 65.7685C 31.8108 66.1142 32.4403 66.8458 33.0227 68.3571L 36.7551 66.9189C 35.9956 64.9478 34.9757 63.4639 33.667 62.5219C 32.3906 61.6625 30.7043 61.3224 29.4501 61.4501C 26.8478 61.7633 24.5927 63.5833 23.3462 64.9519L 26.3034 67.6454ZM 33.0227 68.3571C 33.496 69.5855 34.0954 70.6322 34.9263 71.3521C 35.8429 72.1464 36.9125 72.4302 37.9782 72.3025C 38.9294 72.1886 39.7687 71.7603 40.4075 71.3729C 41.0481 70.9819 41.6855 70.5103 42.2561 70.1036C 43.5472 69.1832 44.2082 68.8688 44.6326 68.8834C 44.6981 68.8857 45.4252 68.8737 46.4959 71.1638L 50.1194 69.4697C 48.8419 66.7372 47.1368 64.9673 44.7702 64.8858C 42.7624 64.8167 40.9913 66.0928 39.9341 66.8466C 39.3305 67.277 38.8148 67.6634 38.3336 67.9526C 37.8507 68.2454 37.5997 68.3193 37.5025 68.3309C 37.4201 68.349 37.5175 68.3195 37.5447 68.3414C 37.5966 68.3453 37.6175 68.4061 37.5457 68.3291C 37.4226 68.2224 37.1205 67.867 36.7551 66.9189L 33.0227 68.3571ZM 46.4959 71.1638C 47.1626 72.5897 47.9654 73.7264 48.9744 74.4942C 49.9731 75.205 51.3389 75.5764 52.3618 75.5475C 54.4228 75.4424 56.4329 74.1404 57.8328 73.2719C 59.52 72.225 60.6642 71.5581 61.6279 71.4586C 62.1155 71.3896 62.2283 71.3919 62.6148 71.6684C 62.9627 71.88 63.4536 72.3363 64.0164 73.3195L 67.4878 71.3321C 66.7088 69.9714 65.7949 68.9209 64.6935 68.2509C 63.6307 67.6458 62.2496 67.3918 61.2171 67.4798C 59.1405 67.6942 57.1397 68.9945 55.7239 69.8729C 54.0207 70.9297 52.9696 71.5113 52.1581 71.5527C 51.7448 71.597 51.7215 71.6074 51.3967 71.311C 51.0822 71.0717 50.6269 70.5551 50.1194 69.4697L 46.4959 71.1638ZM 64.0164 73.3195C 65.5603 76.0162 67.4614 77.4579 69.8234 77.5775C 71.8519 77.6802 73.8485 76.7209 75.2898 76.0773C 76.9425 75.3394 78.243 74.8042 79.5391 74.7966C 80.6658 74.79 82.0408 75.1936 83.7411 77.0321L 86.6777 74.3163C 84.3524 71.8018 81.9533 70.7824 79.5156 70.7967C 77.2474 70.81 75.1932 71.7398 73.6589 72.4249C 71.9133 73.2044 70.8906 73.6264 70.0257 73.5826C 69.4942 73.5557 68.6277 73.3232 67.4878 71.3321L 64.0164 73.3195ZM 83.7411 77.0321C 85.9561 79.4272 88.1071 80.6253 90.2853 80.8065C 92.2996 80.91 94.1681 80.1352 95.4257 79.4205C 96.0569 79.0598 96.6044 78.7089 97.0864 78.4411C 97.5588 78.1762 97.7927 78.053 98.0709 78.009C 98.3082 77.9413 98.1392 77.9088 98.2593 78.0131C 98.3344 78.0506 98.5891 78.212 98.9779 78.7941L 102.304 76.5724C 101.687 75.6478 100.956 74.8884 100.045 74.434C 99.1801 74.0466 98.0257 73.9513 97.2566 74.0928C 96.5284 74.2581 95.7349 74.6162 95.1379 74.9478C 94.5507 75.2764 93.9869 75.6371 93.444 75.946C 92.3533 76.5706 91.6219 76.9678 90.6169 76.8202C 89.776 76.7503 88.4884 76.2741 86.6777 74.3163L 83.7411 77.0321ZM 98.9779 78.7941C 100.923 81.7061 103.469 82.9669 105.906 83.2371C 108.245 83.4966 110.369 82.8355 111.675 82.1111L 109.735 78.6129C 109.029 79.0046 107.731 79.415 106.346 79.2615C 105.059 79.1187 103.58 78.4821 102.304 76.5724L 98.9779 78.7941ZM 19.594 102.469C 20.5839 101.382 22.019 100.389 23.2187 100.245C 23.8655 100.144 24.1082 100.164 24.6209 100.592C 25.1014 100.938 25.7309 101.669 26.3132 103.181L 30.0457 101.742C 29.2862 99.7714 28.2663 98.2874 26.9576 97.3455C 25.6812 96.486 23.9949 96.1459 22.7407 96.2736C 20.1384 96.5868 17.8833 98.4068 16.6368 99.7754L 19.594 102.469ZM 26.3132 103.181C 26.7866 104.409 27.386 105.456 28.2169 106.176C 29.1335 106.97 30.2031 107.254 31.2688 107.126C 32.22 107.012 33.0593 106.584 33.6981 106.196C 34.3387 105.805 34.9761 105.334 35.5467 104.927C 36.8378 104.007 37.4988 103.692 37.9232 103.707C 37.9887 103.709 38.7158 103.697 39.7865 105.987L 43.41 104.293C 42.1325 101.561 40.4274 99.7908 38.0608 99.7093C 36.053 99.6402 34.2819 100.916 33.2247 101.67C 32.6211 102.101 32.1054 102.487 31.6242 102.776C 31.1413 103.069 30.8903 103.143 30.7931 103.154C 30.7107 103.173 30.8081 103.143 30.8353 103.165C 30.8872 103.169 30.9081 103.23 30.8363 103.153C 30.7132 103.046 30.4111 102.691 30.0457 101.742L 26.3132 103.181ZM 39.7865 105.987C 40.4532 107.413 41.256 108.55 42.265 109.318C 43.2637 110.029 44.6295 110.4 45.6524 110.371C 47.7134 110.266 49.7235 108.964 51.1234 108.095C 52.8106 107.049 53.9548 106.382 54.9185 106.282C 55.4061 106.213 55.5189 106.215 55.9054 106.492C 56.2533 106.704 56.7442 107.16 57.3071 108.143L 60.7784 106.156C 59.9994 104.795 59.0855 103.744 57.9841 103.074C 56.9213 102.469 55.5402 102.215 54.5077 102.303C 52.4311 102.518 50.4303 103.818 49.0145 104.696C 47.3113 105.753 46.2602 106.335 45.4487 106.376C 45.0354 106.421 45.0121 106.431 44.6873 106.135C 44.3728 105.895 43.9175 105.379 43.41 104.293L 39.7865 105.987ZM 57.3071 108.143C 58.8509 110.84 60.752 112.281 63.114 112.401C 65.1425 112.504 67.1391 111.544 68.5804 110.901C 70.2331 110.163 71.5336 109.628 72.8297 109.62C 73.9564 109.614 75.3314 110.017 77.0317 111.856L 79.9683 109.14C 77.643 106.625 75.2439 105.606 72.8062 105.62C 70.538 105.634 68.4838 106.563 66.9495 107.248C 65.2039 108.028 64.1812 108.45 63.3163 108.406C 62.7848 108.379 61.9183 108.147 60.7784 106.156L 57.3071 108.143ZM 77.0317 111.856C 79.2467 114.251 81.3977 115.449 83.5759 115.63C 85.5902 115.734 87.4587 114.959 88.7163 114.244C 89.3475 113.883 89.895 113.532 90.377 113.265C 90.8494 113 91.0833 112.877 91.3615 112.833C 91.5988 112.765 91.4298 112.732 91.5499 112.837C 91.625 112.874 91.8797 113.035 92.2685 113.618L 95.5948 111.396C 94.9772 110.471 94.2464 109.712 93.3361 109.258C 92.4707 108.87 91.3163 108.775 90.5471 108.916C 89.819 109.082 89.0255 109.44 88.4285 109.771C 87.8413 110.1 87.2775 110.461 86.7346 110.77C 85.6439 111.394 84.9125 111.791 83.9075 111.644C 83.0666 111.574 81.779 111.098 79.9683 109.14L 77.0317 111.856ZM 92.2685 113.618C 94.2135 116.53 96.7598 117.79 99.1961 118.061C 101.536 118.32 103.659 117.659 104.966 116.935L 103.026 113.436C 102.319 113.828 101.021 114.239 99.637 114.085C 98.3496 113.942 96.8703 113.306 95.5948 111.396L 92.2685 113.618Z"/>
<path id="path2_fill" d="M 19.1071 14.3457L 0.00765476 14.3457L 0.0103476 19.3926L 19.1071 19.3926L 19.1071 14.3457Z"/>
<path id="path3_fill" d="M 6.15612 90.4935L 9.55357 98.6097L 12.9655 90.4935L 6.15612 90.4935Z"/>
<path id="path4_fill" d="M 19.1071 75.8839L 19.1071 19.3926L 0.0103476 19.3926L 0.04049 75.8839L 19.1071 75.8839Z"/>
<path id="path5_fill" d="M 19.1071 75.8839L 0.04049 75.8839L 6.15612 90.4935L 12.9655 90.4935L 19.1071 75.8839Z"/>
<path id="path6_fill" d="M 19.1071 0L 0 0L 0.00765476 14.3457L 19.1071 14.3457L 19.1071 0Z"/>
<path id="path7_stroke" d="M 0 0L 0 -1.5C -0.397963 -1.5 -0.779616 -1.34185 -1.06094 -1.06038C -1.34227 -0.778899 -1.50021 -0.397163 -1.5 0.000800387L 0 0ZM 19.1071 0L 20.6071 0C 20.6071 -0.828427 19.9356 -1.5 19.1071 -1.5L 19.1071 0ZM 19.1071 75.8839L 20.4899 76.4652C 20.5673 76.2812 20.6071 76.0835 20.6071 75.8839L 19.1071 75.8839ZM 9.55357 98.6097L 8.16991 99.1889C 8.40323 99.7463 8.9482 100.109 9.55244 100.11C 10.1567 100.11 10.7022 99.7481 10.9364 99.191L 9.55357 98.6097ZM 0.04049 75.8839L -1.45951 75.8847C -1.4594 76.0833 -1.41986 76.2799 -1.34317 76.4631L 0.04049 75.8839ZM 0.0103476 19.3926L -1.48965 19.3934L 0.0103476 19.3926ZM 6.15612 90.4935L 4.77245 91.0727L 6.15612 90.4935ZM 12.9655 90.4935L 14.3483 91.0748L 12.9655 90.4935ZM 0 1.5L 19.1071 1.5L 19.1071 -1.5L 0 -1.5L 0 1.5ZM 1.50765 14.3449L 1.5 -0.000800387L -1.5 0.000800387L -1.49234 14.3465L 1.50765 14.3449ZM 17.6071 0L 17.6071 14.3457L 20.6071 14.3457L 20.6071 0L 17.6071 0ZM 0.00765476 15.8457L 19.1071 15.8457L 19.1071 12.8457L 0.00765476 12.8457L 0.00765476 15.8457ZM 17.6071 14.3457L 17.6071 19.3926L 20.6071 19.3926L 20.6071 14.3457L 17.6071 14.3457ZM 17.6071 19.3926L 17.6071 75.8839L 20.6071 75.8839L 20.6071 19.3926L 17.6071 19.3926ZM 1.54049 75.8831L 1.51035 19.3918L -1.48965 19.3934L -1.45951 75.8847L 1.54049 75.8831ZM 1.51035 19.3918L 1.50765 14.3449L -1.49234 14.3465L -1.48965 19.3934L 1.51035 19.3918ZM 19.1071 17.8926L 0.0103476 17.8926L 0.0103476 20.8926L 19.1071 20.8926L 19.1071 17.8926ZM 0.04049 77.3839L 19.1071 77.3839L 19.1071 74.3839L 0.04049 74.3839L 0.04049 77.3839ZM 10.9372 98.0305L 7.53978 89.9143L 4.77245 91.0727L 8.16991 99.1889L 10.9372 98.0305ZM 7.53978 89.9143L 1.42415 75.3047L -1.34317 76.4631L 4.77245 91.0727L 7.53978 89.9143ZM 17.7244 75.3026L 11.5827 89.9122L 14.3483 91.0748L 20.4899 76.4652L 17.7244 75.3026ZM 11.5827 89.9122L 8.17079 98.0284L 10.9364 99.191L 14.3483 91.0748L 11.5827 89.9122ZM 6.15612 91.9935L 12.9655 91.9935L 12.9655 88.9935L 6.15612 88.9935L 6.15612 91.9935Z"/>
</defs>
</svg>
